SplineFontDB: 3.0
FontName: ocrb10
FullName: ocrb10
FamilyName: ocrb10
Weight: Book
Copyright: Generated from MetaFont bitmap by mftrace 1.2.4, http://www.xs4all.nl/~hanwen/mftrace/ 
Version: 001.001
ItalicAngle: 0
UnderlinePosition: -75
UnderlineWidth: 50
Ascent: 800
Descent: 200
LayerCount: 2
Layer: 0 1 "Back"  1
Layer: 1 1 "Fore"  0
NeedsXUIDChange: 1
XUID: [1021 656 1733315992 7182576]
FSType: 0
OS2Version: 0
OS2_WeightWidthSlopeOnly: 0
OS2_UseTypoMetrics: 1
CreationTime: 1154137863
ModificationTime: 1270070258
PfmFamily: 17
TTFWeight: 400
TTFWidth: 5
LineGap: 90
VLineGap: 0
Panose: 2 0 5 9 0 0 0 0 0 0
OS2TypoAscent: 0
OS2TypoAOffset: 1
OS2TypoDescent: 0
OS2TypoDOffset: 1
OS2TypoLinegap: 0
OS2WinAscent: 0
OS2WinAOffset: 1
OS2WinDescent: 0
OS2WinDOffset: 1
HheadAscent: 0
HheadAOffset: 1
HheadDescent: 0
HheadDOffset: 1
OS2SubXSize: 650
OS2SubYSize: 699
OS2SubXOff: 0
OS2SubYOff: 479
OS2SupXSize: 650
OS2SupYSize: 699
OS2SupXOff: 0
OS2SupYOff: 0
OS2StrikeYSize: 49
OS2StrikeYPos: 258
OS2Vendor: 'PfEd'
OS2UnicodeRanges: 80000027.50000000.00000000.00000000
Lookup: 4 0 1 "'liga' Standard Ligatures in Latin lookup 0"  {"'liga' Standard Ligatures in Latin lookup 0 subtable"  } ['liga' ('latn' <'dflt' > ) ]
DEI: 91125
ShortTable: cvt  2
  33
  633
EndShort
ShortTable: maxp 16
  1
  0
  141
  110
  5
  0
  0
  2
  0
  1
  1
  0
  64
  46
  0
  0
EndShort
LangName: 1033 "" "" "Regular" "FontForge 1.0 : ocrb10 : 28-7-2006" 
GaspTable: 1 65535 2
DesignSize: 100
Encoding: UnicodeBmp
UnicodeInterp: none
NameList: Adobe Glyph List
DisplaySize: -24
AntiAlias: 1
FitToEm: 1
WinInfo: 0 16 17
BeginChars: 65540 183

StartChar: .notdef
Encoding: 65536 -1 0
Width: 723
Flags: W
HStem: 0 33<66 333> 633 33<66 333>
VStem: 33 33<33 633> 333 33<33 633>
LayerCount: 2
Fore
SplineSet
33 0 m 1,0,-1
 33 666 l 1,1,-1
 366 666 l 1,2,-1
 366 0 l 1,3,-1
 33 0 l 1,0,-1
66 33 m 1,4,-1
 333 33 l 1,5,-1
 333 633 l 1,6,-1
 66 633 l 1,7,-1
 66 33 l 1,4,-1
EndSplineSet
Validated: 1
EndChar

StartChar: exclam
Encoding: 33 33 4
Width: 723
GlyphClass: 2
Flags: W
HStem: -74 149<300.81 421.19>
VStem: 285 152<-58.3994 59.6191> 307 104<291.281 756.913>
LayerCount: 2
Fore
SplineSet
310 696 m 0,0,1
 310 768 310 768 361 768 c 0,2,3
 380 768 380 768 394.5 754.5 c 128,-1,4
 409 741 409 741 411 721 c 0,5,6
 415 672 415 672 415 609 c 0,7,8
 415 571 415 571 413 496 c 128,-1,9
 411 421 411 421 411 384 c 0,10,11
 411 379 411 379 411.5 367 c 128,-1,12
 412 355 412 355 412 348 c 0,13,14
 412 279 412 279 361 279 c 0,15,16
 342 279 342 279 327.5 292.5 c 128,-1,17
 313 306 313 306 311 326 c 0,18,19
 307 375 307 375 307 437 c 0,20,21
 307 475 307 475 309 550 c 128,-1,22
 311 625 311 625 311 662 c 0,23,24
 311 667 311 667 310.5 678.5 c 128,-1,25
 310 690 310 690 310 696 c 0,0,1
285 -3 m 4,26,27
 285 24 285 24 292.5 41 c 132,-1,28
 300 58 300 58 314 64.5 c 132,-1,29
 328 71 328 71 337.5 73 c 132,-1,30
 347 75 347 75 360 75 c 4,31,32
 437 75 437 75 437 5 c 4,33,34
 437 -22 437 -22 429.5 -39 c 132,-1,35
 422 -56 422 -56 408.5 -63 c 132,-1,36
 395 -70 395 -70 385 -72 c 132,-1,37
 375 -74 375 -74 362 -74 c 4,38,39
 285 -74 285 -74 285 -3 c 4,26,27
EndSplineSet
Validated: 1
EndChar

StartChar: quotedbl
Encoding: 34 34 5
Width: 723
GlyphClass: 2
Flags: W
HStem: 449 320<171.024 250.732 461.25 541.454>
VStem: 159 131<549.744 756.542> 159 108<463.931 678.189> 162 95.5<456.831 520.469> 448 126<504.125 755.036> 448 108<461.814 708.937> 448 98<458.299 650.415>
LayerCount: 2
Fore
SplineSet
159 670 m 0,0,1
 159 725 159 725 171 747 c 128,-1,2
 183 769 183 769 226 769 c 0,3,4
 290 769 290 769 290 699 c 0,5,6
 290 670 290 670 279.5 613.5 c 128,-1,7
 269 557 269 557 267 543 c 1,8,9
 267 531 267 531 264.5 515 c 128,-1,10
 262 499 262 499 257.5 484.5 c 128,-1,11
 253 470 253 470 240.5 459.5 c 128,-1,12
 228 449 228 449 209 449 c 0,13,14
 193 449 193 449 179.5 460 c 128,-1,15
 166 471 166 471 162 487 c 1,16,17
 159 504 159 504 159 521 c 0,18,19
 159 531 159 531 160 550.5 c 128,-1,20
 161 570 161 570 161 579 c 0,21,22
 161 593 161 593 160 623.5 c 128,-1,23
 159 654 159 654 159 670 c 0,0,1
501 449 m 0,24,25
 448 449 448 449 448 521 c 0,26,27
 448 529 448 529 449 545 c 128,-1,28
 450 561 450 561 450 568 c 0,29,30
 450 584 450 584 449 616.5 c 128,-1,31
 448 649 448 649 448 666 c 0,32,33
 448 688 448 688 448.5 696.5 c 128,-1,34
 449 705 449 705 452 722.5 c 128,-1,35
 455 740 455 740 461 747.5 c 128,-1,36
 467 755 467 755 479.5 761.5 c 128,-1,37
 492 768 492 768 511 768 c 0,38,39
 574 768 574 768 574 709 c 0,40,41
 574 707 574 707 573.5 704 c 128,-1,42
 573 701 573 701 572 691 c 128,-1,43
 571 681 571 681 569.5 665.5 c 128,-1,44
 568 650 568 650 564 615 c 128,-1,45
 560 580 560 580 556 534 c 1,46,47
 556 522 556 522 553 507 c 128,-1,48
 550 492 550 492 546 479.5 c 128,-1,49
 542 467 542 467 530.5 458 c 128,-1,50
 519 449 519 449 501 449 c 0,24,25
EndSplineSet
Validated: 1
EndChar

StartChar: numbersign
Encoding: 35 35 6
Width: 723
GlyphClass: 2
Flags: W
HStem: 203 100<283 384 509.375 576.557> 459 100<141.721 214 339 442> 751 19G<315 333 542.5 561.5>
VStem: 153 105<105.238 202.938> 272 103<620.717 760.007> 501.5 101.5<626.333 756.045>
LayerCount: 2
Fore
SplineSet
153 193 m 0,0,1
 153 199 153 199 146.5 205 c 128,-1,2
 140 211 140 211 132 215.5 c 128,-1,3
 124 220 124 220 117.5 230 c 128,-1,4
 111 240 111 240 111 254 c 0,5,6
 111 276 111 276 132.5 289.5 c 128,-1,7
 154 303 154 303 181 303 c 1,8,-1
 214 459 l 1,9,10
 133 459 133 459 133 506 c 0,11,12
 133 527 133 527 142.5 539.5 c 128,-1,13
 152 552 152 552 165.5 555 c 128,-1,14
 179 558 179 558 192.5 559.5 c 128,-1,15
 206 561 206 561 215 559 c 1,16,17
 234 559 234 559 240 572.5 c 128,-1,18
 246 586 246 586 248 609 c 1,19,20
 250 619 250 619 253.5 644.5 c 128,-1,21
 257 670 257 670 261 688.5 c 128,-1,22
 265 707 265 707 272 727.5 c 128,-1,23
 279 748 279 748 292.5 759 c 128,-1,24
 306 770 306 770 324 770 c 128,-1,25
 342 770 342 770 358.5 756.5 c 128,-1,26
 375 743 375 743 375 721 c 0,27,28
 375 714 375 714 360 647.5 c 128,-1,29
 345 581 345 581 339 559 c 1,30,-1
 428 559 l 2,31,32
 430 559 430 559 436 558.5 c 128,-1,33
 442 558 442 558 445 558 c 0,34,35
 464 558 464 558 469.5 574.5 c 128,-1,36
 475 591 475 591 477 612 c 1,37,38
 479 621 479 621 483 649 c 128,-1,39
 487 677 487 677 490.5 693.5 c 128,-1,40
 494 710 494 710 501.5 730.5 c 128,-1,41
 509 751 509 751 521.5 761 c 128,-1,42
 534 771 534 771 551 771 c 0,43,44
 572 771 572 771 587.5 756.5 c 128,-1,45
 603 742 603 742 603 718 c 0,46,47
 603 708 603 708 597.5 689 c 128,-1,48
 592 670 592 670 592 668 c 0,49,50
 589 655 589 655 581 617 c 128,-1,51
 573 579 573 579 567 559 c 1,52,53
 586 554 586 554 598.5 540.5 c 128,-1,54
 611 527 611 527 611 509 c 0,55,56
 611 496 611 496 602.5 481.5 c 128,-1,57
 594 467 594 467 576 461 c 0,58,59
 572 460 572 460 564 459.5 c 128,-1,60
 556 459 556 459 551.5 457 c 128,-1,61
 547 455 547 455 544 450 c 0,62,63
 531 427 531 427 523 374 c 128,-1,64
 515 321 515 321 509 303 c 1,65,66
 553 303 553 303 564 297 c 0,67,68
 591 284 591 284 591 252 c 0,69,70
 591 233 591 233 577 217 c 128,-1,71
 563 201 563 201 527 201 c 0,72,73
 520 201 520 201 506.5 202 c 128,-1,74
 493 203 493 203 487 203 c 1,75,76
 486 197 486 197 460 81 c 0,77,78
 455 63 455 63 452.5 42.5 c 128,-1,79
 450 22 450 22 436.5 5 c 128,-1,80
 423 -12 423 -12 399 -12 c 0,81,82
 379 -12 379 -12 364 1 c 128,-1,83
 349 14 349 14 349 38 c 0,84,85
 349 50 349 50 364.5 113 c 128,-1,86
 380 176 380 176 384 203 c 1,87,-1
 258 203 l 1,88,89
 257 189 257 189 254 173.5 c 128,-1,90
 251 158 251 158 245.5 137.5 c 128,-1,91
 240 117 240 117 238 108 c 0,92,93
 237 101 237 101 233 77.5 c 128,-1,94
 229 54 229 54 226 43 c 128,-1,95
 223 32 223 32 216.5 16.5 c 128,-1,96
 210 1 210 1 199 -6 c 128,-1,97
 188 -13 188 -13 173 -13 c 0,98,99
 154 -13 154 -13 137 1 c 128,-1,100
 120 15 120 15 120 48 c 0,101,102
 120 72 120 72 136.5 121.5 c 128,-1,103
 153 171 153 171 153 193 c 0,0,1
442 459 m 1,104,-1
 353 459 l 1,105,-1
 319 456 l 1,106,-1
 307 417 l 1,107,-1
 283 303 l 1,108,-1
 409 303 l 1,109,-1
 442 459 l 1,104,-1
EndSplineSet
Validated: 1
EndChar

StartChar: dollar
Encoding: 36 36 7
Width: 723
GlyphClass: 2
Flags: W
HStem: 45 182<164 311> 45 100<233.429 311> 537 21G<533.5 552>
VStem: 114 100<496.203 581.792> 311 100<148 323 459 615 712.82 752.076> 513 100<184.629 282.325>
LayerCount: 2
Fore
SplineSet
114 181 m 0,0,1
 114 205 114 205 130.5 216 c 128,-1,2
 147 227 147 227 164 227 c 0,3,4
 178 227 178 227 188.5 218 c 128,-1,5
 199 209 199 209 210 193 c 128,-1,6
 221 177 221 177 228 170 c 0,7,8
 253 147 253 147 311 145 c 1,9,-1
 311 292 l 2,10,11
 311 296 311 296 312 308 c 128,-1,12
 313 320 313 320 313 326 c 0,13,14
 313 351 313 351 295 359.5 c 128,-1,15
 277 368 277 368 253 372 c 1,16,17
 225 382 225 382 203 394 c 128,-1,18
 181 406 181 406 159.5 425 c 128,-1,19
 138 444 138 444 126 471.5 c 128,-1,20
 114 499 114 499 114 534 c 0,21,22
 114 610 114 610 170 659.5 c 128,-1,23
 226 709 226 709 311 715 c 1,24,25
 312 739 312 739 326.5 752.5 c 128,-1,26
 341 766 341 766 361 766 c 128,-1,27
 381 766 381 766 395.5 752.5 c 128,-1,28
 410 739 410 739 411 715 c 1,29,30
 485 706 485 706 535 665.5 c 128,-1,31
 585 625 585 625 585 583 c 0,32,33
 585 563 585 563 574 550 c 128,-1,34
 563 537 563 537 541 537 c 0,35,36
 526 537 526 537 515.5 543.5 c 128,-1,37
 505 550 505 550 491 565.5 c 128,-1,38
 477 581 477 581 473 584 c 0,39,40
 458 597 458 597 411 615 c 1,41,-1
 411 484 l 2,42,43
 411 480 411 480 410 470 c 128,-1,44
 409 460 409 460 409 454 c 0,45,46
 409 438 409 438 414 432 c 0,47,48
 421 422 421 422 456.5 410 c 128,-1,49
 492 398 492 398 495 397 c 0,50,51
 547 371 547 371 580 329.5 c 128,-1,52
 613 288 613 288 613 236 c 0,53,54
 613 192 613 192 585 142 c 128,-1,55
 557 92 557 92 492 65 c 0,56,57
 485 62 485 62 456.5 56.5 c 128,-1,58
 428 51 428 51 418 44 c 0,59,60
 412 40 412 40 406.5 26 c 128,-1,61
 401 12 401 12 391 1 c 128,-1,62
 381 -10 381 -10 361 -10 c 128,-1,63
 341 -10 341 -10 326.5 6 c 128,-1,64
 312 22 312 22 311 45 c 1,65,66
 219 45 219 45 166.5 89 c 128,-1,67
 114 133 114 133 114 181 c 0,0,1
311 615 m 1,68,69
 270 607 270 607 246.5 590.5 c 128,-1,70
 223 574 223 574 218.5 562.5 c 128,-1,71
 214 551 214 551 214 540 c 0,72,73
 214 512 214 512 245 488 c 128,-1,74
 276 464 276 464 311 459 c 1,75,-1
 311 615 l 1,68,69
411 148 m 1,76,77
 447 150 447 150 480 175 c 128,-1,78
 513 200 513 200 513 233 c 0,79,80
 513 295 513 295 411 323 c 1,81,-1
 411 148 l 1,76,77
EndSplineSet
Validated: 1
EndChar

StartChar: percent
Encoding: 37 37 8
Width: 723
GlyphClass: 2
Flags: W
HStem: -14 100<454.119 506.752> 175 101<455.918 505.903> 484 100<217.097 266.84> 670 101<215.815 266.392>
VStem: 112 98<591.911 663.585> 273 98<590.918 662.027> 352 97<88.7528 168.112> 513 98<93.9062 166.941>
LayerCount: 2
Fore
SplineSet
112 629 m 0,0,1
 112 690 112 690 149.5 730.5 c 128,-1,2
 187 771 187 771 246 771 c 0,3,4
 304 771 304 771 337.5 727.5 c 128,-1,5
 371 684 371 684 371 626 c 0,6,7
 371 564 371 564 334 524 c 128,-1,8
 297 484 297 484 238 484 c 0,9,10
 180 484 180 484 146 527.5 c 128,-1,11
 112 571 112 571 112 629 c 0,0,1
504 718 m 2,12,13
 507 724 507 724 512.5 732.5 c 128,-1,14
 518 741 518 741 523.5 748 c 128,-1,15
 529 755 529 755 539.5 760 c 128,-1,16
 550 765 550 765 562 765 c 0,17,18
 582 765 582 765 596 750 c 128,-1,19
 610 735 610 735 610 715 c 0,20,21
 610 691 610 691 563 613 c 128,-1,22
 516 535 516 535 489 495 c 1,23,-1
 290 158 l 1,24,-1
 220 42 l 1,25,26
 217 35 217 35 211 26.5 c 128,-1,27
 205 18 205 18 199 10.5 c 128,-1,28
 193 3 193 3 183.5 -2 c 128,-1,29
 174 -7 174 -7 162 -7 c 0,30,31
 142 -7 142 -7 127.5 7 c 128,-1,32
 113 21 113 21 113 41 c 0,33,34
 113 63 113 63 131.5 93.5 c 128,-1,35
 150 124 150 124 166 147 c 1,36,-1
 504 718 l 2,12,13
241 670 m 0,37,38
 227 670 227 670 218.5 659 c 128,-1,39
 210 648 210 648 210 629 c 0,40,41
 210 611 210 611 218.5 597.5 c 128,-1,42
 227 584 227 584 242 584 c 0,43,44
 256 584 256 584 264.5 595.5 c 128,-1,45
 273 607 273 607 273 626 c 0,46,47
 273 644 273 644 264.5 657 c 128,-1,48
 256 670 256 670 241 670 c 0,37,38
352 133 m 0,49,50
 352 195 352 195 389 235.5 c 128,-1,51
 426 276 426 276 485 276 c 0,52,53
 543 276 543 276 577 232 c 128,-1,54
 611 188 611 188 611 129 c 0,55,56
 611 66 611 66 574.5 26 c 128,-1,57
 538 -14 538 -14 479 -14 c 128,-1,58
 420 -14 420 -14 386 30 c 128,-1,59
 352 74 352 74 352 133 c 0,49,50
481 175 m 0,60,61
 467 175 467 175 458 163.5 c 128,-1,62
 449 152 449 152 449 133 c 128,-1,63
 449 114 449 114 458 100 c 128,-1,64
 467 86 467 86 482 86 c 128,-1,65
 497 86 497 86 505 99 c 128,-1,66
 513 112 513 112 513 129 c 0,67,68
 513 148 513 148 504.5 161.5 c 128,-1,69
 496 175 496 175 481 175 c 0,60,61
EndSplineSet
Validated: 1
EndChar

StartChar: ampersand
Encoding: 38 38 9
Width: 723
GlyphClass: 2
Flags: W
HStem: -16 100<249.934 420.803> 672 101<267.155 403.467>
VStem: 110 100<125.896 277.515> 142 100<506.702 646.972> 422 101<566.79 656.389> 513.5 98.5<193.75 348.11>
LayerCount: 2
Fore
SplineSet
584 35 m 128,-1,1
 584 22 584 22 573.5 6.5 c 128,-1,2
 563 -9 563 -9 541 -9 c 0,3,4
 524 -9 524 -9 508 1.5 c 128,-1,5
 492 12 492 12 484 28 c 1,6,7
 423 -16 423 -16 334 -16 c 0,8,9
 231 -16 231 -16 172 42 c 0,10,11
 110 103 110 103 110 205 c 0,12,13
 110 282 110 282 160 350 c 0,14,15
 161 352 161 352 183.5 374.5 c 128,-1,16
 206 397 206 397 206 406 c 0,17,18
 206 416 206 416 190 438.5 c 128,-1,19
 174 461 174 461 158 499.5 c 128,-1,20
 142 538 142 538 142 587 c 0,21,22
 142 668 142 668 195 720.5 c 128,-1,23
 248 773 248 773 334 773 c 0,24,25
 414 773 414 773 468.5 728.5 c 128,-1,26
 523 684 523 684 523 615 c 0,27,28
 523 586 523 586 513 559 c 128,-1,29
 503 532 503 532 479.5 505 c 128,-1,30
 456 478 456 478 440.5 463 c 128,-1,31
 425 448 425 448 390.5 420 c 128,-1,32
 356 392 356 392 347 384 c 1,33,-1
 407 306 l 1,34,-1
 487 192 l 1,35,-1
 492 192 l 1,36,37
 503 236 503 236 508 268.5 c 128,-1,38
 513 301 513 301 513.5 311 c 128,-1,39
 514 321 514 321 516.5 328 c 128,-1,40
 519 335 519 335 527 343 c 0,41,42
 543 357 543 357 561 357 c 0,43,44
 580 357 580 357 594.5 345 c 128,-1,45
 609 333 609 333 611 314 c 0,46,47
 612 306 612 306 612 289 c 0,48,49
 612 227 612 227 586 161 c 0,50,51
 584 155 584 155 571.5 132.5 c 128,-1,52
 559 110 559 110 559 99 c 128,-1,53
 559 88 559 88 571.5 68 c 128,-1,0
 584 48 584 48 584 35 c 128,-1,1
342 672 m 0,54,55
 242 672 242 672 242 587 c 0,56,57
 242 550 242 550 259.5 515 c 128,-1,58
 277 480 277 480 292 467 c 1,59,60
 306 480 306 480 335 500.5 c 128,-1,61
 364 521 364 521 393 557 c 128,-1,62
 422 593 422 593 422 620 c 0,63,64
 422 643 422 643 400 657.5 c 128,-1,65
 378 672 378 672 342 672 c 0,54,55
210 196 m 0,66,67
 210 152 210 152 237.5 118 c 128,-1,68
 265 84 265 84 329 84 c 0,69,70
 382 84 382 84 425 108 c 1,71,-1
 272 323 l 1,72,73
 244 303 244 303 227 268 c 128,-1,74
 210 233 210 233 210 196 c 0,66,67
EndSplineSet
Validated: 1
EndChar

StartChar: parenleft
Encoding: 40 40 10
Width: 723
GlyphClass: 2
Flags: W
HStem: 750 20G<465.5 501.5>
VStem: 252 101<256.078 501.492>
LayerCount: 2
Fore
SplineSet
541 34 m 0,0,1
 541 14 541 14 527 1 c 128,-1,2
 513 -12 513 -12 493 -12 c 0,3,4
 462 -12 462 -12 404 41 c 128,-1,5
 346 94 346 94 302 170 c 0,6,7
 252 258 252 258 252 368 c 0,8,9
 252 450 252 450 280 528.5 c 128,-1,10
 308 607 308 607 358 668 c 0,11,12
 440 770 440 770 491 770 c 0,13,14
 512 770 512 770 526.5 755.5 c 128,-1,15
 541 741 541 741 541 721 c 0,16,17
 541 698 541 698 521.5 681 c 128,-1,18
 502 664 502 664 465.5 633 c 128,-1,19
 429 602 429 602 401 556 c 0,20,21
 353 477 353 477 353 374 c 0,22,23
 353 306 353 306 377 249.5 c 128,-1,24
 401 193 401 193 433 158 c 128,-1,25
 465 123 465 123 519 79 c 0,26,27
 541 62 541 62 541 34 c 0,0,1
EndSplineSet
Validated: 1
EndChar

StartChar: parenright
Encoding: 41 41 11
Width: 723
GlyphClass: 2
Flags: W
HStem: 751 20G<217.5 243.5>
VStem: 371 100<254.626 504.77>
LayerCount: 2
Fore
SplineSet
181 721 m 0,0,1
 181 740 181 740 194 755.5 c 128,-1,2
 207 771 207 771 228 771 c 0,3,4
 259 771 259 771 316 717.5 c 128,-1,5
 373 664 373 664 406 612 c 0,6,7
 471 512 471 512 471 383 c 0,8,9
 471 217 471 217 371 94 c 0,10,11
 284 -13 284 -13 229 -13 c 0,12,13
 208 -13 208 -13 194 2.5 c 128,-1,14
 180 18 180 18 180 38 c 0,15,16
 180 56 180 56 193 70.5 c 128,-1,17
 206 85 206 85 224.5 96 c 128,-1,18
 243 107 243 107 270.5 134 c 128,-1,19
 298 161 298 161 321 197 c 0,20,21
 371 276 371 276 371 378 c 0,22,23
 371 430 371 430 359.5 473.5 c 128,-1,24
 348 517 348 517 324 551 c 128,-1,25
 300 585 300 585 283 604.5 c 128,-1,26
 266 624 266 624 234.5 650.5 c 128,-1,27
 203 677 203 677 197 683 c 0,28,29
 181 698 181 698 181 721 c 0,0,1
EndSplineSet
Validated: 1
EndChar

StartChar: asterisk
Encoding: 42 42 12
Width: 723
GlyphClass: 2
Flags: W
HStem: 392.5 102.5<507.562 601.098>
VStem: 311 100<448 634.588> 445 97<161.915 220.133>
LayerCount: 2
Fore
SplineSet
113 442 m 0,0,1
 113 463 113 463 128.5 479 c 128,-1,2
 144 495 144 495 163 495 c 0,3,4
 172 495 172 495 208 482 c 1,5,-1
 311 448 l 1,6,-1
 311 559 l 2,7,8
 311 563 311 563 310.5 572.5 c 128,-1,9
 310 582 310 582 310 587 c 0,10,11
 310 622 310 622 326 635 c 128,-1,12
 342 648 342 648 361 648 c 0,13,14
 384 648 384 648 399 631 c 0,15,16
 406 623 406 623 409 612 c 128,-1,17
 412 601 412 601 411.5 591 c 128,-1,18
 411 581 411 581 411 570 c 2,19,-1
 411 448 l 1,20,-1
 514 482 l 2,21,22
 553 495 553 495 560 495 c 0,23,24
 581 495 581 495 596 479.5 c 128,-1,25
 611 464 611 464 611 443 c 0,26,27
 611 427 611 427 601 414 c 128,-1,28
 591 401 591 401 572 392.5 c 128,-1,29
 553 384 553 384 537 379 c 128,-1,30
 521 374 521 374 496 368 c 128,-1,31
 471 362 471 362 461 359 c 1,32,33
 473 333 473 333 507.5 276.5 c 128,-1,34
 542 220 542 220 542 200 c 0,35,36
 542 179 542 179 526 166 c 128,-1,37
 510 153 510 153 492 153 c 0,38,39
 475 153 475 153 463 161.5 c 128,-1,40
 451 170 451 170 445 182.5 c 128,-1,41
 439 195 439 195 431 209 c 1,42,43
 418 228 418 228 400 257.5 c 128,-1,44
 382 287 382 287 375 309 c 1,45,-1
 370 309 l 1,46,47
 361 286 361 286 337.5 256.5 c 128,-1,48
 314 227 314 227 298 209 c 1,49,50
 286 189 286 189 269.5 171 c 128,-1,51
 253 153 253 153 232 153 c 0,52,53
 212 153 212 153 196.5 167 c 128,-1,54
 181 181 181 181 181 202 c 0,55,56
 181 224 181 224 207 256 c 0,57,58
 213 264 213 264 239 300 c 128,-1,59
 265 336 265 336 281 353 c 1,60,61
 278 354 278 354 181 386 c 1,62,63
 174 387 174 387 162.5 391 c 128,-1,64
 151 395 151 395 140 400 c 128,-1,65
 129 405 129 405 121 416 c 128,-1,66
 113 427 113 427 113 442 c 0,0,1
EndSplineSet
Validated: 1
EndChar

StartChar: plus
Encoding: 43 43 13
Width: 723
GlyphClass: 2
Flags: W
HStem: 328 100<136.383 311 411 597.589> 335 94<126.411 192.571>
VStem: 311 100<109.91 328 428 641.557>
LayerCount: 2
Fore
SplineSet
113 378 m 0,0,1
 113 397 113 397 126 413 c 128,-1,2
 139 429 139 429 171 429 c 0,3,4
 176 429 176 429 184.5 428.5 c 128,-1,5
 193 428 193 428 197 428 c 2,6,-1
 311 428 l 1,7,-1
 311 578 l 2,8,9
 311 591 311 591 311 602 c 128,-1,10
 311 613 311 613 315 624.5 c 128,-1,11
 319 636 319 636 328 644 c 0,12,13
 343 656 343 656 361 656 c 0,14,15
 381 656 381 656 396.5 642 c 128,-1,16
 412 628 412 628 412 593 c 0,17,18
 412 586 412 586 411.5 573.5 c 128,-1,19
 411 561 411 561 411 556 c 2,20,-1
 411 428 l 1,21,-1
 523 428 l 2,22,23
 527 428 527 428 537 428.5 c 128,-1,24
 547 429 547 429 552 429 c 0,25,26
 585 429 585 429 598 411.5 c 128,-1,27
 611 394 611 394 611 377 c 0,28,29
 611 352 611 352 592 339 c 0,30,31
 584 333 584 333 573 330 c 128,-1,32
 562 327 562 327 552 327.5 c 128,-1,33
 542 328 542 328 531 328 c 2,34,-1
 411 328 l 1,35,-1
 411 183 l 2,36,37
 411 180 411 180 411.5 170 c 128,-1,38
 412 160 412 160 411.5 155 c 128,-1,39
 411 150 411 150 410 142.5 c 128,-1,40
 409 135 409 135 406.5 129 c 128,-1,41
 404 123 404 123 399 118 c 0,42,43
 384 102 384 102 362 102 c 0,44,45
 310 102 310 102 310 168 c 0,46,47
 310 174 310 174 310.5 184.5 c 128,-1,48
 311 195 311 195 311 200 c 2,49,-1
 311 328 l 1,50,-1
 194 328 l 2,51,52
 148 328 148 328 136 335 c 0,53,54
 113 350 113 350 113 378 c 0,0,1
EndSplineSet
Validated: 1
EndChar

StartChar: comma
Encoding: 44 44 14
Width: 723
GlyphClass: 2
Flags: W
LayerCount: 2
Fore
SplineSet
304 130 m 2,0,1
 320 156 320 156 328.5 173 c 128,-1,2
 337 190 337 190 353.5 199 c 128,-1,3
 370 208 370 208 401 208 c 0,4,5
 415 208 415 208 434 206.5 c 128,-1,6
 453 205 453 205 486 205 c 0,7,8
 504 205 504 205 514 200 c 1,9,10
 541 183 541 183 541 139 c 0,11,12
 541 107 541 107 520.5 83.5 c 128,-1,13
 500 60 500 60 481 44 c 1,14,15
 432 -12 432 -12 325 -117 c 1,16,17
 305 -142 305 -142 280.5 -163.5 c 128,-1,18
 256 -185 256 -185 224 -185 c 0,19,20
 197 -185 197 -185 177.5 -172.5 c 128,-1,21
 158 -160 158 -160 158 -136 c 0,22,23
 158 -115 158 -115 174 -87.5 c 128,-1,24
 190 -60 190 -60 205 -39 c 1,25,-1
 304 130 l 2,0,1
EndSplineSet
Validated: 1
EndChar

StartChar: hyphen
Encoding: 45 45 15
Width: 723
GlyphClass: 2
Flags: W
HStem: 311 133<132.21 593.887>
LayerCount: 2
Fore
SplineSet
109 380 m 4,0,1
 109 419 109 419 131.5 432.5 c 132,-1,2
 154 446 154 446 204 446 c 4,3,4
 222 446 222 446 255 444 c 132,-1,5
 288 442 288 442 303 442 c 6,6,-1
 487 442 l 6,7,8
 495 442 495 442 512.5 443 c 132,-1,9
 530 444 530 444 539 444 c 4,10,11
 575 444 575 444 594.5 430.5 c 132,-1,12
 614 417 614 417 614 380 c 4,13,14
 614 311 614 311 535 311 c 4,15,16
 522 311 522 311 499 312.5 c 132,-1,17
 476 314 476 314 467 314 c 6,18,-1
 247 314 l 6,19,20
 238 314 238 314 217 312.5 c 132,-1,21
 196 311 196 311 185 311 c 4,22,23
 109 311 109 311 109 380 c 4,0,1
EndSplineSet
Validated: 1
EndChar

StartChar: period
Encoding: 46 46 16
Width: 723
GlyphClass: 2
Flags: W
HStem: -14 205<256.601 468.557>
VStem: 239 247<4.50732 171.526>
LayerCount: 2
Fore
SplineSet
237 111 m 0,0,1
 237 158 237 158 256 174.5 c 128,-1,2
 275 191 275 191 323 191 c 0,3,4
 340 191 340 191 372 188.5 c 128,-1,5
 404 186 404 186 417 186 c 0,6,7
 455 186 455 186 469 172 c 0,8,9
 484 157 484 157 484 121 c 0,10,11
 484 107 484 107 485 91.5 c 128,-1,12
 486 76 486 76 486 66 c 0,13,14
 486 20 486 20 469.5 4 c 128,-1,15
 453 -12 453 -12 423 -12 c 0,16,17
 418 -12 418 -12 410 -11.5 c 128,-1,18
 402 -11 402 -11 398 -11 c 0,19,20
 390 -11 390 -11 365 -12.5 c 128,-1,21
 340 -14 340 -14 325 -14 c 0,22,23
 272 -14 272 -14 255.5 3 c 128,-1,24
 239 20 239 20 239 51 c 0,25,26
 239 74 239 74 238 87.5 c 128,-1,27
 237 101 237 101 237 111 c 0,0,1
EndSplineSet
Validated: 1
EndChar

StartChar: slash
Encoding: 47 47 17
Width: 723
GlyphClass: 2
Flags: W
HStem: 750 20G<493 511>
LayerCount: 2
Fore
SplineSet
446 720 m 2,0,1
 452 735 452 735 457 744 c 128,-1,2
 462 753 462 753 473.5 761.5 c 128,-1,3
 485 770 485 770 501 770 c 0,4,5
 521 770 521 770 535.5 755.5 c 128,-1,6
 550 741 550 741 550 720 c 0,7,8
 550 707 550 707 545.5 693 c 128,-1,9
 541 679 541 679 532 661 c 128,-1,10
 523 643 523 643 521 637 c 2,11,-1
 320 145 l 2,12,13
 317 137 317 137 305.5 101.5 c 128,-1,14
 294 66 294 66 285.5 46 c 128,-1,15
 277 26 277 26 259.5 6.5 c 128,-1,16
 242 -13 242 -13 222 -13 c 0,17,18
 201 -13 201 -13 186.5 2 c 128,-1,19
 172 17 172 17 172 37 c 0,20,21
 172 50 172 50 178.5 69 c 128,-1,22
 185 88 185 88 196.5 112 c 128,-1,23
 208 136 208 136 209 139 c 2,24,-1
 446 720 l 2,0,1
EndSplineSet
Validated: 1
EndChar

StartChar: zero
Encoding: 48 48 18
Width: 723
GlyphClass: 2
Flags: W
HStem: -16 100<274.385 448.712> 317 149<301.604 421.985> 673 99<273.316 450.475>
VStem: 109 102<169.729 593.994> 286 152<332.729 449.577> 513 99<171.372 585.377>
LayerCount: 2
Fore
SplineSet
286 388 m 0,0,1
 286 415 286 415 293 432 c 0,2,3
 300 450 300 450 314 456 c 128,-1,4
 328 462 328 462 338 464 c 128,-1,5
 348 466 348 466 360 466 c 0,6,7
 438 466 438 466 438 396 c 0,8,9
 437 369 437 369 430 352 c 128,-1,10
 423 335 423 335 409 328 c 0,11,12
 396 321 396 321 385.5 319 c 128,-1,13
 375 317 375 317 362 317 c 0,14,15
 286 317 286 317 286 388 c 0,0,1
361 -16 m 0,16,17
 239 -16 239 -16 174 66.5 c 128,-1,18
 109 149 109 149 109 347 c 0,19,20
 109 377 109 377 114 467 c 0,21,22
 118 528 118 528 126 571.5 c 128,-1,23
 134 615 134 615 151 655 c 128,-1,24
 168 695 168 695 194.5 719.5 c 128,-1,25
 221 744 221 744 262.5 758 c 128,-1,26
 304 772 304 772 361 772 c 0,27,28
 434 772 434 772 478 751 c 1,29,30
 516 734 516 734 542.5 701.5 c 128,-1,31
 569 669 569 669 582 635.5 c 128,-1,32
 595 602 595 602 602.5 552.5 c 128,-1,33
 610 503 610 503 611 471 c 128,-1,34
 612 439 612 439 612 389 c 0,35,36
 612 321 612 321 609 275 c 0,37,38
 604 198 604 198 584 142 c 128,-1,39
 564 86 564 86 539 56 c 128,-1,40
 514 26 514 26 479.5 9 c 128,-1,41
 445 -8 445 -8 419 -12 c 128,-1,42
 393 -16 393 -16 361 -16 c 0,16,17
320 669 m 0,43,44
 288 665 288 665 265.5 645 c 128,-1,45
 243 625 243 625 232.5 594 c 128,-1,46
 222 563 222 563 218 534 c 128,-1,47
 214 505 214 505 214 473 c 0,48,49
 214 450 214 450 212.5 405 c 128,-1,50
 211 360 211 360 211 338 c 0,51,52
 211 131 211 131 292 94 c 0,53,54
 313 84 313 84 353 84 c 0,55,56
 380 84 380 84 403 87 c 0,57,58
 501 100 501 100 509 278 c 0,59,60
 513 358 513 358 513 401 c 0,61,62
 513 607 513 607 450 652 c 0,63,64
 421 673 421 673 367 673 c 0,65,66
 348 673 348 673 320 669 c 0,43,44
EndSplineSet
Validated: 1
EndChar

StartChar: one
Encoding: 49 49 19
Width: 723
GlyphClass: 2
Flags: W
HStem: 750 20G<378.5 420.5>
VStem: 353 100<-0.879395 634>
LayerCount: 2
Fore
SplineSet
406 -11 m 4,0,1
 350 -11 350 -11 350 74 c 4,2,3
 350 87 350 87 351.5 110.5 c 132,-1,4
 353 134 353 134 353 142 c 6,5,-1
 353 634 l 5,6,7
 317 598 317 598 268.5 556.5 c 132,-1,8
 220 515 220 515 193 515 c 4,9,10
 173 515 173 515 158 528.5 c 132,-1,11
 143 542 143 542 143 564 c 4,12,13
 143 590 143 590 177 618 c 6,14,-1
 291 716 l 6,15,16
 300 723 300 723 314 735.5 c 132,-1,17
 328 748 328 748 335.5 754 c 132,-1,18
 343 760 343 760 356.5 765 c 132,-1,19
 370 770 370 770 387 770 c 4,20,21
 454 770 454 770 454 708 c 4,22,23
 454 704 454 704 453.5 696 c 132,-1,24
 453 688 453 688 453 684 c 6,25,-1
 453 150 l 6,26,27
 453 144 453 144 454.5 120.5 c 132,-1,28
 456 97 456 97 456 83 c 4,29,30
 456 -11 456 -11 406 -11 c 4,0,1
EndSplineSet
Validated: 1
EndChar

StartChar: two
Encoding: 50 50 20
Width: 723
GlyphClass: 2
Flags: W
HStem: 0 100<241 582.571> 670 101<245.644 438.305>
VStem: 138 103<100 183.951> 486 100<492.555 623.295>
LayerCount: 2
Fore
SplineSet
586 551 m 0,0,1
 586 498 586 498 560 454 c 128,-1,2
 534 410 534 410 495.5 380.5 c 128,-1,3
 457 351 457 351 412.5 319.5 c 128,-1,4
 368 288 368 288 330 260 c 128,-1,5
 292 232 292 232 266.5 190.5 c 128,-1,6
 241 149 241 149 241 100 c 1,7,-1
 483 100 l 2,8,9
 489 100 489 100 503.5 101 c 128,-1,10
 518 102 518 102 526 102 c 0,11,12
 552 102 552 102 567.5 92 c 128,-1,13
 583 82 583 82 586.5 71.5 c 128,-1,14
 590 61 590 61 590 50 c 0,15,16
 590 -3 590 -3 521 -3 c 0,17,18
 510 -3 510 -3 491 -1.5 c 128,-1,19
 472 0 472 0 464 0 c 2,20,-1
 247 0 l 2,21,22
 242 0 242 0 229.5 -0.5 c 128,-1,23
 217 -1 217 -1 210 -1 c 0,24,25
 170 -1 170 -1 154 16 c 128,-1,26
 138 33 138 33 138 76 c 0,27,28
 138 136 138 136 154 185.5 c 128,-1,29
 170 235 170 235 201.5 273.5 c 128,-1,30
 233 312 233 312 265 338.5 c 128,-1,31
 297 365 297 365 344 394 c 0,32,33
 374 413 374 413 392 425.5 c 128,-1,34
 410 438 410 438 435.5 460.5 c 128,-1,35
 461 483 461 483 473.5 507.5 c 128,-1,36
 486 532 486 532 486 559 c 0,37,38
 486 603 486 603 453 636.5 c 128,-1,39
 420 670 420 670 348 670 c 0,40,41
 305 670 305 670 270 657.5 c 128,-1,42
 235 645 235 645 211.5 632.5 c 128,-1,43
 188 620 188 620 172 620 c 0,44,45
 149 620 149 620 139 637.5 c 128,-1,46
 129 655 129 655 129 670 c 0,47,48
 129 713 129 713 202.5 742 c 128,-1,49
 276 771 276 771 347 771 c 0,50,51
 377 771 377 771 407.5 765.5 c 128,-1,52
 438 760 438 760 471 744 c 128,-1,53
 504 728 504 728 529 704.5 c 128,-1,54
 554 681 554 681 570 641 c 128,-1,55
 586 601 586 601 586 551 c 0,0,1
EndSplineSet
Validated: 1
EndChar

StartChar: three
Encoding: 51 51 21
Width: 723
GlyphClass: 2
Flags: W
HStem: -14 101<199.643 418.916> 655 104<125.428 442>
VStem: 503 99<163.77 311.204>
LayerCount: 2
Fore
SplineSet
313 87 m 0,0,1
 403 87 403 87 453 130.5 c 128,-1,2
 503 174 503 174 503 237 c 0,3,4
 503 298 503 298 460.5 333 c 128,-1,5
 418 368 418 368 347 378 c 0,6,7
 341 379 341 379 321 380 c 128,-1,8
 301 381 301 381 287.5 384 c 128,-1,9
 274 387 274 387 265 396 c 0,10,11
 250 410 250 410 250 429 c 0,12,13
 250 456 250 456 272 478 c 2,14,-1
 442 656 l 1,15,-1
 214 656 l 2,16,17
 209 656 209 656 198 655.5 c 128,-1,18
 187 655 187 655 181 655 c 0,19,20
 116 655 116 655 116 707 c 128,-1,21
 116 759 116 759 189 759 c 0,22,23
 199 759 199 759 219 758 c 128,-1,24
 239 757 239 757 247 757 c 2,25,-1
 481 757 l 1,26,27
 490 758 490 758 499 758 c 0,28,29
 514 758 514 758 514 758 c 0,30,31
 528 757 528 757 546 752 c 0,32,33
 561 749 561 749 570.5 733.5 c 128,-1,34
 580 718 580 718 580 692 c 128,-1,35
 580 666 580 666 561.5 638 c 128,-1,36
 543 610 543 610 518.5 587.5 c 128,-1,37
 494 565 494 565 460.5 531 c 128,-1,38
 427 497 427 497 406 467 c 1,39,40
 495 460 495 460 548.5 390.5 c 128,-1,41
 602 321 602 321 602 232 c 0,42,43
 602 123 602 123 522.5 54.5 c 128,-1,44
 443 -14 443 -14 326 -14 c 0,45,46
 305 -14 305 -14 276.5 -11 c 128,-1,47
 248 -8 248 -8 207.5 -1 c 128,-1,48
 167 6 167 6 140 24 c 128,-1,49
 113 42 113 42 113 68 c 0,50,51
 113 84 113 84 124 100.5 c 128,-1,52
 135 117 135 117 160 117 c 0,53,54
 177 117 177 117 220.5 102 c 128,-1,55
 264 87 264 87 313 87 c 0,0,1
EndSplineSet
Validated: 1
EndChar

StartChar: four
Encoding: 52 52 22
Width: 723
GlyphClass: 2
Flags: W
HStem: 164 100<219 409 509 595.042>
VStem: 404 110<3.09375 164 264 415.183>
LayerCount: 2
Fore
SplineSet
459 -9 m 128,-1,1
 404 -9 404 -9 404 74 c 0,2,3
 404 91 404 91 406.5 122 c 128,-1,4
 409 153 409 153 409 164 c 1,5,-1
 203 164 l 2,6,7
 188 164 188 164 174 163.5 c 128,-1,8
 160 163 160 163 145.5 168 c 128,-1,9
 131 173 131 173 122 184 c 0,10,11
 108 202 108 202 108 228 c 0,12,13
 108 248 108 248 121.5 285 c 128,-1,14
 135 322 135 322 153 359.5 c 128,-1,15
 171 397 171 397 210 478 c 128,-1,16
 249 559 249 559 280 626 c 0,17,18
 284 636 284 636 296.5 668 c 128,-1,19
 309 700 309 700 317.5 717 c 128,-1,20
 326 734 326 734 342.5 750.5 c 128,-1,21
 359 767 359 767 378 767 c 0,22,23
 398 767 398 767 413 753.5 c 128,-1,24
 428 740 428 740 428 718 c 0,25,26
 428 690 428 690 405.5 645.5 c 128,-1,27
 383 601 383 601 369 579 c 1,28,-1
 308 451 l 2,29,30
 299 432 299 432 281.5 392 c 128,-1,31
 264 352 264 352 249.5 321 c 128,-1,32
 235 290 235 290 219 264 c 1,33,-1
 409 264 l 1,34,35
 409 275 409 275 407 303.5 c 128,-1,36
 405 332 405 332 405 347 c 0,37,38
 405 428 405 428 459 428 c 128,-1,39
 513 428 513 428 513 344 c 0,40,41
 513 329 513 329 511 301.5 c 128,-1,42
 509 274 509 274 509 264 c 1,43,44
 515 264 515 264 527.5 264.5 c 128,-1,45
 540 265 540 265 547 265 c 0,46,47
 610 265 610 265 610 215 c 0,48,49
 610 195 610 195 595.5 179 c 128,-1,50
 581 163 581 163 545 163 c 0,51,52
 539 163 539 163 526.5 163.5 c 128,-1,53
 514 164 514 164 509 164 c 1,54,55
 509 153 509 153 511.5 123 c 128,-1,56
 514 93 514 93 514 77 c 0,57,0
 514 -9 514 -9 459 -9 c 128,-1,1
EndSplineSet
Validated: 1
EndChar

StartChar: five
Encoding: 53 53 23
Width: 723
GlyphClass: 2
Flags: W
HStem: -17 106<167.538 347.988> 412 100<261.032 388.071> 656 101<270 556.729>
VStem: 164 97<512.101 624> 470 99<184.684 340.64>
LayerCount: 2
Fore
SplineSet
565 707 m 0,0,1
 565 655 565 655 498 655 c 0,2,3
 493 655 493 655 483.5 655.5 c 128,-1,4
 474 656 474 656 470 656 c 2,5,-1
 270 656 l 1,6,-1
 261 512 l 1,7,8
 336 512 336 512 393.5 496 c 128,-1,9
 451 480 451 480 483.5 455.5 c 128,-1,10
 516 431 516 431 536 397 c 128,-1,11
 556 363 556 363 562.5 333 c 128,-1,12
 569 303 569 303 569 270 c 0,13,14
 569 245 569 245 565 219.5 c 128,-1,15
 561 194 561 194 544.5 156.5 c 128,-1,16
 528 119 528 119 501 89.5 c 128,-1,17
 474 60 474 60 422 33 c 128,-1,18
 370 6 370 6 300 -6 c 0,19,20
 234 -17 234 -17 212 -17 c 0,21,22
 139 -17 139 -17 139 36 c 0,23,24
 139 68 139 68 167 81 c 0,25,26
 184 89 184 89 230 89 c 0,27,28
 284 89 284 89 336.5 105.5 c 128,-1,29
 389 122 389 122 429.5 162 c 128,-1,30
 470 202 470 202 470 258 c 0,31,32
 470 333 470 333 419 371.5 c 128,-1,33
 368 410 368 410 289 412 c 0,34,35
 281 412 281 412 259 410 c 128,-1,36
 237 408 237 408 225 408 c 0,37,38
 190 408 190 408 173 423 c 128,-1,39
 156 438 156 438 156 476 c 0,40,41
 156 492 156 492 160 522 c 128,-1,42
 164 552 164 552 164 562 c 0,43,44
 167 693 167 693 177.5 725.5 c 128,-1,45
 188 758 188 758 239 758 c 0,46,47
 245 758 245 758 256.5 757.5 c 128,-1,48
 268 757 268 757 273 757 c 2,49,-1
 456 757 l 2,50,51
 462 757 462 757 475 757.5 c 128,-1,52
 488 758 488 758 495 758 c 0,53,54
 565 758 565 758 565 707 c 0,0,1
EndSplineSet
Validated: 1
EndChar

StartChar: six
Encoding: 54 54 24
Width: 723
GlyphClass: 2
Flags: W
HStem: -14 99<275.493 445.995> 387 100<301.058 452.267>
VStem: 111 99<148.699 323.208> 514 100<150.936 324.046>
LayerCount: 2
Fore
SplineSet
436 767 m 0,0,1
 456 767 456 767 470.5 753.5 c 128,-1,2
 485 740 485 740 485 718 c 0,3,4
 485 701 485 701 475 685.5 c 128,-1,5
 465 670 465 670 439.5 645.5 c 128,-1,6
 414 621 414 621 406 612 c 0,7,8
 387 591 387 591 300 481 c 1,9,10
 332 487 332 487 362 487 c 0,11,12
 426 487 426 487 476.5 463.5 c 128,-1,13
 527 440 527 440 556 402 c 128,-1,14
 585 364 585 364 599.5 321 c 128,-1,15
 614 278 614 278 614 233 c 0,16,17
 614 125 614 125 543 55.5 c 128,-1,18
 472 -14 472 -14 362 -14 c 0,19,20
 251 -14 251 -14 181 53.5 c 128,-1,21
 111 121 111 121 111 239 c 0,22,23
 111 416 111 416 275 615 c 0,24,25
 334 688 334 688 381 734 c 1,26,27
 412 767 412 767 436 767 c 0,0,1
514 240 m 0,28,29
 514 295 514 295 488.5 330 c 128,-1,30
 463 365 463 365 431.5 376 c 128,-1,31
 400 387 400 387 363 387 c 0,32,33
 295 387 295 387 258 355 c 0,34,35
 210 313 210 313 210 232 c 0,36,37
 210 164 210 164 251.5 124.5 c 128,-1,38
 293 85 293 85 360 85 c 0,39,40
 429 85 429 85 471.5 125 c 128,-1,41
 514 165 514 165 514 240 c 0,28,29
EndSplineSet
Validated: 1
EndChar

StartChar: seven
Encoding: 55 55 25
Width: 723
GlyphClass: 2
Flags: W
HStem: 657 100<121.075 500>
VStem: 234 102<5.44263 225.25>
LayerCount: 2
Fore
SplineSet
286 -9 m 0,0,1
 266 -9 266 -9 250 5 c 128,-1,2
 234 19 234 19 234 54 c 0,3,4
 234 257 234 257 324 406 c 0,5,6
 343 438 343 438 410.5 520.5 c 128,-1,7
 478 603 478 603 500 657 c 1,8,-1
 233 657 l 2,9,10
 226 657 226 657 208 656 c 128,-1,11
 190 655 190 655 180 655 c 0,12,13
 113 655 113 655 113 707 c 0,14,15
 113 760 113 760 188 760 c 0,16,17
 200 760 200 760 221 758.5 c 128,-1,18
 242 757 242 757 250 757 c 2,19,-1
 495 757 l 2,20,21
 501 757 501 757 515.5 757.5 c 128,-1,22
 530 758 530 758 538 758 c 0,23,24
 614 758 614 758 614 694 c 0,25,26
 614 646 614 646 579.5 586 c 128,-1,27
 545 526 545 526 488 456.5 c 128,-1,28
 431 387 431 387 420 370 c 0,29,30
 336 239 336 239 336 53 c 0,31,32
 336 -9 336 -9 286 -9 c 0,0,1
EndSplineSet
Validated: 1
EndChar

StartChar: eight
Encoding: 56 56 26
Width: 723
GlyphClass: 2
Flags: W
HStem: -15 100<269.901 455.789> 367 115<314.962 405.561> 671 99<278.682 446.498>
VStem: 111 102<134.459 265.493> 147 99<539.816 641.557> 479 99<537.988 641.58> 512 100<135.186 264.402>
LayerCount: 2
Fore
SplineSet
364 -15 m 0,0,1
 251 -15 251 -15 181 49 c 128,-1,2
 111 113 111 113 111 198 c 0,3,4
 111 254 111 254 142 309 c 0,5,6
 176 369 176 369 256 423 c 1,7,8
 212 443 212 443 179.5 490.5 c 128,-1,9
 147 538 147 538 147 599 c 0,10,11
 147 679 147 679 212.5 724.5 c 128,-1,12
 278 770 278 770 367 770 c 0,13,14
 453 770 453 770 515 726 c 128,-1,15
 577 682 577 682 578 601 c 0,16,17
 578 563 578 563 566.5 531 c 128,-1,18
 555 499 555 499 538.5 481 c 128,-1,19
 522 463 522 463 503 446 c 128,-1,20
 484 429 484 429 470 420 c 1,21,22
 521 391 521 391 566.5 331 c 128,-1,23
 612 271 612 271 612 198 c 0,24,25
 612 115 612 115 545 50 c 128,-1,26
 478 -15 478 -15 364 -15 c 0,0,1
366 671 m 0,27,28
 322 671 322 671 284 652.5 c 128,-1,29
 246 634 246 634 246 593 c 0,30,31
 246 551 246 551 294 516.5 c 128,-1,32
 342 482 342 482 362 482 c 0,33,34
 395 482 395 482 437 517.5 c 128,-1,35
 479 553 479 553 479 594 c 0,36,37
 479 628 479 628 447 649.5 c 128,-1,38
 415 671 415 671 366 671 c 0,27,28
365 85 m 0,39,40
 431 85 431 85 471.5 116.5 c 128,-1,41
 512 148 512 148 512 197 c 0,42,43
 512 236 512 236 485.5 272 c 128,-1,44
 459 308 459 308 420 335 c 0,45,46
 404 347 404 347 388 357 c 128,-1,47
 372 367 372 367 361 367 c 0,48,49
 345 367 345 367 318 347.5 c 128,-1,50
 291 328 291 328 281 318 c 1,51,52
 250 293 250 293 231.5 260 c 128,-1,53
 213 227 213 227 213 195 c 0,54,55
 213 146 213 146 255.5 115.5 c 128,-1,56
 298 85 298 85 365 85 c 0,39,40
EndSplineSet
Validated: 1
EndChar

StartChar: nine
Encoding: 57 57 27
Width: 723
GlyphClass: 2
Flags: W
HStem: 275 98<270.835 421.662> 671 99<286.446 444.234>
VStem: 112 98<433.993 590.011> 515 100<430.75 601.417>
LayerCount: 2
Fore
SplineSet
287 -9 m 0,0,1
 266 -9 266 -9 252 4.5 c 128,-1,2
 238 18 238 18 238 40 c 0,3,4
 238 57 238 57 248 72 c 0,5,6
 250 75 250 75 282 108 c 0,7,8
 290 116 290 116 314 136 c 0,9,10
 383 193 383 193 423 276 c 1,11,12
 414 276 414 276 395 275.5 c 128,-1,13
 376 275 376 275 366 275 c 0,14,15
 273 275 273 275 217 311 c 0,16,17
 165 344 165 344 138.5 398 c 128,-1,18
 112 452 112 452 112 514 c 0,19,20
 112 621 112 621 183 695.5 c 128,-1,21
 254 770 254 770 365 770 c 0,22,23
 469 770 469 770 542 701 c 128,-1,24
 615 632 615 632 615 522 c 0,25,26
 615 452 615 452 585 372 c 128,-1,27
 555 292 555 292 509 224 c 128,-1,28
 463 156 463 156 422 106 c 128,-1,29
 381 56 381 56 345 22 c 1,30,31
 310 -9 310 -9 287 -9 c 0,0,1
364 671 m 0,32,33
 296 671 296 671 253 621 c 128,-1,34
 210 571 210 571 210 510 c 0,35,36
 210 488 210 488 217 466 c 128,-1,37
 224 444 224 444 239.5 422 c 128,-1,38
 255 400 255 400 286.5 386.5 c 128,-1,39
 318 373 318 373 361 373 c 0,40,41
 387 373 387 373 411 376 c 0,42,43
 461 382 461 382 488 422 c 128,-1,44
 515 462 515 462 515 515 c 0,45,46
 515 589 515 589 470.5 630 c 128,-1,47
 426 671 426 671 364 671 c 0,32,33
423 276 m 1,48,-1
EndSplineSet
Validated: 1
EndChar

StartChar: colon
Encoding: 58 58 28
Width: 723
GlyphClass: 2
Flags: W
HStem: -12 184<273.991 452.554> 350 183<273.991 455.104>
VStem: 257 210<7.59814 153.949 369.598 512.918>
LayerCount: 2
Fore
SplineSet
257 461 m 4,0,1
 257 495 257 495 269.5 513.5 c 132,-1,2
 282 532 282 532 315 532 c 4,3,4
 319 532 319 532 327 531.5 c 132,-1,5
 335 531 335 531 339 531 c 4,6,7
 346 531 346 531 364.5 532 c 132,-1,8
 383 533 383 533 394 533 c 4,9,10
 419 533 419 533 435 527.5 c 132,-1,11
 451 522 451 522 457 510.5 c 132,-1,12
 463 499 463 499 465 490 c 132,-1,13
 467 481 467 481 467 466 c 4,14,15
 467 453 467 453 467.5 443 c 132,-1,16
 468 433 468 433 468 425 c 4,17,18
 468 388 468 388 455.5 369 c 132,-1,19
 443 350 443 350 410 350 c 4,20,21
 406 350 406 350 397.5 350.5 c 132,-1,22
 389 351 389 351 386 351 c 4,23,24
 379 351 379 351 360.5 350 c 132,-1,25
 342 349 342 349 331 349 c 4,26,27
 289 349 289 349 273.5 364 c 132,-1,28
 258 379 258 379 258 409 c 4,29,30
 258 436 258 436 257.5 445 c 132,-1,31
 257 454 257 454 257 461 c 4,0,1
257 100 m 4,32,33
 257 140 257 140 272 155 c 132,-1,34
 287 170 287 170 322 170 c 4,35,36
 354 170 354 170 368 171 c 132,-1,37
 382 172 382 172 392 172 c 4,38,39
 439 172 439 172 453 154.5 c 132,-1,40
 467 137 467 137 467 104 c 4,41,42
 467 91 467 91 467.5 81 c 132,-1,43
 468 71 468 71 468 63 c 4,44,45
 468 26 468 26 455.5 7 c 132,-1,46
 443 -12 443 -12 410 -12 c 4,47,48
 406 -12 406 -12 397.5 -11.5 c 132,-1,49
 389 -11 389 -11 386 -11 c 4,50,51
 379 -11 379 -11 360.5 -12 c 132,-1,52
 342 -13 342 -13 331 -13 c 4,53,54
 289 -13 289 -13 273.5 2 c 132,-1,55
 258 17 258 17 258 47 c 4,56,57
 258 74 258 74 257.5 83.5 c 132,-1,58
 257 93 257 93 257 100 c 4,32,33
EndSplineSet
Validated: 1
EndChar

StartChar: semicolon
Encoding: 59 59 29
Width: 723
GlyphClass: 2
Flags: W
HStem: 351 182<291.96 471.554>
VStem: 276 210<369.082 512.918>
LayerCount: 2
Fore
SplineSet
276 459 m 0,0,1
 276 495 276 495 288.5 513.5 c 128,-1,2
 301 532 301 532 334 532 c 1,3,-1
 358 531 l 2,4,5
 365 531 365 531 383 532 c 128,-1,6
 401 533 401 533 411 533 c 0,7,8
 458 533 458 533 472 516.5 c 128,-1,9
 486 500 486 500 486 467 c 0,10,11
 486 452 486 452 486.5 441 c 128,-1,12
 487 430 487 430 487 423 c 0,13,14
 487 387 487 387 474.5 368.5 c 128,-1,15
 462 350 462 350 429 350 c 0,16,17
 425 350 425 350 417 350.5 c 128,-1,18
 409 351 409 351 405 351 c 0,19,20
 398 351 398 351 379 349.5 c 128,-1,21
 360 348 360 348 349 348 c 0,22,23
 306 348 306 348 291.5 364.5 c 128,-1,24
 277 381 277 381 277 413 c 0,25,26
 277 437 277 437 276.5 445 c 128,-1,27
 276 453 276 453 276 459 c 0,0,1
425 173 m 0,28,29
 488 173 488 173 488 122 c 0,30,31
 488 102 488 102 468 71.5 c 128,-1,32
 448 41 448 41 409.5 -4 c 128,-1,33
 371 -49 371 -49 362 -61 c 0,34,35
 361 -62 361 -62 337 -99.5 c 128,-1,36
 313 -137 313 -137 295 -154.5 c 128,-1,37
 277 -172 277 -172 258 -177 c 0,38,39
 244 -180 244 -180 229 -180 c 0,40,41
 198 -180 198 -180 176.5 -168 c 128,-1,42
 155 -156 155 -156 155 -130 c 0,43,44
 155 -120 155 -120 158.5 -108 c 128,-1,45
 162 -96 162 -96 166.5 -88 c 128,-1,46
 171 -80 171 -80 178 -67 c 128,-1,47
 185 -54 185 -54 188 -47 c 2,48,-1
 252 83 l 1,49,50
 266 114 266 114 275 134 c 128,-1,51
 284 154 284 154 299 163.5 c 128,-1,52
 314 173 314 173 341 173 c 0,53,54
 348 173 348 173 361 172.5 c 128,-1,55
 374 172 374 172 380 172 c 0,56,57
 388 172 388 172 403 172.5 c 128,-1,58
 418 173 418 173 425 173 c 0,28,29
EndSplineSet
Validated: 1
EndChar

StartChar: less
Encoding: 60 60 30
Width: 723
GlyphClass: 2
Flags: W
LayerCount: 2
Fore
SplineSet
564 693 m 0,0,1
 581 693 581 693 596 679.5 c 128,-1,2
 611 666 611 666 611 649 c 0,3,4
 611 616 611 616 567 587 c 2,5,-1
 359 449 l 2,6,7
 348 442 348 442 326.5 426 c 128,-1,8
 305 410 305 410 287 398.5 c 128,-1,9
 269 387 269 387 253 381 c 1,10,11
 289 350 289 350 335.5 319 c 128,-1,12
 382 288 382 288 440.5 252.5 c 128,-1,13
 499 217 499 217 528 197 c 1,14,15
 550 187 550 187 580.5 163.5 c 128,-1,16
 611 140 611 140 611 114 c 0,17,18
 611 94 611 94 597 80 c 128,-1,19
 583 66 583 66 562 66 c 0,20,21
 537 66 537 66 450 123.5 c 128,-1,22
 363 181 363 181 233 271 c 0,23,24
 226 276 226 276 200 290.5 c 128,-1,25
 174 305 174 305 158 315.5 c 128,-1,26
 142 326 142 326 127 344 c 128,-1,27
 112 362 112 362 112 379 c 0,28,29
 112 390 112 390 117 399.5 c 128,-1,30
 122 409 122 409 132.5 418 c 128,-1,31
 143 427 143 427 150.5 432.5 c 128,-1,32
 158 438 158 438 173 447 c 128,-1,33
 188 456 188 456 192 459 c 2,34,-1
 478 650 l 1,35,36
 492 661 492 661 518 677 c 128,-1,37
 544 693 544 693 564 693 c 0,0,1
EndSplineSet
Validated: 1
EndChar

StartChar: equal
Encoding: 61 61 31
Width: 723
GlyphClass: 2
Flags: W
HStem: 211 105<122.525 600.312> 439 105<135.694 600.172> 439 95.5<122.475 202.537>
LayerCount: 2
Fore
SplineSet
113 492 m 0,0,1
 113 523 113 523 135 534.5 c 128,-1,2
 157 546 157 546 204 546 c 0,3,4
 221 546 221 546 255.5 544 c 128,-1,5
 290 542 290 542 306 542 c 2,6,-1
 481 542 l 2,7,8
 490 542 490 542 508.5 543 c 128,-1,9
 527 544 527 544 536 544 c 0,10,11
 554 544 554 544 570 541 c 0,12,13
 589 537 589 537 600 523 c 128,-1,14
 611 509 611 509 611 491 c 0,15,16
 611 439 611 439 534 439 c 0,17,18
 522 439 522 439 500 440.5 c 128,-1,19
 478 442 478 442 470 442 c 2,20,-1
 247 442 l 2,21,22
 238 442 238 442 217 440.5 c 128,-1,23
 196 439 196 439 185 439 c 0,24,25
 113 439 113 439 113 492 c 0,0,1
113 264 m 0,26,27
 113 287 113 287 128 300 c 128,-1,28
 143 313 143 313 160 315.5 c 128,-1,29
 177 318 177 318 204 318 c 0,30,31
 221 318 221 318 255.5 316 c 128,-1,32
 290 314 290 314 306 314 c 2,33,-1
 481 314 l 2,34,35
 490 314 490 314 508.5 315 c 128,-1,36
 527 316 527 316 536 316 c 0,37,38
 554 316 554 316 570 313 c 0,39,40
 589 309 589 309 600 295 c 128,-1,41
 611 281 611 281 611 263 c 0,42,43
 611 211 611 211 535 211 c 0,44,45
 523 211 523 211 500.5 212.5 c 128,-1,46
 478 214 478 214 470 214 c 2,47,-1
 247 214 l 2,48,49
 238 214 238 214 217 212.5 c 128,-1,50
 196 211 196 211 185 211 c 0,51,52
 113 211 113 211 113 264 c 0,26,27
EndSplineSet
Validated: 1
EndChar

StartChar: greater
Encoding: 62 62 32
Width: 723
GlyphClass: 2
Flags: W
LayerCount: 2
Fore
SplineSet
470 381 m 1,0,1
 446 392 446 392 421 408 c 128,-1,2
 396 424 396 424 362.5 448 c 128,-1,3
 329 472 329 472 317 480 c 2,4,-1
 217 547 l 2,5,6
 208 553 208 553 183 567.5 c 128,-1,7
 158 582 158 582 146.5 590 c 128,-1,8
 135 598 135 598 124 612.5 c 128,-1,9
 113 627 113 627 113 643 c 0,10,11
 113 663 113 663 127 678.5 c 128,-1,12
 141 694 141 694 161 694 c 0,13,14
 178 694 178 694 198.5 683 c 128,-1,15
 219 672 219 672 247.5 650.5 c 128,-1,16
 276 629 276 629 281 626 c 2,17,-1
 517 469 l 2,18,19
 522 465 522 465 543 453 c 128,-1,20
 564 441 564 441 576 432.5 c 128,-1,21
 588 424 588 424 599.5 409 c 128,-1,22
 611 394 611 394 611 378 c 0,23,24
 611 363 611 363 600 349 c 128,-1,25
 589 335 589 335 577 327 c 128,-1,26
 565 319 565 319 545.5 307 c 128,-1,27
 526 295 526 295 520 291 c 2,28,-1
 281 132 l 2,29,30
 276 129 276 129 249 108.5 c 128,-1,31
 222 88 222 88 200 76 c 128,-1,32
 178 64 178 64 161 64 c 0,33,34
 141 64 141 64 127 79 c 128,-1,35
 113 94 113 94 113 114 c 0,36,37
 113 130 113 130 124 145 c 128,-1,38
 135 160 135 160 147.5 168 c 128,-1,39
 160 176 160 176 180.5 188 c 128,-1,40
 201 200 201 200 208 205 c 2,41,-1
 306 270 l 2,42,43
 322 281 322 281 358 303 c 128,-1,44
 394 325 394 325 421 343.5 c 128,-1,45
 448 362 448 362 470 381 c 1,0,1
EndSplineSet
Validated: 1
EndChar

StartChar: question
Encoding: 63 63 33
Width: 723
GlyphClass: 2
Flags: W
HStem: -69 149<303.568 420.081> 615 100<272.693 418.824>
VStem: 140 100<484.958 583.228> 285 152<-50.9486 64.3994> 312 102<252.102 324.998> 451 102<475.398 584.093>
LayerCount: 2
Fore
SplineSet
195 470 m 128,-1,1
 174 470 174 470 157 484.5 c 128,-1,2
 140 499 140 499 140 533 c 0,3,4
 140 548 140 548 143 565 c 128,-1,5
 146 582 146 582 157.5 606.5 c 128,-1,6
 169 631 169 631 187.5 651.5 c 128,-1,7
 206 672 206 672 241 689.5 c 128,-1,8
 276 707 276 707 322 713 c 0,9,10
 342 715 342 715 351 715 c 0,11,12
 429 715 429 715 491 664.5 c 128,-1,13
 553 614 553 614 553 539 c 0,14,15
 553 434 553 434 433 325 c 0,16,17
 422 315 422 315 414 292.5 c 128,-1,18
 406 270 406 270 395 255.5 c 128,-1,19
 384 241 384 241 361 241 c 0,20,21
 312 241 312 241 312 295 c 128,-1,22
 312 349 312 349 352 389 c 0,23,24
 365 401 365 401 382 419 c 128,-1,25
 399 437 399 437 414.5 455 c 128,-1,26
 430 473 430 473 440.5 494.5 c 128,-1,27
 451 516 451 516 451 535 c 0,28,29
 451 568 451 568 422 591.5 c 128,-1,30
 393 615 393 615 348 615 c 0,31,32
 278 615 278 615 250 567 c 0,33,34
 245 558 245 558 240 531 c 128,-1,35
 235 504 235 504 225.5 487 c 128,-1,0
 216 470 216 470 195 470 c 128,-1,1
285 2 m 0,36,37
 285 29 285 29 293 46.5 c 128,-1,38
 301 64 301 64 315 70.5 c 128,-1,39
 329 77 329 77 338 78.5 c 128,-1,40
 347 80 347 80 360 80 c 0,41,42
 437 80 437 80 437 9 c 0,43,44
 437 -16 437 -16 426.5 -37.5 c 128,-1,45
 416 -59 416 -59 397 -65 c 0,46,47
 384 -69 384 -69 361 -69 c 0,48,49
 321 -69 321 -69 303 -51.5 c 128,-1,50
 285 -34 285 -34 285 2 c 0,36,37
EndSplineSet
Validated: 1
EndChar

StartChar: at
Encoding: 64 64 34
Width: 723
GlyphClass: 2
Flags: W
HStem: -19 100<225.029 316.037 439.494 493.938> 320 100<224.662 306.724> 620 100<260.24 433.454>
VStem: 110 99<95.6733 310.613> 117 101<506.44 581.328> 334 100<98.0898 293.752> 512 100<107.535 526.483>
LayerCount: 2
Fore
SplineSet
262 -19 m 0,0,1
 235 -19 235 -19 212 -11.5 c 128,-1,2
 189 -4 189 -4 164 15.5 c 128,-1,3
 139 35 139 35 124.5 77 c 128,-1,4
 110 119 110 119 110 180 c 0,5,6
 110 312 110 312 144 365 c 0,7,8
 179 420 179 420 254 420 c 0,9,10
 304 420 304 420 342 393 c 1,11,12
 353 417 353 417 382 417 c 0,13,14
 398 417 398 417 412.5 407.5 c 128,-1,15
 427 398 427 398 431 382 c 0,16,17
 435 367 435 367 435 346 c 0,18,19
 435 338 435 338 434.5 324 c 128,-1,20
 434 310 434 310 434 304 c 2,21,-1
 434 148 l 2,22,23
 434 82 434 82 461 82 c 0,24,25
 481 82 481 82 496.5 106 c 128,-1,26
 512 130 512 130 512 189 c 0,27,28
 512 258 512 258 512.5 281.5 c 128,-1,29
 513 305 513 305 513 324 c 0,30,31
 513 380 513 380 510.5 417 c 128,-1,32
 508 454 508 454 499 496 c 128,-1,33
 490 538 490 538 473 562.5 c 128,-1,34
 456 587 456 587 424.5 603.5 c 128,-1,35
 393 620 393 620 349 620 c 0,36,37
 271 620 271 620 234 576 c 0,38,39
 225 566 225 566 218 543 c 128,-1,40
 211 520 211 520 199.5 506 c 128,-1,41
 188 492 188 492 164 492 c 0,42,43
 117 492 117 492 117 547 c 0,44,45
 117 609 117 609 181.5 664.5 c 128,-1,46
 246 720 246 720 349 720 c 0,47,48
 453 720 453 720 520 662 c 0,49,50
 577 612 577 612 595 526.5 c 128,-1,51
 613 441 613 441 613 316 c 0,52,53
 613 298 613 298 612.5 260 c 128,-1,54
 612 222 612 222 612 204 c 0,55,56
 612 141 612 141 600 94 c 128,-1,57
 588 47 588 47 550 16 c 0,58,59
 510 -18 510 -18 458 -18 c 0,60,61
 431 -18 431 -18 413.5 -10 c 128,-1,62
 396 -2 396 -2 387 6.5 c 128,-1,63
 378 15 378 15 370 15 c 128,-1,64
 362 15 362 15 350 6.5 c 128,-1,65
 338 -2 338 -2 316 -10.5 c 128,-1,66
 294 -19 294 -19 262 -19 c 0,0,1
335 240 m 0,67,68
 335 276 335 276 307 298 c 128,-1,69
 279 320 279 320 255 320 c 0,70,71
 237 320 237 320 228 310 c 128,-1,72
 219 300 219 300 218 285 c 128,-1,73
 217 270 217 270 214 254 c 1,74,75
 209 209 209 209 209 181 c 0,76,77
 209 81 209 81 265 81 c 0,78,79
 306 81 306 81 320 109 c 128,-1,80
 334 137 334 137 334 184 c 0,81,82
 334 214 334 214 334.5 226.5 c 128,-1,83
 335 239 335 239 335 240 c 0,67,68
EndSplineSet
Validated: 1
EndChar

StartChar: A
Encoding: 65 65 35
Width: 723
GlyphClass: 2
Flags: W
HStem: 198 100<286.249 436> 689 20G<353.5 390>
LayerCount: 2
Fore
SplineSet
604 39 m 4,0,1
 604 17 604 17 589 4 c 132,-1,2
 574 -9 574 -9 555 -9 c 4,3,4
 532 -9 532 -9 518.5 6.5 c 132,-1,5
 505 22 505 22 501.5 43 c 132,-1,6
 498 64 498 64 492 84 c 4,7,8
 490 92 490 92 481.5 118 c 132,-1,9
 473 144 473 144 469 162.5 c 132,-1,10
 465 181 465 181 464 198 c 5,11,-1
 322 198 l 6,12,13
 318 198 318 198 307 199 c 132,-1,14
 296 200 296 200 289 200 c 4,15,16
 271 200 271 200 263 194.5 c 132,-1,17
 255 189 255 189 253 177 c 132,-1,18
 251 165 251 165 247 148 c 4,19,20
 244 136 244 136 238.5 107.5 c 132,-1,21
 233 79 233 79 229 63 c 132,-1,22
 225 47 225 47 217 27.5 c 132,-1,23
 209 8 209 8 196.5 -1 c 132,-1,24
 184 -10 184 -10 166 -10 c 132,-1,25
 148 -10 148 -10 133 3 c 132,-1,26
 118 16 118 16 118 46 c 4,27,28
 118 63 118 63 123 84 c 132,-1,29
 128 105 128 105 136 128 c 132,-1,30
 144 151 144 151 146 159 c 6,31,-1
 254 576 l 6,32,33
 256 582 256 582 262 611 c 132,-1,34
 268 640 268 640 272.5 655.5 c 132,-1,35
 277 671 277 671 290 687.5 c 132,-1,36
 303 704 303 704 322 706 c 5,37,38
 340 709 340 709 367 709 c 4,39,40
 413 709 413 709 430 692 c 4,41,42
 443 680 443 680 451 656 c 132,-1,43
 459 632 459 632 465.5 597 c 132,-1,44
 472 562 472 562 474 554 c 6,45,-1
 564 206 l 5,46,47
 604 46 604 46 604 39 c 4,0,1
364 584 m 5,48,-1
 338 501 l 5,49,-1
 286 298 l 5,50,-1
 436 298 l 5,51,-1
 364 584 l 5,48,-1
EndSplineSet
Validated: 1
EndChar

StartChar: B
Encoding: 66 66 36
Width: 723
GlyphClass: 2
Flags: W
HStem: -2 98<211 455.363> 319 95<211 458.211> 601 100<211 462.099>
VStem: 111 100<100 314 414 601> 497 99<445.255 567.585> 512 100<145.262 273.584>
LayerCount: 2
Fore
SplineSet
111 609 m 1,0,1
 112 624 112 624 111 637.5 c 128,-1,2
 110 651 110 651 114 663.5 c 128,-1,3
 118 676 118 676 125 685 c 128,-1,4
 132 694 132 694 149 699.5 c 128,-1,5
 166 705 166 705 192 705 c 0,6,7
 207 705 207 705 233.5 703 c 128,-1,8
 260 701 260 701 270 701 c 0,9,10
 281 701 281 701 304.5 701.5 c 128,-1,11
 328 702 328 702 340 702 c 0,12,13
 448 702 448 702 506 670 c 0,14,15
 596 619 596 619 596 511 c 0,16,17
 596 425 596 425 537 364 c 1,18,19
 564 351 564 351 588 305 c 128,-1,20
 612 259 612 259 612 209 c 0,21,22
 612 135 612 135 562 78 c 128,-1,23
 512 21 512 21 434 7 c 0,24,25
 386 -2 386 -2 321 -2 c 0,26,27
 303 -2 303 -2 265 -1 c 128,-1,28
 227 0 227 0 208 0 c 0,29,30
 204 0 204 0 194 -0.5 c 128,-1,31
 184 -1 184 -1 179 -1 c 0,32,33
 142 -1 142 -1 125.5 15 c 128,-1,34
 109 31 109 31 109 72 c 0,35,36
 109 82 109 82 110 99 c 128,-1,37
 111 116 111 116 111 122 c 2,38,-1
 111 609 l 1,0,1
211 414 m 1,39,-1
 359 414 l 2,40,41
 432 414 432 414 461 434 c 1,42,43
 497 457 497 457 497 505 c 0,44,45
 497 561 497 561 453 585 c 0,46,47
 423 601 423 601 353 601 c 2,48,-1
 211 601 l 1,49,-1
 211 414 l 1,39,-1
512 210 m 0,50,51
 512 319 512 319 342 319 c 0,52,53
 318 319 318 319 273.5 316.5 c 128,-1,54
 229 314 229 314 211 314 c 1,55,-1
 211 100 l 1,56,57
 228 100 228 100 269.5 98 c 128,-1,58
 311 96 311 96 333 96 c 0,59,60
 512 96 512 96 512 210 c 0,50,51
EndSplineSet
Validated: 1
EndChar

StartChar: C
Encoding: 67 67 37
Width: 723
GlyphClass: 2
Flags: W
HStem: -15 101<328.932 450.291> 615 100<331.051 449.391>
VStem: 159 101<190.929 511.787> 464 100<100.067 161.076 540.439 586.871>
LayerCount: 2
Fore
SplineSet
159 361 m 4,0,1
 159 442 159 442 174.5 505.5 c 132,-1,2
 190 569 190 569 214.5 607.5 c 132,-1,3
 239 646 239 646 271 671 c 132,-1,4
 303 696 303 696 333 705.5 c 132,-1,5
 363 715 363 715 393 715 c 4,6,7
 468 715 468 715 516.5 668 c 132,-1,8
 565 621 565 621 565 576 c 4,9,10
 565 554 565 554 550 540 c 132,-1,11
 535 526 535 526 514 526 c 4,12,13
 495 526 495 526 484 536 c 132,-1,14
 473 546 473 546 465.5 564.5 c 132,-1,15
 458 583 458 583 455 587 c 4,16,17
 433 615 433 615 393 615 c 4,18,19
 355 615 355 615 327.5 590.5 c 132,-1,20
 300 566 300 566 286 525 c 132,-1,21
 272 484 272 484 266 442.5 c 132,-1,22
 260 401 260 401 260 357 c 4,23,24
 260 274 260 274 279.5 197.5 c 132,-1,25
 299 121 299 121 345 97 c 4,26,27
 367 86 367 86 395 86 c 4,28,29
 426 86 426 86 443 100 c 132,-1,30
 460 114 460 114 464 130.5 c 132,-1,31
 468 147 468 147 480 161 c 132,-1,32
 492 175 492 175 515 175 c 4,33,34
 535 175 535 175 549.5 161.5 c 132,-1,35
 564 148 564 148 564 125 c 4,36,37
 564 78 564 78 519 31.5 c 132,-1,38
 474 -15 474 -15 395 -15 c 4,39,40
 330 -15 330 -15 276.5 23.5 c 132,-1,41
 223 62 223 62 198 125 c 5,42,43
 159 218 159 218 159 361 c 4,0,1
EndSplineSet
Validated: 1
EndChar

StartChar: D
Encoding: 68 68 38
Width: 723
GlyphClass: 2
Flags: W
HStem: 598 107<264 341.856>
VStem: 161 103<100 596.021> 486 99<224.047 436.971>
LayerCount: 2
Fore
SplineSet
244 -4 m 0,0,1
 196 -4 196 -4 178.5 15.5 c 128,-1,2
 161 35 161 35 161 78 c 0,3,4
 161 90 161 90 162.5 111 c 128,-1,5
 164 132 164 132 164 139 c 2,6,-1
 164 476 l 2,7,8
 164 495 164 495 162.5 534.5 c 128,-1,9
 161 574 161 574 161 594 c 0,10,11
 161 659 161 659 175 682 c 128,-1,12
 189 705 189 705 246 705 c 0,13,14
 299 705 299 705 357.5 678.5 c 128,-1,15
 416 652 416 652 467 606 c 128,-1,16
 518 560 518 560 551.5 486 c 128,-1,17
 585 412 585 412 585 327 c 0,18,19
 585 207 585 207 516.5 119 c 128,-1,20
 448 31 448 31 336 8 c 1,21,22
 270 -4 270 -4 244 -4 c 0,0,1
264 100 m 1,23,24
 342 104 342 104 389 136 c 0,25,26
 486 203 486 203 486 327 c 0,27,28
 486 432 486 432 417 513.5 c 128,-1,29
 348 595 348 595 264 598 c 1,30,-1
 264 100 l 1,23,24
EndSplineSet
Validated: 1
EndChar

StartChar: E
Encoding: 69 69 39
Width: 723
GlyphClass: 2
Flags: W
HStem: 0 100<258 589.742> 314 100<258 542.085> 599 102<258 588.9>
VStem: 158 100<100 314 414 601>
LayerCount: 2
Fore
SplineSet
551 363 m 4,0,1
 551 341 551 341 537.5 329.5 c 132,-1,2
 524 318 524 318 510.5 316 c 132,-1,3
 497 314 497 314 475 314 c 6,4,-1
 258 314 l 5,5,-1
 258 100 l 5,6,7
 290 100 290 100 356 102 c 132,-1,8
 422 104 422 104 455 104 c 4,9,10
 510 104 510 104 553 100 c 4,11,12
 572 98 572 98 585.5 83.5 c 132,-1,13
 599 69 599 69 599 50 c 4,14,15
 599 46 599 46 597 36 c 5,16,17
 593 24 593 24 586.5 16.5 c 132,-1,18
 580 9 580 9 571.5 6 c 132,-1,19
 563 3 563 3 552.5 1.5 c 132,-1,20
 542 0 542 0 532 0 c 132,-1,21
 522 0 522 0 511 0 c 6,22,-1
 264 0 l 6,23,24
 258 0 258 0 245.5 -0.5 c 132,-1,25
 233 -1 233 -1 226 -1 c 4,26,27
 200 -1 200 -1 185 4.5 c 132,-1,28
 170 10 170 10 164.5 25 c 132,-1,29
 159 40 159 40 158.5 46.5 c 132,-1,30
 158 53 158 53 158 75 c 6,31,-1
 158 512 l 6,32,33
 158 526 158 526 156 559 c 132,-1,34
 154 592 154 592 154 610 c 4,35,36
 154 639 154 639 158.5 657.5 c 132,-1,37
 163 676 163 676 171.5 685 c 132,-1,38
 180 694 180 694 192 697.5 c 132,-1,39
 204 701 204 701 219.5 701 c 132,-1,40
 235 701 235 701 253 701 c 6,41,-1
 508 701 l 5,42,43
 521 702 521 702 535.5 701 c 132,-1,44
 550 700 550 700 562 698 c 132,-1,45
 574 696 574 696 583.5 687 c 132,-1,46
 593 678 593 678 597 662 c 4,47,48
 599 654 599 654 599 649 c 4,49,50
 599 630 599 630 584.5 616 c 132,-1,51
 570 602 570 602 550 601 c 4,52,53
 518 599 518 599 453 599 c 4,54,55
 420 599 420 599 355 600 c 132,-1,56
 290 601 290 601 258 601 c 5,57,-1
 258 414 l 5,58,59
 285 414 285 414 340.5 416 c 132,-1,60
 396 418 396 418 424 418 c 4,61,62
 470 418 470 418 506 414 c 4,63,64
 525 412 525 412 538 397.5 c 132,-1,65
 551 383 551 383 551 363 c 4,0,1
EndSplineSet
Validated: 1
EndChar

StartChar: F
Encoding: 70 70 40
Width: 723
GlyphClass: 2
Flags: W
HStem: 314 101<308 527.218> 596 105<308 568.27>
VStem: 208 100<-0.525391 314 415 601>
LayerCount: 2
Fore
SplineSet
536 366 m 0,0,1
 536 313 536 313 468 313 c 0,2,3
 462 313 462 313 451.5 313.5 c 128,-1,4
 441 314 441 314 436 314 c 2,5,-1
 308 314 l 1,6,7
 308 284 308 284 310.5 221 c 128,-1,8
 313 158 313 158 313 126 c 0,9,10
 313 72 313 72 308 34 c 0,11,12
 305 14 305 14 290.5 2 c 128,-1,13
 276 -10 276 -10 257 -10 c 0,14,15
 204 -10 204 -10 204 78 c 0,16,17
 204 95 204 95 206 123.5 c 128,-1,18
 208 152 208 152 208 161 c 2,19,-1
 208 506 l 2,20,21
 208 520 208 520 206 555 c 128,-1,22
 204 590 204 590 204 608 c 0,23,24
 204 668 204 668 221 684.5 c 128,-1,25
 238 701 238 701 283 701 c 2,26,-1
 492 701 l 2,27,28
 496 701 496 701 505 701.5 c 128,-1,29
 514 702 514 702 519 702 c 0,30,31
 581 702 581 702 581 652 c 0,32,33
 581 634 581 634 570 619.5 c 128,-1,34
 559 605 559 605 542 602 c 0,35,36
 511 596 511 596 461 596 c 0,37,38
 434 596 434 596 383 598.5 c 128,-1,39
 332 601 332 601 308 601 c 1,40,-1
 308 415 l 1,41,-1
 458 415 l 2,42,43
 467 415 467 415 476 415 c 128,-1,44
 485 415 485 415 493.5 414 c 128,-1,45
 502 413 502 413 510 409 c 128,-1,46
 518 405 518 405 524 398 c 0,47,48
 536 383 536 383 536 366 c 0,0,1
EndSplineSet
Validated: 1
EndChar

StartChar: G
Encoding: 71 71 41
Width: 723
GlyphClass: 2
Flags: W
HStem: -18 101<308.688 490.313> 274 104<345.926 495> 611 100<313.216 464.067>
VStem: 119 100<212.825 503.327> 495 100<109.19 278>
LayerCount: 2
Fore
SplineSet
391 611 m 128,-1,1
 362 611 362 611 334.5 600 c 128,-1,2
 307 589 307 589 279.5 564 c 128,-1,3
 252 539 252 539 235.5 489 c 128,-1,4
 219 439 219 439 219 369 c 0,5,6
 219 338 219 338 222.5 299.5 c 128,-1,7
 226 261 226 261 244 202 c 128,-1,8
 262 143 262 143 292 117 c 0,9,10
 330 83 330 83 395 83 c 0,11,12
 424 83 424 83 456 90 c 128,-1,13
 488 97 488 97 493 109 c 0,14,15
 496 115 496 115 496 131 c 0,16,17
 496 136 496 136 495.5 146.5 c 128,-1,18
 495 157 495 157 495 161 c 2,19,-1
 495 278 l 1,20,21
 483 278 483 278 455.5 276 c 128,-1,22
 428 274 428 274 414 274 c 0,23,24
 332 274 332 274 332 328 c 0,25,26
 332 348 332 348 345.5 363.5 c 128,-1,27
 359 379 359 379 391 379 c 0,28,29
 397 379 397 379 407 378.5 c 128,-1,30
 417 378 417 378 422 378 c 0,31,32
 435 378 435 378 464.5 379.5 c 128,-1,33
 494 381 494 381 509 381 c 0,34,35
 561 381 561 381 578 365.5 c 128,-1,36
 595 350 595 350 595 306 c 2,37,-1
 595 114 l 1,38,39
 596 101 596 101 595.5 88 c 128,-1,40
 595 75 595 75 593 64.5 c 128,-1,41
 591 54 591 54 583.5 43.5 c 128,-1,42
 576 33 576 33 564 26 c 0,43,44
 490 -18 490 -18 397 -18 c 0,45,46
 339 -18 339 -18 292.5 1 c 128,-1,47
 246 20 246 20 221 42.5 c 128,-1,48
 196 65 196 65 176.5 101.5 c 128,-1,49
 157 138 157 138 151.5 155 c 128,-1,50
 146 172 146 172 140 197 c 0,51,52
 119 281 119 281 119 367 c 0,53,54
 119 445 119 445 137 506.5 c 128,-1,55
 155 568 155 568 182.5 605.5 c 128,-1,56
 210 643 210 643 247.5 667.5 c 128,-1,57
 285 692 285 692 320 701.5 c 128,-1,58
 355 711 355 711 391 711 c 0,59,60
 465 711 465 711 525 672 c 128,-1,61
 585 633 585 633 585 596 c 0,62,63
 585 574 585 574 569.5 559.5 c 128,-1,64
 554 545 554 545 535 545 c 0,65,66
 520 545 520 545 505 555.5 c 128,-1,67
 490 566 490 566 478.5 578 c 128,-1,68
 467 590 467 590 443.5 600.5 c 128,-1,0
 420 611 420 611 391 611 c 128,-1,1
EndSplineSet
Validated: 1
EndChar

StartChar: H
Encoding: 72 72 42
Width: 723
GlyphClass: 2
Flags: W
HStem: 309 100<241 483> 690 20G<179 217 524 545>
VStem: 141 100<0.00756836 309 409 691.556> 483 100<0.00756836 309 409 691.556>
LayerCount: 2
Fore
SplineSet
533 -8 m 0,0,1
 481 -8 481 -8 481 65 c 0,2,3
 481 75 481 75 482 93.5 c 128,-1,4
 483 112 483 112 483 120 c 2,5,-1
 483 309 l 1,6,-1
 241 309 l 1,7,-1
 241 120 l 2,8,9
 241 111 241 111 242 91.5 c 128,-1,10
 243 72 243 72 243 62 c 0,11,12
 243 43 243 43 240 28 c 0,13,14
 236 11 236 11 222 1.5 c 128,-1,15
 208 -8 208 -8 191 -8 c 0,16,17
 150 -8 150 -8 142 31 c 0,18,19
 138 55 138 55 138 88 c 0,20,21
 138 106 138 106 139.5 141 c 128,-1,22
 141 176 141 176 141 192 c 2,23,-1
 141 637 l 2,24,25
 141 678 141 678 152 692 c 0,26,27
 167 710 167 710 191 710 c 0,28,29
 243 710 243 710 243 637 c 0,30,31
 243 627 243 627 242 608.5 c 128,-1,32
 241 590 241 590 241 581 c 2,33,-1
 241 409 l 1,34,-1
 483 409 l 1,35,-1
 483 581 l 2,36,37
 483 590 483 590 482 608.5 c 128,-1,38
 481 627 481 627 481 637 c 0,39,40
 481 654 481 654 484 671 c 0,41,42
 487 689 487 689 501 699.5 c 128,-1,43
 515 710 515 710 533 710 c 0,44,45
 557 710 557 710 572 692 c 0,46,47
 583 678 583 678 583 637 c 2,48,-1
 583 192 l 2,49,50
 583 176 583 176 584.5 141 c 128,-1,51
 586 106 586 106 586 88 c 0,52,53
 586 55 586 55 582 31 c 0,54,55
 574 -8 574 -8 533 -8 c 0,0,1
EndSplineSet
Validated: 1
EndChar

StartChar: I
Encoding: 73 73 43
Width: 723
GlyphClass: 2
Flags: W
HStem: -2 105<178.984 311 411 542.926> 601 100<204.99 311 411 525.201>
VStem: 311 100<100 601>
LayerCount: 2
Fore
SplineSet
169 50 m 4,0,1
 169 103 169 103 246 103 c 4,2,3
 258 103 258 103 280.5 101.5 c 132,-1,4
 303 100 303 100 311 100 c 5,5,-1
 311 601 l 5,6,7
 304 601 304 601 285.5 599.5 c 132,-1,8
 267 598 267 598 258 598 c 4,9,10
 220 598 220 598 204.5 614 c 132,-1,11
 189 630 189 630 189 651 c 4,12,13
 189 671 189 671 204 686.5 c 132,-1,14
 219 702 219 702 255 702 c 4,15,16
 262 702 262 702 275 701.5 c 132,-1,17
 288 701 288 701 294 701 c 6,18,-1
 436 701 l 6,19,20
 441 701 441 701 451.5 701.5 c 132,-1,21
 462 702 462 702 467 702 c 4,22,23
 533 702 533 702 533 651 c 4,24,25
 533 599 533 599 462 599 c 4,26,27
 453 599 453 599 435.5 600 c 132,-1,28
 418 601 418 601 411 601 c 5,29,-1
 411 100 l 5,30,31
 420 100 420 100 442 101.5 c 132,-1,32
 464 103 464 103 475 103 c 4,33,34
 553 103 553 103 553 51 c 132,-1,35
 553 -1 553 -1 487 -1 c 4,36,37
 480 -1 480 -1 467 -0.5 c 132,-1,38
 454 0 454 0 447 0 c 6,39,-1
 289 0 l 6,40,41
 282 0 282 0 265.5 -1 c 132,-1,42
 249 -2 249 -2 240 -2 c 4,43,44
 169 -2 169 -2 169 50 c 4,0,1
EndSplineSet
Validated: 1
EndChar

StartChar: J
Encoding: 74 74 44
Width: 723
GlyphClass: 2
Flags: W
HStem: -15 101<255.618 366.028> 691 20G<412 446.5>
VStem: 130 98<113.534 223.979> 389 100<109.255 701.332>
LayerCount: 2
Fore
SplineSet
309 86 m 0,0,1
 322 86 322 86 334 89.5 c 128,-1,2
 346 93 346 93 360.5 103 c 128,-1,3
 375 113 375 113 383.5 134.5 c 128,-1,4
 392 156 392 156 392 188 c 0,5,6
 392 201 392 201 390.5 225.5 c 128,-1,7
 389 250 389 250 389 259 c 2,8,-1
 389 567 l 2,9,10
 389 575 389 575 387.5 596.5 c 128,-1,11
 386 618 386 618 386 630 c 0,12,13
 386 711 386 711 438 711 c 0,14,15
 455 711 455 711 469 700 c 128,-1,16
 483 689 483 689 487 673 c 0,17,18
 492 652 492 652 492 616 c 0,19,20
 492 599 492 599 490.5 566.5 c 128,-1,21
 489 534 489 534 489 520 c 2,22,-1
 489 256 l 2,23,24
 489 245 489 245 489.5 221.5 c 128,-1,25
 490 198 490 198 490 186 c 0,26,27
 490 138 490 138 482 111 c 0,28,29
 466 55 466 55 417 20 c 128,-1,30
 368 -15 368 -15 309 -15 c 0,31,32
 234 -15 234 -15 182 39.5 c 128,-1,33
 130 94 130 94 130 169 c 0,34,35
 130 208 130 208 147.5 224.5 c 128,-1,36
 165 241 165 241 183 241 c 0,37,38
 199 241 199 241 211 232 c 0,39,40
 227 220 227 220 228 195.5 c 128,-1,41
 229 171 229 171 234.5 143.5 c 128,-1,42
 240 116 240 116 269 97 c 1,43,44
 288 86 288 86 309 86 c 0,0,1
EndSplineSet
Validated: 1
EndChar

StartChar: K
Encoding: 75 75 45
Width: 723
GlyphClass: 2
Flags: W
HStem: 690 20G<165 185.5 526 547>
VStem: 127 100<-0.463379 312 417 691.556>
LayerCount: 2
Fore
SplineSet
229 62 m 0,0,1
 229 -8 229 -8 177 -8 c 0,2,3
 136 -8 136 -8 128 31 c 0,4,5
 124 55 124 55 124 88 c 0,6,7
 124 106 124 106 125.5 141 c 128,-1,8
 127 176 127 176 127 192 c 2,9,-1
 127 637 l 2,10,11
 127 678 127 678 138 692 c 0,12,13
 153 710 153 710 177 710 c 0,14,15
 194 710 194 710 208 700 c 128,-1,16
 222 690 222 690 226 673 c 0,17,18
 229 660 229 660 229 643 c 0,19,20
 229 634 229 634 228 616 c 128,-1,21
 227 598 227 598 227 590 c 2,22,-1
 227 417 l 1,23,24
 246 436 246 436 344 541 c 128,-1,25
 442 646 442 646 500 695 c 1,26,27
 515 709 515 709 537 709 c 0,28,29
 557 709 557 709 572.5 696 c 128,-1,30
 588 683 588 683 588 662 c 0,31,32
 588 639 588 639 568.5 617.5 c 128,-1,33
 549 596 549 596 525 576 c 1,34,-1
 391 440 l 1,35,36
 324 369 324 369 324 365 c 0,37,38
 324 353 324 353 397 284 c 1,39,-1
 541 134 l 1,40,41
 560 119 560 119 585.5 91 c 128,-1,42
 611 63 611 63 611 39 c 0,43,44
 611 18 611 18 595.5 5 c 128,-1,45
 580 -8 580 -8 559 -8 c 0,46,47
 537 -8 537 -8 522 6 c 0,48,49
 461 59 461 59 359 170.5 c 128,-1,50
 257 282 257 282 227 312 c 1,51,-1
 227 123 l 2,52,53
 227 114 227 114 228 93.5 c 128,-1,54
 229 73 229 73 229 62 c 0,0,1
EndSplineSet
Validated: 1
EndChar

StartChar: L
Encoding: 76 76 46
Width: 723
GlyphClass: 2
Flags: W
HStem: 0 100<241 600.438> 691 20G<162 214.5>
VStem: 139 105<100 698.335>
LayerCount: 2
Fore
SplineSet
185 711 m 0,0,1
 244 711 244 711 244 628 c 0,2,3
 244 615 244 615 242.5 592.5 c 128,-1,4
 241 570 241 570 241 562 c 2,5,-1
 241 100 l 1,6,7
 276 100 276 100 348.5 102 c 128,-1,8
 421 104 421 104 457 104 c 0,9,10
 517 104 517 104 564 100 c 0,11,12
 584 99 584 99 597 83.5 c 128,-1,13
 610 68 610 68 610 49 c 0,14,15
 610 -1 610 -1 542 -1 c 0,16,17
 536 -1 536 -1 524.5 -0.5 c 128,-1,18
 513 0 513 0 508 0 c 2,19,-1
 238 0 l 1,20,21
 229 0.5 229 0.5 219.75 0.5 c 128,-1,22
 210.5 0.5 210.5 0.5 201 0 c 0,23,24
 199 -0.105263 199 -0.105263 197.017 -0.105263 c 0,25,26
 180.158 -0.105263 180.158 -0.105263 164.5 7.5 c 0,27,28
 147 16 147 16 142 36 c 0,29,30
 136 63 136 63 136 94 c 0,31,32
 136 114 136 114 138.5 152 c 128,-1,33
 141 190 141 190 141 206 c 2,34,-1
 141 567 l 2,35,36
 141 572 141 572 140 591 c 128,-1,37
 139 610 139 610 139 621 c 0,38,39
 139 711 139 711 185 711 c 0,0,1
EndSplineSet
Validated: 1
EndChar

StartChar: M
Encoding: 77 77 47
Width: 723
GlyphClass: 2
Flags: W
HStem: 697 20G<171 226.5 536.5 562>
VStem: 110 102<-0.5625 576> 512 100<-0.0947266 576>
LayerCount: 2
Fore
SplineSet
567 -10 m 0,0,1
 509 -10 509 -10 509 71 c 0,2,3
 509 83 509 83 510.5 104.5 c 128,-1,4
 512 126 512 126 512 134 c 2,5,-1
 512 576 l 1,6,-1
 509 576 l 1,7,8
 508 567 508 567 507.5 563.5 c 128,-1,9
 507 560 507 560 502 543 c 128,-1,10
 497 526 497 526 490 504 c 128,-1,11
 483 482 483 482 464 420.5 c 128,-1,12
 445 359 445 359 422 281 c 0,13,14
 419 269 419 269 414 256 c 128,-1,15
 409 243 409 243 403.5 232 c 128,-1,16
 398 221 398 221 388 213.5 c 128,-1,17
 378 206 378 206 365 206 c 0,18,19
 342 206 342 206 328 220.5 c 128,-1,20
 314 235 314 235 309.5 254 c 128,-1,21
 305 273 305 273 298 292 c 1,22,23
 290 319 290 319 269 379 c 128,-1,24
 248 439 248 439 234 486.5 c 128,-1,25
 220 534 220 534 214 576 c 1,26,-1
 211 576 l 1,27,-1
 211 75 l 2,28,29
 211 71 211 71 211.5 62.5 c 128,-1,30
 212 54 212 54 212 49 c 0,31,32
 212 31 212 31 206.5 18.5 c 128,-1,33
 201 6 201 6 192 0.5 c 128,-1,34
 183 -5 183 -5 175.5 -7 c 128,-1,35
 168 -9 168 -9 161 -9 c 0,36,37
 110 -9 110 -9 110 51 c 0,38,39
 110 57 110 57 110.5 68 c 128,-1,40
 111 79 111 79 111 84 c 2,41,-1
 111 584 l 2,42,43
 111 592 111 592 109.5 611 c 128,-1,44
 108 630 108 630 108 640 c 0,45,46
 108 672 108 672 118 687 c 0,47,48
 136 717 136 717 206 717 c 0,49,50
 247 717 247 717 267 703.5 c 128,-1,51
 287 690 287 690 290.5 669 c 128,-1,52
 294 648 294 648 303 623 c 1,53,54
 308 605 308 605 318 562.5 c 128,-1,55
 328 520 328 520 338.5 487.5 c 128,-1,56
 349 455 349 455 364 431 c 1,57,58
 366 458 366 458 375.5 489.5 c 128,-1,59
 385 521 385 521 399 560 c 128,-1,60
 413 599 413 599 419 618 c 1,61,62
 425 643 425 643 429.5 660.5 c 128,-1,63
 434 678 434 678 441 689.5 c 128,-1,64
 448 701 448 701 461.5 706.5 c 128,-1,65
 475 712 475 712 499 712 c 0,66,67
 513 712 513 712 523 712.5 c 128,-1,68
 533 713 533 713 540 713 c 0,69,70
 584 713 584 713 600.5 691.5 c 128,-1,71
 617 670 617 670 617 612 c 0,72,73
 617 593 617 593 614.5 557 c 128,-1,74
 612 521 612 521 612 506 c 2,75,-1
 612 134 l 2,76,77
 612 128 612 128 612.5 110.5 c 128,-1,78
 613 93 613 93 613 82 c 0,79,80
 613 -10 613 -10 567 -10 c 0,0,1
EndSplineSet
Validated: 1
EndChar

StartChar: N
Encoding: 78 78 48
Width: 723
GlyphClass: 2
Flags: W
HStem: 694 20G<173 202 519.5 555.5>
VStem: 126 105<2.53125 512> 497 100<184 700.956>
LayerCount: 2
Fore
SplineSet
598 49 m 0,0,1
 598 15 598 15 576.5 0.5 c 128,-1,2
 555 -14 555 -14 525 -14 c 0,3,4
 505 -14 505 -14 491 -8 c 128,-1,5
 477 -2 477 -2 470 8 c 128,-1,6
 463 18 463 18 457 30 c 128,-1,7
 451 42 451 42 447 53 c 0,8,9
 431 89 431 89 404 142 c 1,10,-1
 333 292 l 2,11,12
 326 308 326 308 284.5 387.5 c 128,-1,13
 243 467 243 467 230 512 c 1,14,-1
 227 512 l 1,15,-1
 227 156 l 2,16,17
 227 146 227 146 229 117 c 128,-1,18
 231 88 231 88 231 73 c 0,19,20
 231 -9 231 -9 177 -9 c 0,21,22
 126 -9 126 -9 126 51 c 0,23,24
 126 56 126 56 126.5 66.5 c 128,-1,25
 127 77 127 77 127 81 c 2,26,-1
 127 529 l 2,27,28
 127 542 127 542 125 575 c 128,-1,29
 123 608 123 608 123 625 c 0,30,31
 123 673 123 673 137.5 693.5 c 128,-1,32
 152 714 152 714 194 714 c 0,33,34
 210 714 210 714 222 711 c 0,35,36
 238 708 238 708 253.5 689 c 128,-1,37
 269 670 269 670 275.5 657 c 128,-1,38
 282 644 282 644 295.5 609.5 c 0,39,40
 308.62 575.972 308.62 575.972 308.989 575.972 c 0,41,42
 309 575.972 309 575.972 309 576 c 1,43,44
 330 530 330 530 371.5 444.5 c 128,-1,45
 413 359 413 359 421 342 c 128,-1,46
 429 325 429 325 444 292 c 128,-1,47
 459 259 459 259 471.5 232.5 c 128,-1,48
 484 206 484 206 497 184 c 1,49,-1
 497 537 l 2,50,51
 497 547 497 547 494.5 578 c 128,-1,52
 492 609 492 609 492 626 c 0,53,54
 492 710 492 710 547 710 c 0,55,56
 564 710 564 710 578 699.5 c 128,-1,57
 592 689 592 689 596 671 c 0,58,59
 600 647 600 647 600 615 c 0,60,61
 600 598 600 598 598.5 564 c 128,-1,62
 597 530 597 530 597 515 c 2,63,-1
 597 75 l 2,64,65
 597 71 597 71 597.5 62.5 c 128,-1,66
 598 54 598 54 598 49 c 0,0,1
EndSplineSet
Validated: 1
EndChar

StartChar: O
Encoding: 79 79 49
Width: 723
GlyphClass: 2
Flags: W
HStem: -14 100<304.471 419.234> 620 101<302.529 421.183>
VStem: 113 101<220.682 492.038> 509 101<220.352 492.94>
LayerCount: 2
Fore
SplineSet
113 360 m 0,0,1
 113 505 113 505 184 613 c 128,-1,2
 255 721 255 721 364 721 c 0,3,4
 435 721 435 721 492 668.5 c 128,-1,5
 549 616 549 616 579.5 532.5 c 128,-1,6
 610 449 610 449 610 354 c 0,7,8
 610 270 610 270 585 191.5 c 128,-1,9
 560 113 560 113 506 55 c 128,-1,10
 452 -3 452 -3 381 -13 c 0,11,12
 374 -14 374 -14 359 -14 c 0,13,14
 258 -14 258 -14 185.5 95 c 128,-1,15
 113 204 113 204 113 360 c 0,0,1
361 620 m 0,16,17
 318 620 318 620 283.5 579.5 c 128,-1,18
 249 539 249 539 231.5 479.5 c 128,-1,19
 214 420 214 420 214 356 c 0,20,21
 214 254 214 254 257 170 c 128,-1,22
 300 86 300 86 361 86 c 0,23,24
 424 86 424 86 466.5 170.5 c 128,-1,25
 509 255 509 255 509 359 c 0,26,27
 509 438 509 438 483 506 c 0,28,29
 465 553 465 553 434 586.5 c 128,-1,30
 403 620 403 620 361 620 c 0,16,17
EndSplineSet
Validated: 1
EndChar

StartChar: P
Encoding: 80 80 50
Width: 723
GlyphClass: 2
Flags: W
HStem: 285 98<241 463.339> 605 96<241 459.555>
VStem: 141 100<-0.279053 287 387 601> 512 99<426.492 558.023>
LayerCount: 2
Fore
SplineSet
138 619 m 0,0,1
 138 648 138 648 143.5 665.5 c 128,-1,2
 149 683 149 683 162 691 c 128,-1,3
 175 699 175 699 187.5 701 c 128,-1,4
 200 703 200 703 223 703 c 0,5,6
 239 703 239 703 259.5 702 c 128,-1,7
 280 701 280 701 340 701 c 0,8,9
 404 701 404 701 448.5 692.5 c 128,-1,10
 493 684 493 684 533 655 c 0,11,12
 611 598 611 598 611 494 c 0,13,14
 611 437 611 437 584 388.5 c 128,-1,15
 557 340 557 340 508 315 c 0,16,17
 447 285 447 285 343 285 c 0,18,19
 325 285 325 285 291 286 c 128,-1,20
 257 287 257 287 241 287 c 1,21,-1
 241 117 l 2,22,23
 241 108 241 108 242 90 c 128,-1,24
 243 72 243 72 243 64 c 0,25,26
 243 46 243 46 240 31 c 0,27,28
 236 13 236 13 222.5 2 c 128,-1,29
 209 -9 209 -9 191 -9 c 0,30,31
 138 -9 138 -9 138 72 c 0,32,33
 138 84 138 84 139.5 106 c 128,-1,34
 141 128 141 128 141 136 c 2,35,-1
 141 556 l 2,36,37
 141 564 141 564 139.5 585.5 c 128,-1,38
 138 607 138 607 138 619 c 0,0,1
351 383 m 0,39,40
 512 383 512 383 512 490 c 0,41,42
 512 553 512 553 464 581 c 0,43,44
 424 605 424 605 350 605 c 0,45,46
 330 605 330 605 293.5 603 c 128,-1,47
 257 601 257 601 241 601 c 1,48,-1
 241 387 l 1,49,50
 257 387 257 387 294 385 c 128,-1,51
 331 383 331 383 351 383 c 0,39,40
EndSplineSet
Validated: 1
EndChar

StartChar: Q
Encoding: 81 81 51
Width: 723
GlyphClass: 2
Flags: W
HStem: 31 102<281.169 410.436> 616 100<285.446 408.735>
VStem: 116 99<213.718 533.231> 484 99<246.257 504.911>
LayerCount: 2
Fore
SplineSet
116 398 m 0,0,1
 116 477 116 477 134 537 c 128,-1,2
 152 597 152 597 177.5 630 c 128,-1,3
 203 663 203 663 237 683.5 c 128,-1,4
 271 704 271 704 297.5 710 c 128,-1,5
 324 716 324 716 350 716 c 0,6,7
 453 716 453 716 518 618.5 c 128,-1,8
 583 521 583 521 583 375 c 0,9,10
 583 314 583 314 572.5 268.5 c 128,-1,11
 562 223 562 223 551.5 196.5 c 128,-1,12
 541 170 541 170 541 155 c 0,13,14
 541 147 541 147 575.5 104.5 c 128,-1,15
 610 62 610 62 610 36 c 0,16,17
 610 16 610 16 593.5 3 c 128,-1,18
 577 -10 577 -10 560 -10 c 0,19,20
 545 -10 545 -10 532 -0.5 c 128,-1,21
 519 9 519 9 511 21 c 128,-1,22
 503 33 503 33 493 45 c 2,23,-1
 484 56 l 2,24,25
 476 67 476 67 471 68 c 0,26,27
 465 69 465 69 451 59.5 c 128,-1,28
 437 50 437 50 410 40.5 c 128,-1,29
 383 31 383 31 348 31 c 0,30,31
 293 31 293 31 243.5 59.5 c 128,-1,32
 194 88 194 88 165 136 c 0,33,34
 140 177 140 177 131.5 220.5 c 128,-1,35
 123 264 123 264 119 328 c 0,36,37
 116 362 116 362 116 398 c 0,0,1
353 355 m 0,38,39
 375 355 375 355 393 336 c 128,-1,40
 411 317 411 317 430.5 287.5 c 128,-1,41
 450 258 450 258 466 245 c 1,42,43
 484 304 484 304 484 368 c 0,44,45
 484 403 484 403 477.5 441.5 c 128,-1,46
 471 480 471 480 457 521.5 c 128,-1,47
 443 563 443 563 415 589.5 c 128,-1,48
 387 616 387 616 349 616 c 0,49,50
 327 616 327 616 305.5 606 c 128,-1,51
 284 596 284 596 262.5 574.5 c 128,-1,52
 241 553 241 553 228 510 c 128,-1,53
 215 467 215 467 215 410 c 0,54,55
 215 384 215 384 219 334 c 1,56,57
 223 248 223 248 234 220 c 0,58,59
 250 178 250 178 280 155.5 c 128,-1,60
 310 133 310 133 347 133 c 0,61,62
 380 133 380 133 411 150 c 1,63,64
 406 159 406 159 354.5 219.5 c 128,-1,65
 303 280 303 280 303 311 c 0,66,67
 303 330 303 330 318 342.5 c 128,-1,68
 333 355 333 355 353 355 c 0,38,39
EndSplineSet
Validated: 1
EndChar

StartChar: R
Encoding: 82 82 52
Width: 723
GlyphClass: 2
Flags: W
HStem: 290 94<252 350.141> 601 101<252 445.398>
VStem: 152 100<4.41064 287 387 601> 484 99<431.159 567.828>
LayerCount: 2
Fore
SplineSet
447 301 m 1,0,1
 466 256 466 256 502.5 201 c 128,-1,2
 539 146 539 146 563 106 c 128,-1,3
 587 66 587 66 587 40 c 0,4,5
 587 18 587 18 572 4.5 c 128,-1,6
 557 -9 557 -9 537 -9 c 0,7,8
 522 -9 522 -9 509.5 0.5 c 128,-1,9
 497 10 497 10 491 18 c 128,-1,10
 485 26 485 26 475 45.5 c 128,-1,11
 465 65 465 65 464 67 c 2,12,-1
 378 214 l 2,13,14
 371 226 371 226 362 245.5 c 128,-1,15
 353 265 353 265 348.5 271.5 c 128,-1,16
 344 278 344 278 332.5 284 c 128,-1,17
 321 290 321 290 303 290 c 0,18,19
 293 290 293 290 275.5 288.5 c 128,-1,20
 258 287 258 287 252 287 c 1,21,-1
 252 153 l 2,22,23
 252 143 252 143 254 114.5 c 128,-1,24
 256 86 256 86 256 71 c 0,25,26
 256 -9 256 -9 202 -9 c 0,27,28
 183 -9 183 -9 167 4 c 128,-1,29
 151 17 151 17 151 48 c 0,30,31
 151 52 151 52 151.5 61 c 128,-1,32
 152 70 152 70 152 75 c 2,33,-1
 152 545 l 2,34,35
 152 553 152 553 150.5 577 c 128,-1,36
 149 601 149 601 149 615 c 0,37,38
 149 669 149 669 167.5 686 c 128,-1,39
 186 703 186 703 225 703 c 0,40,41
 235 703 235 703 254.5 702 c 128,-1,42
 274 701 274 701 283 701 c 0,43,44
 344 701 344 701 384 697.5 c 128,-1,45
 424 694 424 694 475 673.5 c 128,-1,46
 526 653 526 653 556 615 c 0,47,48
 583 580 583 580 583 531 c 0,49,50
 583 501 583 501 576.5 468 c 128,-1,51
 570 435 570 435 556 399.5 c 128,-1,52
 542 364 542 364 513.5 337 c 128,-1,53
 485 310 485 310 447 301 c 1,0,1
252 387 m 1,54,55
 264 387 264 387 292 385.5 c 128,-1,56
 320 384 320 384 335 384 c 0,57,58
 397 384 397 384 436 406 c 128,-1,59
 475 428 475 428 480 492 c 0,60,61
 480 495 480 495 482 508 c 128,-1,62
 484 521 484 521 484 528 c 0,63,64
 484 544 484 544 477 554 c 0,65,66
 438 602 438 602 325 602 c 0,67,68
 311 602 311 602 286.5 601.5 c 128,-1,69
 262 601 262 601 252 601 c 1,70,-1
 252 387 l 1,54,55
EndSplineSet
Validated: 1
EndChar

StartChar: S
Encoding: 83 83 53
Width: 723
GlyphClass: 2
Flags: W
HStem: -18 100<283.755 426.755> 615 100<289.902 437.376>
VStem: 152 100<114.723 196.117 477.007 581.601> 460.5 106.5<528.66 592.281> 479 99<128.627 245.629>
LayerCount: 2
Fore
SplineSet
352 82 m 0,0,1
 399 82 399 82 439 111.5 c 128,-1,2
 479 141 479 141 479 190 c 0,3,4
 479 226 479 226 449 254.5 c 128,-1,5
 419 283 419 283 379.5 299.5 c 128,-1,6
 340 316 340 316 289 342.5 c 128,-1,7
 238 369 238 369 208 397 c 0,8,9
 152 451 152 451 152 532 c 0,10,11
 152 612 152 612 217 663.5 c 128,-1,12
 282 715 282 715 372 715 c 0,13,14
 458 715 458 715 512.5 664 c 128,-1,15
 567 613 567 613 567 562 c 0,16,17
 567 540 567 540 552.5 527 c 128,-1,18
 538 514 538 514 518 514 c 0,19,20
 495 514 495 514 481 530 c 128,-1,21
 467 546 467 546 460.5 564.5 c 128,-1,22
 454 583 454 583 430.5 599 c 128,-1,23
 407 615 407 615 367 615 c 0,24,25
 324 615 324 615 288 592.5 c 128,-1,26
 252 570 252 570 252 529 c 0,27,28
 252 511 252 511 259.5 496 c 128,-1,29
 267 481 267 481 284 468 c 128,-1,30
 301 455 301 455 312 448 c 128,-1,31
 323 441 323 441 344 429 c 0,32,33
 358 422 358 422 400 403 c 128,-1,34
 442 384 442 384 465.5 369.5 c 128,-1,35
 489 355 489 355 519 330 c 128,-1,36
 549 305 549 305 563.5 270 c 128,-1,37
 578 235 578 235 578 189 c 0,38,39
 578 136 578 136 554 90.5 c 128,-1,40
 530 45 530 45 486 20 c 0,41,42
 416 -18 416 -18 352 -18 c 0,43,44
 261 -18 261 -18 204 40 c 128,-1,45
 147 98 147 98 147 157 c 0,46,47
 147 185 147 185 162 196.5 c 128,-1,48
 177 208 177 208 196 208 c 0,49,50
 223 208 223 208 235.5 190 c 128,-1,51
 248 172 248 172 257.5 145 c 128,-1,52
 267 118 267 118 281 106 c 0,53,54
 311 82 311 82 352 82 c 0,0,1
EndSplineSet
Validated: 1
EndChar

StartChar: T
Encoding: 84 84 54
Width: 723
GlyphClass: 2
Flags: W
HStem: 601 100<139.352 311 411 596.589>
VStem: 309 104<0.719482 601>
LayerCount: 2
Fore
SplineSet
610 651 m 0,0,1
 610 631 610 631 597 615.5 c 128,-1,2
 584 600 584 600 550 600 c 0,3,4
 545 600 545 600 536 600.5 c 128,-1,5
 527 601 527 601 523 601 c 2,6,-1
 411 601 l 1,7,-1
 411 131 l 2,8,9
 411 124 411 124 412 104.5 c 128,-1,10
 413 85 413 85 413 73 c 0,11,12
 413 -10 413 -10 361 -10 c 128,-1,13
 309 -10 309 -10 309 73 c 0,14,15
 309 85 309 85 310 104.5 c 128,-1,16
 311 124 311 124 311 131 c 2,17,-1
 311 601 l 1,18,-1
 194 601 l 2,19,20
 150 601 150 601 139 607 c 0,21,22
 113 621 113 621 113 650 c 0,23,24
 113 669 113 669 126 684.5 c 128,-1,25
 139 700 139 700 161 701 c 0,26,27
 193 703 193 703 256 703 c 0,28,29
 288 703 288 703 352 702 c 128,-1,30
 416 701 416 701 448 701 c 0,31,32
 459 701 459 701 486.5 703 c 128,-1,33
 514 705 514 705 528 705 c 0,34,35
 610 705 610 705 610 651 c 0,0,1
EndSplineSet
Validated: 1
EndChar

StartChar: U
Encoding: 85 85 55
Width: 723
GlyphClass: 2
Flags: W
HStem: -15 101<277.593 447.859> 690 20G<168.5 205 541 552.5>
VStem: 125 100<135.007 700.43> 498 100<131.922 701.835>
LayerCount: 2
Fore
SplineSet
367 -15 m 0,0,1
 299 -15 299 -15 248 8 c 128,-1,2
 197 31 197 31 172.5 66.5 c 128,-1,3
 148 102 148 102 136.5 135 c 128,-1,4
 125 168 125 168 125 198 c 0,5,6
 125 210 125 210 126.5 235 c 128,-1,7
 128 260 128 260 128 273 c 2,8,-1
 128 459 l 2,9,10
 128 481 128 481 125.5 528 c 128,-1,11
 123 575 123 575 123 599 c 0,12,13
 123 644 123 644 129 673 c 1,14,15
 131 688 131 688 144.5 699 c 128,-1,16
 158 710 158 710 179 710 c 0,17,18
 231 710 231 710 231 612 c 0,19,20
 231 597 231 597 229.5 573 c 128,-1,21
 228 549 228 549 228 542 c 2,22,-1
 228 284 l 2,23,24
 228 273 228 273 226.5 249.5 c 128,-1,25
 225 226 225 226 225 214 c 0,26,27
 225 176 225 176 238.5 149 c 128,-1,28
 252 122 252 122 275 109 c 128,-1,29
 298 96 298 96 319.5 91 c 128,-1,30
 341 86 341 86 364 86 c 0,31,32
 406 86 406 86 441.5 104 c 128,-1,33
 477 122 477 122 491 158 c 0,34,35
 500 182 500 182 500 220 c 0,36,37
 500 231 500 231 499 252.5 c 128,-1,38
 498 274 498 274 498 284 c 2,39,-1
 498 540 l 2,40,41
 498 552 498 552 496 582 c 128,-1,42
 494 612 494 612 494 627 c 0,43,44
 494 654 494 654 500 676 c 0,45,46
 504 691 504 691 518.5 701 c 128,-1,47
 533 711 533 711 549 711 c 0,48,49
 556 711 556 711 564 708 c 0,50,51
 586 700 586 700 592 683.5 c 128,-1,52
 598 667 598 667 598 640 c 2,53,-1
 598 286 l 2,54,55
 598 246 598 246 598 236 c 128,-1,56
 598 226 598 226 596 192 c 128,-1,57
 594 158 594 158 589 143.5 c 128,-1,58
 584 129 584 129 575 104.5 c 128,-1,59
 566 80 566 80 550.5 62.5 c 128,-1,60
 535 45 535 45 514 30 c 0,61,62
 455 -15 455 -15 367 -15 c 0,0,1
EndSplineSet
Validated: 1
EndChar

StartChar: V
Encoding: 86 86 56
Width: 723
GlyphClass: 2
Flags: W
HStem: 691 20G<152.5 168.5 548.5 568>
LayerCount: 2
Fore
SplineSet
113 661 m 0,0,1
 113 685 113 685 128 698 c 128,-1,2
 143 711 143 711 162 711 c 0,3,4
 175 711 175 711 184.5 706 c 128,-1,5
 194 701 194 701 199.5 693.5 c 128,-1,6
 205 686 205 686 211 668.5 c 128,-1,7
 217 651 217 651 221 635.5 c 128,-1,8
 225 620 225 620 233 588 c 128,-1,9
 241 556 241 556 249 529 c 0,10,11
 312 296 312 296 336 200 c 0,12,13
 338 193 338 193 343 171.5 c 128,-1,14
 348 150 348 150 352.5 135.5 c 128,-1,15
 357 121 357 121 364 109 c 1,16,17
 368 148 368 148 380.5 194.5 c 128,-1,18
 393 241 393 241 420 332 c 128,-1,19
 447 423 447 423 470 515 c 0,20,21
 482 564 482 564 502 634 c 0,22,23
 506 647 506 647 509 664 c 128,-1,24
 512 681 512 681 525 696 c 128,-1,25
 538 711 538 711 559 711 c 0,26,27
 577 711 577 711 594 697.5 c 128,-1,28
 611 684 611 684 611 657 c 0,29,30
 611 635 611 635 604 608.5 c 128,-1,31
 597 582 597 582 585.5 548 c 128,-1,32
 574 514 574 514 570 501 c 2,33,-1
 482 167 l 2,34,35
 477 147 477 147 466 107 c 128,-1,36
 455 67 455 67 450 47 c 0,37,38
 443 23 443 23 437 12 c 128,-1,39
 431 1 431 1 413 -7 c 128,-1,40
 395 -15 395 -15 361 -15 c 0,41,42
 336 -15 336 -15 319.5 -11.5 c 128,-1,43
 303 -8 303 -8 294 2.5 c 128,-1,44
 285 13 285 13 282 18 c 128,-1,45
 279 23 279 23 275 40 c 128,-1,46
 271 57 271 57 270 59 c 0,47,48
 254 117 254 117 241 170 c 0,49,50
 239 179 239 179 176 412 c 128,-1,51
 113 645 113 645 113 661 c 0,0,1
EndSplineSet
Validated: 1
EndChar

StartChar: W
Encoding: 87 87 57
Width: 723
GlyphClass: 2
Flags: W
HStem: 690 21G<156.5 176 542.5 567.5>
VStem: 109 105<352.117 697.181> 303 122<317.281 419.014> 504 102<272.184 636.465>
LayerCount: 2
Fore
SplineSet
504 573 m 2,0,1
 504 647 504 647 515.5 678.5 c 128,-1,2
 527 710 527 710 558 710 c 0,3,4
 577 710 577 710 592.5 698 c 128,-1,5
 608 686 608 686 611 665 c 0,6,7
 613 647 613 647 613 637 c 0,8,9
 613 620 613 620 609.5 586.5 c 128,-1,10
 606 553 606 553 606 540 c 0,11,12
 600 313 600 313 556 70 c 1,13,14
 551 53 551 53 549 35.5 c 128,-1,15
 547 18 547 18 533.5 4.5 c 128,-1,16
 520 -9 520 -9 497 -9 c 0,17,18
 455 -9 455 -9 431 20 c 0,19,20
 424 29 424 29 419.5 40 c 128,-1,21
 415 51 415 51 410.5 69.5 c 128,-1,22
 406 88 406 88 405 92 c 0,23,24
 401 107 401 107 390.5 136.5 c 128,-1,25
 380 166 380 166 373 191 c 128,-1,26
 366 216 366 216 364 237 c 1,27,-1
 361 237 l 1,28,29
 358 214 358 214 351 189 c 128,-1,30
 344 164 344 164 333.5 132.5 c 128,-1,31
 323 101 323 101 319 86 c 0,32,33
 317 78 317 78 312.5 58.5 c 128,-1,34
 308 39 308 39 304.5 30 c 128,-1,35
 301 21 301 21 293 9 c 128,-1,36
 285 -3 285 -3 272 -8 c 128,-1,37
 259 -13 259 -13 239 -13 c 0,38,39
 216 -13 216 -13 201.5 -5.5 c 128,-1,40
 187 2 187 2 182 13.5 c 128,-1,41
 177 25 177 25 173 37.5 c 128,-1,42
 169 50 169 50 169 61 c 1,43,44
 152 138 152 138 141 230 c 128,-1,45
 130 322 130 322 126.5 382 c 128,-1,46
 123 442 123 442 119 495 c 0,47,48
 118 508 118 508 115 534 c 128,-1,49
 112 560 112 560 110.5 582 c 128,-1,50
 109 604 109 604 109 623 c 0,51,52
 109 646 109 646 112 665 c 0,53,54
 116 685 116 685 131.5 698 c 128,-1,55
 147 711 147 711 166 711 c 0,56,57
 186 711 186 711 197.5 698 c 128,-1,58
 209 685 209 685 211 667 c 128,-1,59
 213 649 213 649 214 630.5 c 128,-1,60
 215 612 215 612 214 601 c 1,61,62
 214 584 214 584 216.5 538.5 c 128,-1,63
 219 493 219 493 219 473 c 1,64,65
 221 435 221 435 232.5 343.5 c 128,-1,66
 244 252 244 252 245 203 c 1,67,68
 250 209 250 209 253 218 c 128,-1,69
 256 227 256 227 259 239 c 128,-1,70
 262 251 262 251 264 256 c 2,71,-1
 294 362 l 2,72,73
 299 377 299 377 303 393.5 c 128,-1,74
 307 410 307 410 321.5 422.5 c 128,-1,75
 336 435 336 435 361 435 c 0,76,77
 389 435 389 435 405 419.5 c 128,-1,78
 421 404 421 404 425 382 c 128,-1,79
 429 360 429 360 436 337 c 0,80,81
 440 323 440 323 449.5 295.5 c 128,-1,82
 459 268 459 268 465.5 245.5 c 128,-1,83
 472 223 472 223 475 203 c 1,84,-1
 478 203 l 1,85,86
 479 259 479 259 491.5 356.5 c 128,-1,87
 504 454 504 454 504 509 c 2,88,-1
 504 573 l 2,0,1
EndSplineSet
Validated: 1
EndChar

StartChar: X
Encoding: 88 88 58
Width: 723
GlyphClass: 2
Flags: W
HStem: 691 20G<179 197 527.5 544>
VStem: 294 134<310.742 408.139>
LayerCount: 2
Fore
SplineSet
361 264 m 1,0,1
 346 231 346 231 269 95 c 0,2,3
 263 85 263 85 251.5 60.5 c 128,-1,4
 240 36 240 36 233 24 c 128,-1,5
 226 12 226 12 212.5 1 c 128,-1,6
 199 -10 199 -10 184 -10 c 0,7,8
 164 -10 164 -10 148.5 5 c 128,-1,9
 133 20 133 20 133 43 c 0,10,11
 133 60 133 60 145.5 82.5 c 128,-1,12
 158 105 158 105 171 125 c 1,13,-1
 262 292 l 2,14,15
 266 301 266 301 275 315 c 128,-1,16
 284 329 284 329 289 339.5 c 128,-1,17
 294 350 294 350 294 360 c 128,-1,18
 294 370 294 370 287.5 383 c 128,-1,19
 281 396 281 396 270.5 411.5 c 128,-1,20
 260 427 260 427 258 431 c 2,21,-1
 171 587 l 1,22,23
 162 600 162 600 150.5 621.5 c 128,-1,24
 139 643 139 643 139 661 c 0,25,26
 139 682 139 682 154 696.5 c 128,-1,27
 169 711 169 711 189 711 c 0,28,29
 205 711 205 711 218.5 700 c 128,-1,30
 232 689 232 689 238.5 678.5 c 128,-1,31
 245 668 245 668 258.5 640.5 c 128,-1,32
 272 613 272 613 277 604 c 0,33,34
 285 588 285 588 304.5 557.5 c 128,-1,35
 324 527 324 527 337.5 502 c 128,-1,36
 351 477 351 477 358 454 c 1,37,-1
 364 454 l 1,38,39
 371 476 371 476 383.5 499.5 c 128,-1,40
 396 523 396 523 414.5 552 c 128,-1,41
 433 581 433 581 441 595 c 0,42,43
 447 607 447 607 458.5 630 c 128,-1,44
 470 653 470 653 476 663.5 c 128,-1,45
 482 674 482 674 491.5 687 c 128,-1,46
 501 700 501 700 511 705.5 c 128,-1,47
 521 711 521 711 534 711 c 0,48,49
 554 711 554 711 569.5 696.5 c 128,-1,50
 585 682 585 682 585 660 c 0,51,52
 585 649 585 649 579 635.5 c 128,-1,53
 573 622 573 622 562.5 604.5 c 128,-1,54
 552 587 552 587 549 581 c 2,55,-1
 465 431 l 2,56,57
 464 429 464 429 452 411.5 c 128,-1,58
 440 394 440 394 434 381 c 128,-1,59
 428 368 428 368 428 359 c 0,60,61
 428 345 428 345 444 318 c 128,-1,62
 460 291 460 291 467 281 c 1,63,-1
 557 117 l 2,64,65
 559 113 559 113 568.5 96.5 c 128,-1,66
 578 80 578 80 584.5 65.5 c 128,-1,67
 591 51 591 51 591 40 c 0,68,69
 591 18 591 18 575.5 4.5 c 128,-1,70
 560 -9 560 -9 540 -9 c 0,71,72
 525 -9 525 -9 512 1 c 128,-1,73
 499 11 499 11 493 20 c 128,-1,74
 487 29 487 29 476 51.5 c 128,-1,75
 465 74 465 74 463 78 c 0,76,77
 447 106 447 106 413.5 168.5 c 128,-1,78
 380 231 380 231 361 264 c 1,0,1
EndSplineSet
Validated: 1
EndChar

StartChar: Y
Encoding: 89 89 59
Width: 723
GlyphClass: 2
Flags: W
HStem: 691 20G<174 193 529.5 548>
VStem: 311 104<3.34326 163.714> 311 95<83.5338 350.656> 491 97<639.281 696.077>
LayerCount: 2
Fore
SplineSet
136 663 m 4,0,1
 136 684 136 684 150 697.5 c 132,-1,2
 164 711 164 711 184 711 c 4,3,4
 202 711 202 711 218 696.5 c 132,-1,5
 234 682 234 682 242 668 c 132,-1,6
 250 654 250 654 270.5 611 c 132,-1,7
 291 568 291 568 302 548 c 4,8,9
 308 538 308 538 321.5 515 c 132,-1,10
 335 492 335 492 344.5 474.5 c 132,-1,11
 354 457 354 457 359 440 c 5,12,-1
 364 440 l 5,13,14
 372 458 372 458 379.5 473.5 c 132,-1,15
 387 489 387 489 396 504.5 c 132,-1,16
 405 520 405 520 428 562.5 c 132,-1,17
 451 605 451 605 479 657 c 4,18,19
 486 668 486 668 491 680 c 132,-1,20
 496 692 496 692 508.5 701 c 132,-1,21
 521 710 521 710 538 710 c 4,22,23
 558 710 558 710 573 696.5 c 132,-1,24
 588 683 588 683 588 663 c 4,25,26
 588 647 588 647 579.5 627 c 132,-1,27
 571 607 571 607 554 579 c 132,-1,28
 537 551 537 551 535 548 c 4,29,30
 519 520 519 520 491 466 c 132,-1,31
 463 412 463 412 455 398 c 4,32,33
 439 369 439 369 428 351 c 132,-1,34
 417 333 417 333 411.5 312.5 c 132,-1,35
 406 292 406 292 406 262 c 4,36,37
 406 245 406 245 408.5 211 c 132,-1,38
 411 177 411 177 411 164 c 4,39,40
 411 155 411 155 413 127.5 c 132,-1,41
 415 100 415 100 415 83 c 4,42,43
 415 -11 415 -11 357 -11 c 4,44,45
 338 -11 338 -11 327 1 c 132,-1,46
 316 13 316 13 314 30.5 c 132,-1,47
 312 48 312 48 311 67 c 4,48,49
 310 76 310 76 310 84 c 4,50,51
 310 93 310 93 311 100 c 5,52,-1
 311 245 l 6,53,54
 311 251 311 251 312 265.5 c 132,-1,55
 313 280 313 280 313 288 c 4,56,57
 313 313 313 313 302 336.5 c 132,-1,58
 291 360 291 360 255.5 422 c 132,-1,59
 220 484 220 484 188 548 c 4,60,61
 185 554 185 554 169.5 579 c 132,-1,62
 154 604 154 604 145 625 c 132,-1,63
 136 646 136 646 136 663 c 4,0,1
EndSplineSet
Validated: 1
EndChar

StartChar: Z
Encoding: 90 90 60
Width: 723
GlyphClass: 2
Flags: W
HStem: 0 100<272 568.104> 601 100<152.613 416>
LayerCount: 2
Fore
SplineSet
209 -1 m 0,0,1
 140 -1 140 -1 140 49 c 0,2,3
 140 68 140 68 150.5 92 c 128,-1,4
 161 116 161 116 178.5 145 c 128,-1,5
 196 174 196 174 200 181 c 0,6,7
 243 270 243 270 305 393 c 128,-1,8
 367 516 367 516 416 601 c 1,9,-1
 297 601 l 2,10,11
 288 601 288 601 263 599.5 c 128,-1,12
 238 598 238 598 224 598 c 0,13,14
 144 598 144 598 144 651 c 0,15,16
 144 703 144 703 212 703 c 0,17,18
 220 703 220 703 235.5 702 c 128,-1,19
 251 701 251 701 258 701 c 2,20,-1
 458 701 l 1,21,22
 466 700 466 700 474 700 c 128,-1,23
 482 700 482 700 490 701 c 0,24,25
 504 703 504 703 520 695 c 0,26,27
 535 688 535 688 542 673 c 0,28,29
 547 663 547 663 547 652 c 0,30,31
 547 633 547 633 537 609 c 128,-1,32
 527 585 527 585 508.5 554.5 c 128,-1,33
 490 524 490 524 488 520 c 0,34,35
 479 502 479 502 399 341.5 c 128,-1,36
 319 181 319 181 272 100 c 1,37,-1
 489 100 l 2,38,39
 494 100 494 100 504.5 100.5 c 128,-1,40
 515 101 515 101 521 101 c 0,41,42
 556 101 556 101 568.5 85 c 128,-1,43
 581 69 581 69 581 50 c 0,44,45
 581 -3 581 -3 512 -3 c 0,46,47
 502 -3 502 -3 482.5 -1.5 c 128,-1,48
 463 0 463 0 455 0 c 2,49,-1
 238 0 l 2,50,51
 234 0 234 0 224 -0.5 c 128,-1,52
 214 -1 214 -1 209 -1 c 0,0,1
EndSplineSet
Validated: 1
EndChar

StartChar: bracketleft
Encoding: 91 91 61
Width: 723
GlyphClass: 2
Flags: W
HStem: -14 100<308 584.578> 670 100<308 583.966>
VStem: 208 100<86 670>
LayerCount: 2
Fore
SplineSet
289 -14 m 2,0,1
 239 -14 239 -14 221 2 c 128,-1,2
 203 18 203 18 203 83 c 0,3,4
 203 102 203 102 205.5 139.5 c 128,-1,5
 208 177 208 177 208 192 c 2,6,-1
 208 684 l 2,7,8
 208 732 208 732 215 745 c 0,9,10
 222 759 222 759 237 765 c 128,-1,11
 252 771 252 771 266.5 770 c 128,-1,12
 281 769 281 769 297 770 c 1,13,-1
 508 770 l 1,14,15
 519 771 519 771 531 770.5 c 128,-1,16
 543 770 543 770 553.5 768.5 c 128,-1,17
 564 767 564 767 573 760.5 c 128,-1,18
 582 754 582 754 588 743 c 1,19,20
 593 731 593 731 593 721 c 0,21,22
 593 703 593 703 582 689 c 128,-1,23
 571 675 571 675 553 671 c 0,24,25
 538 668 538 668 521 668 c 0,26,27
 512 668 512 668 494.5 669 c 128,-1,28
 477 670 477 670 469 670 c 2,29,-1
 308 670 l 1,30,-1
 308 86 l 1,31,-1
 469 86 l 2,32,33
 477 86 477 86 494.5 87 c 128,-1,34
 512 88 512 88 521 88 c 0,35,36
 538 88 538 88 553 85 c 0,37,38
 571 81 571 81 582 67.5 c 128,-1,39
 593 54 593 54 593 36 c 0,40,41
 593 26 593 26 588 14 c 0,42,43
 581 -1 581 -1 566.5 -8 c 128,-1,44
 552 -15 552 -15 537 -14 c 128,-1,45
 522 -13 522 -13 506 -14 c 1,46,-1
 289 -14 l 2,0,1
EndSplineSet
Validated: 1
EndChar

StartChar: backslash
Encoding: 92 92 62
Width: 723
GlyphClass: 2
Flags: W
HStem: 751 20G<213.5 231>
LayerCount: 2
Fore
SplineSet
174 723 m 0,0,1
 174 748 174 748 189.5 759.5 c 128,-1,2
 205 771 205 771 222 771 c 0,3,4
 240 771 240 771 256 754 c 128,-1,5
 272 737 272 737 279 721.5 c 128,-1,6
 286 706 286 706 297 674.5 c 128,-1,7
 308 643 308 643 309 640 c 2,8,-1
 502 167 l 2,9,10
 504 163 504 163 518.5 133 c 128,-1,11
 533 103 533 103 541 79 c 128,-1,12
 549 55 549 55 549 36 c 0,13,14
 549 10 549 10 533.5 -1.5 c 128,-1,15
 518 -13 518 -13 501 -13 c 0,16,17
 486 -13 486 -13 473.5 -4 c 128,-1,18
 461 5 461 5 451.5 22.5 c 128,-1,19
 442 40 442 40 436.5 53.5 c 128,-1,20
 431 67 431 67 423.5 89 c 128,-1,21
 416 111 416 111 414 117 c 2,22,-1
 221 590 l 2,23,24
 219 597 219 597 205 625 c 128,-1,25
 191 653 191 653 182.5 678 c 128,-1,26
 174 703 174 703 174 723 c 0,0,1
EndSplineSet
Validated: 1
EndChar

StartChar: bracketright
Encoding: 93 93 63
Width: 723
GlyphClass: 2
Flags: W
HStem: -14 105<142.527 414> 665 105<143.312 414>
VStem: 414 100<86 670>
LayerCount: 2
Fore
SplineSet
519 83 m 0,0,1
 519 19 519 19 501 2.5 c 128,-1,2
 483 -14 483 -14 436 -14 c 2,3,-1
 219 -14 l 1,4,5
 211 -14 211 -14 203 -14 c 0,6,7
 196 -14 196 -14 188 -14 c 0,8,9
 186 -14 186 -14 184 -14 c 0,10,-1
 156 -8 l 0,11,12
 141 -1 141 -1 134 14 c 0,13,14
 129 25 129 25 129 35 c 0,15,16
 129 53 129 53 141 67.5 c 128,-1,17
 153 82 153 82 172 85 c 0,18,19
 204 91 204 91 256 91 c 0,20,21
 283 91 283 91 336 88.5 c 128,-1,22
 389 86 389 86 414 86 c 1,23,-1
 414 670 l 1,24,25
 389 670 389 670 336 667.5 c 128,-1,26
 283 665 283 665 256 665 c 0,27,28
 204 665 204 665 172 671 c 0,29,30
 153 675 153 675 141 689.5 c 128,-1,31
 129 704 129 704 129 722 c 0,32,33
 129 731 129 731 134 743 c 0,34,35
 139 754 139 754 148.5 760.5 c 128,-1,36
 158 767 158 767 168.5 768.5 c 128,-1,37
 179 770 179 770 191 770.5 c 128,-1,38
 203 771 203 771 213 770 c 1,39,-1
 428 770 l 2,40,41
 443 770 443 770 457.5 770.5 c 128,-1,42
 472 771 472 771 486 765 c 128,-1,43
 500 759 500 759 507 745 c 0,44,45
 514 732 514 732 514 684 c 2,46,-1
 514 192 l 2,47,48
 514 177 514 177 516.5 139.5 c 128,-1,49
 519 102 519 102 519 83 c 0,0,1
EndSplineSet
Validated: 1
EndChar

StartChar: asciicircum
Encoding: 94 94 64
Width: 723
GlyphClass: 2
Flags: W
LayerCount: 2
Fore
SplineSet
161 367 m 0,0,1
 140 367 140 367 126.5 381 c 128,-1,2
 113 395 113 395 113 414 c 0,3,4
 113 431 113 431 126.5 453.5 c 128,-1,5
 140 476 140 476 151 489 c 1,6,-1
 301 715 l 2,7,8
 334 765 334 765 362 765 c 0,9,10
 388 765 388 765 410.5 735.5 c 128,-1,11
 433 706 433 706 445 681 c 1,12,-1
 560 509 l 2,13,14
 565 501 565 501 576 486.5 c 128,-1,15
 587 472 587 472 593.5 462.5 c 128,-1,16
 600 453 600 453 605.5 440 c 128,-1,17
 611 427 611 427 611 416 c 0,18,19
 611 396 611 396 595.5 381.5 c 128,-1,20
 580 367 580 367 560 367 c 128,-1,21
 540 367 540 367 520.5 382 c 128,-1,22
 501 397 501 397 476.5 427.5 c 128,-1,23
 452 458 452 458 448 462 c 0,24,25
 430 479 430 479 399 512.5 c 128,-1,26
 368 546 368 546 361 553 c 1,27,28
 351 538 351 538 338 524 c 128,-1,29
 325 510 325 510 302.5 488.5 c 128,-1,30
 280 467 280 467 275 462 c 0,31,32
 248 428 248 428 217.5 397.5 c 128,-1,33
 187 367 187 367 161 367 c 0,0,1
EndSplineSet
Validated: 1
EndChar

StartChar: underscore
Encoding: 95 95 65
Width: 723
GlyphClass: 2
Flags: W
HStem: -202 136<124.164 601.216>
VStem: 110 504.107<-187.059 -79.9141>
LayerCount: 2
Fore
SplineSet
110 -134 m 0,0,1
 110 -92 110 -92 135 -78 c 128,-1,2
 160 -64 160 -64 208 -64 c 0,3,4
 224 -64 224 -64 258 -66 c 128,-1,5
 292 -68 292 -68 306 -68 c 2,6,-1
 484 -68 l 2,7,8
 492 -68 492 -68 510 -67 c 128,-1,9
 528 -66 528 -66 538 -66 c 0,10,11
 559 -66 559 -66 574 -70 c 0,12,13
 596 -76 596 -76 604 -92 c 0,14,15
 614 -112 614 -112 614 -134 c 0,16,17
 614 -136 614 -136 614 -137 c 0,18,19
 614 -139 614 -139 614 -142 c 0,20,21
 614.107 -144.143 614.107 -144.143 614.107 -146.209 c 0,22,23
 614.107 -202 614.107 -202 536 -202 c 0,24,25
 522 -202 522 -202 499.5 -200.5 c 128,-1,26
 477 -199 477 -199 468 -199 c 2,27,-1
 246 -199 l 2,28,29
 236 -199 236 -199 216 -200.5 c 128,-1,30
 196 -202 196 -202 184 -202 c 0,31,32
 110 -202 110 -202 110 -134 c 0,0,1
EndSplineSet
Validated: 1
EndChar

StartChar: grave
Encoding: 96 96 66
Width: 723
GlyphClass: 2
Flags: W
HStem: 501 184<319.826 348.07>
VStem: 258 153
LayerCount: 2
Fore
SplineSet
258 634 m 4,0,1
 258 655 258 655 271.5 670 c 132,-1,2
 285 685 285 685 307 685 c 4,3,4
 332 685 332 685 353.5 657 c 132,-1,5
 375 629 375 629 385 607 c 5,6,7
 392 598 392 598 401.5 581.5 c 132,-1,8
 411 565 411 565 411 551 c 4,9,10
 411 531 411 531 397.5 516 c 132,-1,11
 384 501 384 501 362 501 c 4,12,13
 344 501 344 501 328.5 514.5 c 132,-1,14
 313 528 313 528 303.5 545.5 c 132,-1,15
 294 563 294 563 283 579 c 4,16,17
 274 592 274 592 266 606 c 132,-1,18
 258 620 258 620 258 634 c 4,0,1
EndSplineSet
Validated: 1
EndChar

StartChar: a
Encoding: 97 97 67
Width: 723
GlyphClass: 2
Flags: W
HStem: -16 99<251.791 386.922> 233 103.118<262.253 472> 395 117.5<198.132 272.199> 442 101<280.741 439.753>
VStem: 128 98<108.849 199.626> 171 407<291 444> 472 100<163.703 236>
LayerCount: 2
Fore
SplineSet
315 -16 m 4,0,1
 238 -16 238 -16 183 30.5 c 132,-1,2
 128 77 128 77 128 150 c 4,3,4
 128 198 128 198 153.5 240 c 132,-1,5
 179 282 179 282 224 305 c 4,6,7
 258 322 258 322 304 329.5 c 4,8,9
 344.588 336.118 344.588 336.118 380.505 336.118 c 4,10,11
 385.294 336.118 385.294 336.118 390 336 c 4,12,13
 410 335.5 410 335.5 431.25 335.5 c 132,-1,14
 452.5 335.5 452.5 335.5 475 336 c 5,15,16
 474 339 474 339 470.5 357 c 132,-1,17
 467 375 467 375 462 386.5 c 132,-1,18
 457 398 457 398 447 412.5 c 132,-1,19
 437 427 437 427 416 434.5 c 132,-1,20
 395 442 395 442 366 442 c 4,21,22
 320 442 320 442 277 418.5 c 132,-1,23
 234 395 234 395 216 395 c 4,24,25
 197 395 197 395 184 411 c 132,-1,26
 171 427 171 427 171 444 c 4,27,28
 171 482 171 482 234 512.5 c 132,-1,29
 297 543 297 543 369 543 c 4,30,31
 467 543 467 543 522 484 c 4,32,33
 578 423 578 423 578 291 c 4,34,35
 578 263 578 263 575 210.5 c 132,-1,36
 572 158 572 158 572 136 c 4,37,38
 572 127 572 127 574 101.5 c 132,-1,39
 576 76 576 76 576 62 c 4,40,41
 576 20 576 20 561.5 3 c 132,-1,42
 547 -14 547 -14 528 -14 c 132,-1,43
 509 -14 509 -14 492 2.5 c 132,-1,44
 475 19 475 19 472 41 c 5,45,46
 404 -16 404 -16 315 -16 c 4,0,1
226 155 m 4,47,48
 226 130 226 130 249.5 106.5 c 132,-1,49
 273 83 273 83 316 83 c 4,50,51
 383 83 383 83 444 155 c 4,52,53
 472 189 472 189 472 236 c 5,54,55
 454 236 454 236 417 234.5 c 132,-1,56
 380 233 380 233 361 233 c 4,57,58
 290 233 290 233 258 208.5 c 132,-1,59
 226 184 226 184 226 155 c 4,47,48
EndSplineSet
Validated: 1
EndChar

StartChar: b
Encoding: 98 98 68
Width: 723
GlyphClass: 2
Flags: W
HStem: -17 100<302.297 449.467> 437 99<298.498 447.35>
VStem: 122 94<170.823 348.742> 510 105<150.607 371.242>
LayerCount: 2
Fore
SplineSet
380 -17 m 0,0,1
 300 -17 300 -17 222 41 c 1,2,3
 221 18 221 18 204.5 2.5 c 128,-1,4
 188 -13 188 -13 168 -13 c 0,5,6
 121 -13 121 -13 121 51 c 0,7,8
 121 58 121 58 121.5 70.5 c 128,-1,9
 122 83 122 83 122 89 c 2,10,-1
 122 562 l 2,11,12
 122 578 122 578 121 613 c 128,-1,13
 120 648 120 648 120 666 c 0,14,15
 120 706 120 706 123 726 c 0,16,17
 125 746 125 746 140 757.5 c 128,-1,18
 155 769 155 769 173 769 c 0,19,20
 224 769 224 769 224 702 c 0,21,22
 224 693 224 693 223 676.5 c 128,-1,23
 222 660 222 660 222 653 c 2,24,-1
 222 481 l 1,25,26
 299 536 299 536 372 536 c 0,27,28
 480 536 480 536 547.5 458 c 128,-1,29
 615 380 615 380 615 262 c 0,30,31
 615 146 615 146 549 64.5 c 128,-1,32
 483 -17 483 -17 380 -17 c 0,0,1
369 437 m 0,33,34
 311 437 311 437 263.5 385.5 c 128,-1,35
 216 334 216 334 216 255 c 0,36,37
 216 199 216 199 246 157.5 c 128,-1,38
 276 116 276 116 311.5 99.5 c 128,-1,39
 347 83 347 83 380 83 c 0,40,41
 403 83 403 83 423 90.5 c 128,-1,42
 443 98 443 98 464 116 c 128,-1,43
 485 134 485 134 497.5 173 c 128,-1,44
 510 212 510 212 510 268 c 0,45,46
 510 320 510 320 495.5 356.5 c 128,-1,47
 481 393 481 393 457 409 c 128,-1,48
 433 425 433 425 412.5 431 c 128,-1,49
 392 437 392 437 369 437 c 0,33,34
EndSplineSet
Validated: 1
EndChar

StartChar: c
Encoding: 99 99 69
Width: 723
GlyphClass: 2
Flags: W
HStem: -17 99<316.04 445.482> 436 101<317.361 454.753>
VStem: 166 100<139.857 378.439> 462 105<105.222 158.529>
LayerCount: 2
Fore
SplineSet
166 276 m 4,0,1
 166 415 166 415 229.5 476 c 132,-1,2
 293 537 293 537 392 537 c 4,3,4
 471 537 471 537 514.5 497.5 c 132,-1,5
 558 458 558 458 558 414 c 4,6,7
 558 389 558 389 540.5 377 c 132,-1,8
 523 365 523 365 509 365 c 4,9,10
 494 365 494 365 483.5 376 c 132,-1,11
 473 387 473 387 466 400.5 c 132,-1,12
 459 414 459 414 440 425 c 132,-1,13
 421 436 421 436 391 436 c 4,14,15
 266 436 266 436 266 270 c 4,16,17
 266 168 266 168 296 125 c 132,-1,18
 326 82 326 82 385 82 c 4,19,20
 423 82 423 82 447 105 c 4,21,22
 454 112 454 112 462 131 c 132,-1,23
 470 150 470 150 481.5 162 c 132,-1,24
 493 174 493 174 514 174 c 4,25,26
 536 174 536 174 551.5 159 c 132,-1,27
 567 144 567 144 567 121 c 4,28,29
 567 85 567 85 529.5 46.5 c 132,-1,30
 492 8 492 8 458 -4 c 4,31,32
 422 -17 422 -17 381 -17 c 4,33,34
 356 -17 356 -17 332 -12 c 132,-1,35
 308 -7 308 -7 279 8 c 132,-1,36
 250 23 250 23 228 47 c 132,-1,37
 206 71 206 71 189.5 113.5 c 132,-1,38
 173 156 173 156 169 211 c 4,39,40
 166 242 166 242 166 276 c 4,0,1
EndSplineSet
Validated: 1
EndChar

StartChar: d
Encoding: 100 100 70
Width: 723
GlyphClass: 2
Flags: W
HStem: -17 99<303 420.195> 437 99<277.598 422.54>
VStem: 108 99<160.774 357.889> 500 101<-0.175781 41 157.047 368.232 481 760.089>
LayerCount: 2
Fore
SplineSet
350 536 m 0,0,1
 435 536 435 536 500 481 c 1,2,-1
 500 653 l 2,3,4
 500 660 500 660 499 676 c 128,-1,5
 498 692 498 692 498 700 c 0,6,7
 498 769 498 769 550 769 c 0,8,9
 568 769 568 769 583 757.5 c 128,-1,10
 598 746 598 746 600 726 c 0,11,12
 603 706 603 706 603 666 c 0,13,14
 603 648 603 648 602 613 c 128,-1,15
 601 578 601 578 601 562 c 2,16,-1
 601 89 l 2,17,18
 601 84 601 84 601.5 72 c 128,-1,19
 602 60 602 60 602 54 c 0,20,21
 602 -13 602 -13 555 -13 c 0,22,23
 535 -13 535 -13 518 2.5 c 128,-1,24
 501 18 501 18 500 41 c 1,25,26
 433 -17 433 -17 352 -17 c 1,27,-1
 303 -12 l 1,28,29
 210 6 210 6 159 83.5 c 128,-1,30
 108 161 108 161 108 259 c 0,31,32
 108 376 108 376 175.5 456 c 128,-1,33
 243 536 243 536 350 536 c 0,0,1
347 437 m 0,34,35
 285 437 285 437 246 385.5 c 128,-1,36
 207 334 207 334 207 260 c 0,37,38
 207 188 207 188 244 135 c 128,-1,39
 281 82 281 82 346 82 c 0,40,41
 400 82 400 82 444 120 c 128,-1,42
 488 158 488 158 499 197 c 0,43,44
 502 209 502 209 502 224 c 0,45,46
 502 232 502 232 501 247.5 c 128,-1,47
 500 263 500 263 500 270 c 0,48,49
 500 275 500 275 501 287.5 c 128,-1,50
 502 300 502 300 502 306 c 0,51,52
 502 355 502 355 451 396 c 128,-1,53
 400 437 400 437 347 437 c 0,34,35
EndSplineSet
Validated: 1
EndChar

StartChar: e
Encoding: 101 101 71
Width: 723
GlyphClass: 2
Flags: W
HStem: -18 102<300.982 456.056> 233 100<235 491> 444 100<296.933 445.948>
VStem: 125 105<158.689 233 333 377.125>
LayerCount: 2
Fore
SplineSet
598 294 m 4,0,1
 598 259 598 259 580.5 245.5 c 132,-1,2
 563 232 563 232 528 232 c 4,3,4
 521 232 521 232 508 232.5 c 132,-1,5
 495 233 495 233 489 233 c 6,6,-1
 230 233 l 5,7,8
 235 166 235 166 276.5 125 c 132,-1,9
 318 84 318 84 381 84 c 4,10,11
 420 84 420 84 453.5 104 c 132,-1,12
 487 124 487 124 503 124 c 4,13,14
 520 124 520 124 532 107.5 c 132,-1,15
 544 91 544 91 544 74 c 4,16,17
 544 41 544 41 497.5 11.5 c 132,-1,18
 451 -18 451 -18 379 -18 c 4,19,20
 297 -18 297 -18 237.5 25.5 c 132,-1,21
 178 69 178 69 151.5 132.5 c 132,-1,22
 125 196 125 196 125 269 c 4,23,24
 125 387 125 387 192 465.5 c 132,-1,25
 259 544 259 544 366 544 c 4,26,27
 446 544 446 544 508.5 495.5 c 132,-1,28
 571 447 571 447 587 367 c 4,29,30
 598 312 598 312 598 294 c 4,0,1
491 333 m 5,31,32
 488 348 488 348 485 358.5 c 132,-1,33
 482 369 482 369 473.5 387 c 132,-1,34
 465 405 465 405 453.5 416 c 132,-1,35
 442 427 442 427 421 435.5 c 132,-1,36
 400 444 400 444 373 444 c 4,37,38
 323 444 323 444 282.5 413 c 132,-1,39
 242 382 242 382 235 333 c 5,40,-1
 491 333 l 5,31,32
EndSplineSet
Validated: 1
EndChar

StartChar: f
Encoding: 102 102 72
Width: 723
GlyphClass: 2
Flags: W
HStem: 427 109<159.36 306 406 564.188> 661.5 106.5<431.507 559.225>
VStem: 305 100<1.60449 245.965 250.49 431 531 634.158>
LayerCount: 2
Fore
SplineSet
147 481 m 128,-1,1
 147 535 147 535 228 535 c 0,2,3
 242 535 242 535 269 533 c 128,-1,4
 296 531 296 531 306 531 c 1,5,6
 305 541 305 541 305 560 c 0,7,8
 305 699 305 699 406 743 c 0,9,10
 461 768 461 768 511 768 c 0,11,12
 573 768 573 768 573 714 c 0,13,14
 573 688 573 688 549.5 677.5 c 128,-1,15
 526 667 526 667 490.5 661.5 c 128,-1,16
 455 656 455 656 442 648 c 0,17,18
 405 625 405 625 405 567 c 0,19,20
 405 561 405 561 405.5 549 c 128,-1,21
 406 537 406 537 406 531 c 1,22,23
 417 531 417 531 447.5 533.5 c 128,-1,24
 478 536 478 536 494 536 c 0,25,26
 576 536 576 536 576 481 c 0,27,28
 576 427 576 427 492 427 c 0,29,30
 476 427 476 427 446 429 c 128,-1,31
 416 431 416 431 406 431 c 1,32,33
 412 359 412 359 412 247 c 0,34,35
 412 214 412 214 411.5 166 c 128,-1,36
 411 118 411 118 411 72 c 0,37,38
 411 55 411 55 410 43 c 128,-1,39
 409 31 409 31 405 16 c 128,-1,40
 401 1 401 1 391 -6.5 c 128,-1,41
 381 -14 381 -14 365 -14 c 0,42,43
 310 -14 310 -14 310 62 c 0,44,45
 310 68 310 68 310.5 78.5 c 128,-1,46
 311 89 311 89 311 94 c 0,47,48
 311 151 311 151 308.5 263 c 128,-1,49
 306 375 306 375 306 431 c 1,50,51
 296 431 296 431 269.5 429 c 128,-1,52
 243 427 243 427 229 427 c 0,53,0
 147 427 147 427 147 481 c 128,-1,1
EndSplineSet
Validated: 1
EndChar

StartChar: g
Encoding: 103 103 73
Width: 723
GlyphClass: 2
Flags: W
HStem: -191 100<260.702 447.319> 20 100<266.46 403.318> 437 100<270.263 414.562>
VStem: 111 101<184.054 373.062> 487 100<-52.0537 75 193.803 361.125>
LayerCount: 2
Fore
SplineSet
356 -91 m 0,0,1
 428 -91 428 -91 458 -60.5 c 128,-1,2
 488 -30 488 -30 488 26 c 0,3,4
 488 34 488 34 487.5 50 c 128,-1,5
 487 66 487 66 487 75 c 1,6,7
 417 20 417 20 331 20 c 0,8,9
 224 20 224 20 167.5 95.5 c 128,-1,10
 111 171 111 171 111 275 c 0,11,12
 111 308 111 308 117 340.5 c 128,-1,13
 123 373 123 373 140 409.5 c 128,-1,14
 157 446 157 446 183 473.5 c 128,-1,15
 209 501 209 501 252 519 c 128,-1,16
 295 537 295 537 350 537 c 0,17,18
 388 537 388 537 417.5 526 c 128,-1,19
 447 515 447 515 487 490 c 1,20,21
 491 509 491 509 507 521.5 c 128,-1,22
 523 534 523 534 541 534 c 0,23,24
 592 534 592 534 592 444 c 0,25,26
 592 427 592 427 589.5 394 c 128,-1,27
 587 361 587 361 587 348 c 2,28,-1
 587 86 l 2,29,30
 587 52 587 52 587.5 24.5 c 0,31,32
 587.536 22.5357 587.536 22.5357 587.536 20.5536 c 0,33,34
 587.536 -5.21428 587.536 -5.21428 581.5 -34 c 0,35,36
 575 -65 575 -65 561 -92 c 0,37,38
 506 -191 506 -191 354 -191 c 0,39,40
 309 -191 309 -191 261 -181 c 0,41,42
 224 -173 224 -173 188 -145 c 128,-1,43
 152 -117 152 -117 152 -82 c 0,44,45
 152 -60 152 -60 166 -45 c 128,-1,46
 180 -30 180 -30 202 -30 c 0,47,48
 226 -30 226 -30 246.5 -54.5 c 128,-1,49
 267 -79 267 -79 281 -82 c 0,50,51
 319 -91 319 -91 356 -91 c 0,0,1
341 437 m 0,52,53
 283 437 283 437 247.5 393.5 c 128,-1,54
 212 350 212 350 212 280 c 0,55,56
 212 215 212 215 243.5 167.5 c 128,-1,57
 275 120 275 120 330 120 c 0,58,59
 381 120 381 120 435.5 163 c 128,-1,60
 490 206 490 206 490 273 c 0,61,62
 490 337 490 337 446.5 387 c 128,-1,63
 403 437 403 437 341 437 c 0,52,53
EndSplineSet
Validated: 1
EndChar

StartChar: h
Encoding: 104 104 74
Width: 723
GlyphClass: 2
Flags: W
HStem: 437 99<330.011 442.995> 750 20G<189.5 230.5>
VStem: 155 100<-3.96582 361.868 487 744.648> 466 101<-0.554932 413.375>
LayerCount: 2
Fore
SplineSet
204 770 m 0,0,1
 257 770 257 770 257 702 c 0,2,3
 257 693 257 693 256 677 c 128,-1,4
 255 661 255 661 255 654 c 2,5,-1
 255 487 l 1,6,7
 313 536 313 536 390 536 c 0,8,9
 442 536 442 536 485 510 c 128,-1,10
 528 484 528 484 549 434 c 0,11,12
 570 382 570 382 570 298 c 0,13,14
 570 278 570 278 568.5 238.5 c 128,-1,15
 567 199 567 199 567 181 c 2,16,-1
 567 58 l 2,17,18
 567 13 567 13 549 -1 c 0,19,20
 534 -13 534 -13 517 -13 c 0,21,22
 497 -13 497 -13 482.5 2 c 128,-1,23
 468 17 468 17 467 39 c 0,24,25
 466 71 466 71 466 136 c 0,26,27
 466 168 466 168 466.5 233 c 128,-1,28
 467 298 467 298 467 331 c 0,29,30
 465 437 465 437 391 437 c 0,31,32
 346 437 346 437 304.5 394 c 128,-1,33
 263 351 263 351 257 325 c 1,34,35
 253 313 253 313 253 295 c 0,36,37
 253 287 253 287 254 272 c 128,-1,38
 255 257 255 257 255 250 c 2,39,-1
 255 97 l 2,40,41
 255 92 255 92 255.5 80.5 c 128,-1,42
 256 69 256 69 256 63 c 0,43,44
 256 -13 256 -13 205 -13 c 0,45,46
 188 -13 188 -13 174 -2 c 128,-1,47
 160 9 160 9 156 25 c 0,48,49
 150 52 150 52 150 83 c 0,50,51
 150 102 150 102 152.5 140 c 128,-1,52
 155 178 155 178 155 195 c 2,53,-1
 155 690 l 2,54,55
 155 734 155 734 162 745 c 1,56,57
 175 770 175 770 204 770 c 0,0,1
EndSplineSet
Validated: 1
EndChar

StartChar: i
Encoding: 105 105 75
Width: 723
GlyphClass: 2
Flags: W
HStem: 418 108<194.038 361> 623 150<328.729 447.917>
VStem: 313 154<638.729 755.464> 358 105<-2.70117 423>
LayerCount: 2
Fore
SplineSet
313 694 m 4,0,1
 313 721 313 721 321 738.5 c 132,-1,2
 329 756 329 756 342.5 762.5 c 132,-1,3
 356 769 356 769 366.5 771 c 132,-1,4
 377 773 377 773 390 773 c 4,5,6
 430 773 430 773 448.5 756 c 132,-1,7
 467 739 467 739 467 702 c 4,8,9
 467 675 467 675 459.5 658 c 132,-1,10
 452 641 452 641 438 634 c 132,-1,11
 424 627 424 627 413.5 625 c 132,-1,12
 403 623 403 623 389 623 c 4,13,14
 313 623 313 623 313 694 c 4,0,1
411 -12 m 4,15,16
 358 -12 358 -12 358 58 c 4,17,18
 358 69 358 69 359.5 90 c 132,-1,19
 361 111 361 111 361 120 c 6,20,-1
 361 423 l 5,21,22
 348 423 348 423 316.5 420.5 c 132,-1,23
 285 418 285 418 268 418 c 4,24,25
 181 418 181 418 181 474 c 4,26,27
 181 526 181 526 260 526 c 4,28,29
 274 526 274 526 297 524.5 c 132,-1,30
 320 523 320 523 327 523 c 132,-1,31
 334 523 334 523 354 524 c 132,-1,32
 374 525 374 525 385 525 c 4,33,34
 428 525 428 525 446 509 c 132,-1,35
 464 493 464 493 464 450 c 4,36,37
 464 439 464 439 462.5 419 c 132,-1,38
 461 399 461 399 461 392 c 6,39,-1
 461 114 l 6,40,41
 461 107 461 107 462 88.5 c 132,-1,42
 463 70 463 70 463 60 c 4,43,44
 463 -12 463 -12 411 -12 c 4,15,16
EndSplineSet
Validated: 1
EndChar

StartChar: j
Encoding: 106 106 76
Width: 723
GlyphClass: 2
Flags: W
HStem: -181 103.5<164.923 328.438> 423 103<218.547 352> 623 150<329.699 449.861>
VStem: 313 154<641.066 756.779> 352 100<-54.5381 423>
LayerCount: 2
Fore
SplineSet
389 623 m 0,0,1
 313 623 313 623 313 694 c 0,2,3
 313 721 313 721 324 742.5 c 128,-1,4
 335 764 335 764 355 769 c 0,5,6
 375 773 375 773 390 773 c 0,7,8
 467 773 467 773 467 700 c 0,9,10
 467 623 467 623 389 623 c 0,0,1
266 -78 m 0,11,12
 310 -78 310 -78 332 -53 c 128,-1,13
 354 -28 354 -28 354 40 c 0,14,15
 354 54 354 54 353 79.5 c 128,-1,16
 352 105 352 105 352 117 c 2,17,-1
 352 423 l 1,18,19
 343 423 343 423 319.5 421.5 c 128,-1,20
 296 420 296 420 283 420 c 0,21,22
 208 420 208 420 208 473 c 0,23,24
 208 523 208 523 274 523 c 0,25,26
 287 523 287 523 316.5 524.5 c 128,-1,27
 346 526 346 526 361 526 c 0,28,29
 417 526 417 526 437 508 c 128,-1,30
 457 490 457 490 457 435 c 0,31,32
 457 418 457 418 454.5 386 c 128,-1,33
 452 354 452 354 452 342 c 2,34,-1
 452 72 l 2,35,36
 452 54 452 54 452 37 c 128,-1,37
 452 20 452 20 451 2 c 128,-1,38
 450 -16 450 -16 447 -32.5 c 128,-1,39
 444 -49 444 -49 438 -66 c 128,-1,40
 432 -83 432 -83 423 -98 c 0,41,42
 369 -181 369 -181 260 -181 c 0,43,44
 249 -181 249 -181 227 -179 c 1,45,46
 212 -176 212 -176 195 -175.5 c 128,-1,47
 178 -175 178 -175 164.5 -163.5 c 128,-1,48
 151 -152 151 -152 151 -129 c 0,49,50
 151 -77 151 -77 221 -77 c 0,51,52
 229 -77 229 -77 244 -77.5 c 128,-1,53
 259 -78 259 -78 266 -78 c 0,11,12
EndSplineSet
Validated: 1
EndChar

StartChar: k
Encoding: 107 107 77
Width: 723
GlyphClass: 2
Flags: W
HStem: 514 20G<493.5 514>
VStem: 172 100<8.38354 245 345 744.244> 180 93<-4.47607 244.891 673.525 760.455>
LayerCount: 2
Fore
SplineSet
222 769 m 0,0,1
 245 769 245 769 257 755 c 128,-1,2
 269 741 269 741 271.5 725 c 128,-1,3
 274 709 274 709 274 682 c 0,4,5
 274 668 274 668 273 641 c 128,-1,6
 272 614 272 614 272 601 c 2,7,-1
 272 345 l 1,8,9
 296 362 296 362 321 383.5 c 128,-1,10
 346 405 346 405 377.5 436 c 128,-1,11
 409 467 409 467 422 479 c 1,12,13
 437 496 437 496 460 515 c 128,-1,14
 483 534 483 534 504 534 c 0,15,16
 524 534 524 534 538.5 518.5 c 128,-1,17
 553 503 553 503 553 483 c 0,18,19
 553 461 553 461 529.5 437 c 128,-1,20
 506 413 506 413 481 394 c 0,21,22
 472 386 472 386 431.5 347.5 c 128,-1,23
 391 309 391 309 367 292 c 1,24,-1
 367 289 l 1,25,26
 380 280 380 280 392.5 267 c 128,-1,27
 405 254 405 254 419.5 236.5 c 128,-1,28
 434 219 434 219 442 211 c 0,29,30
 460 192 460 192 493 159 c 128,-1,31
 526 126 526 126 541.5 110 c 128,-1,32
 557 94 557 94 570.5 73 c 128,-1,33
 584 52 584 52 584 37 c 0,34,35
 584 16 584 16 570.5 1.5 c 128,-1,36
 557 -13 557 -13 535 -13 c 0,37,38
 523 -13 523 -13 510.5 -6 c 128,-1,39
 498 1 498 1 491 8.5 c 128,-1,40
 484 16 484 16 472.5 29 c 128,-1,41
 461 42 461 42 456 47 c 0,42,43
 353 152 353 152 272 245 c 1,44,-1
 272 94 l 2,45,46
 272 88 272 88 272.5 74 c 128,-1,47
 273 60 273 60 273 53 c 0,48,49
 273 -13 273 -13 221 -13 c 0,50,51
 195 -13 195 -13 180 8 c 0,52,53
 172 20 172 20 172 67 c 2,54,-1
 172 562 l 2,55,56
 172 578 172 578 169.5 615.5 c 128,-1,57
 167 653 167 653 167 672 c 0,58,59
 167 721 167 721 179 745 c 128,-1,60
 191 769 191 769 222 769 c 0,0,1
EndSplineSet
Validated: 1
EndChar

StartChar: l
Encoding: 108 108 78
Width: 723
GlyphClass: 2
Flags: W
HStem: -10 105<380 535.978> 751 20G<302.5 336>
VStem: 248 103<124.077 456.559> 256 97<258.231 644.707>
LayerCount: 2
Fore
SplineSet
553 43 m 0,0,1
 553 -10 553 -10 479 -10 c 0,2,3
 404 -10 404 -10 353 12 c 1,4,5
 248 61 248 61 248 251 c 0,6,7
 248 288 248 288 252 350 c 128,-1,8
 256 412 256 412 256 458 c 0,9,10
 256 523 256 523 255 579.5 c 128,-1,11
 254 636 254 636 254 645 c 0,12,13
 254 673 254 673 254.5 686.5 c 128,-1,14
 255 700 255 700 258 720 c 128,-1,15
 261 740 261 740 266.5 748.5 c 128,-1,16
 272 757 272 757 283 764 c 128,-1,17
 294 771 294 771 311 771 c 0,18,19
 361 771 361 771 361 677 c 0,20,21
 361 653 361 653 359 629 c 0,22,23
 353 495 353 495 353 292 c 0,24,25
 353 281 353 281 352 257.5 c 128,-1,26
 351 234 351 234 351 222 c 0,27,28
 351 149 351 149 374 122 c 128,-1,29
 397 95 397 95 442 95 c 0,30,31
 448 95 448 95 460.5 95.5 c 128,-1,32
 473 96 473 96 479 96 c 0,33,34
 520 96 520 96 536.5 80 c 128,-1,35
 553 64 553 64 553 43 c 0,0,1
EndSplineSet
Validated: 1
EndChar

StartChar: m
Encoding: 109 109 79
Width: 723
GlyphClass: 2
Flags: W
HStem: 435 101<246.29 305.786 449.155 506.323>
VStem: 108 103<3.02185 388.875> 311 100<-3.2334 388.24> 512 100<4.4126 432.73>
LayerCount: 2
Fore
SplineSet
208 517 m 1,0,1
 216 517 216 517 236 526.5 c 128,-1,2
 256 536 256 536 280 536 c 0,3,4
 311 536 311 536 339 523 c 128,-1,5
 367 510 367 510 378 487 c 1,6,7
 425 534 425 534 487 534 c 0,8,9
 524 534 524 534 554.5 513 c 128,-1,10
 585 492 585 492 600 451 c 0,11,12
 612 418 612 418 612 334 c 2,13,-1
 612 56 l 2,14,15
 612 17 612 17 599 4 c 1,16,17
 585 -13 585 -13 563 -13 c 0,18,19
 543 -13 543 -13 528 1 c 128,-1,20
 513 15 513 15 512 36 c 0,21,22
 510 70 510 70 510 140 c 0,23,24
 510 162 510 162 511 254 c 128,-1,25
 512 346 512 346 512 369 c 0,26,27
 512 435 512 435 483 435 c 0,28,29
 465 435 465 435 447.5 412 c 128,-1,30
 430 389 430 389 420 356 c 0,31,32
 411 327 411 327 411 247 c 2,33,-1
 411 86 l 2,34,35
 411 -14 411 -14 366 -14 c 0,36,37
 356 -14 356 -14 345 -10 c 0,38,39
 331 -5 331 -5 323 5 c 128,-1,40
 315 15 315 15 313 26.5 c 128,-1,41
 311 38 311 38 310.5 52 c 128,-1,42
 310 66 310 66 311 78 c 1,43,-1
 311 328 l 2,44,45
 311 332 311 332 311.5 346.5 c 128,-1,46
 312 361 312 361 312 370 c 0,47,48
 312 435 312 435 278 435 c 0,49,50
 246 435 246 435 219 353 c 1,51,52
 211 325 211 325 211 234 c 2,53,-1
 211 50 l 2,54,55
 211 25 211 25 195.5 5.5 c 128,-1,56
 180 -14 180 -14 159 -14 c 0,57,58
 139 -14 139 -14 123.5 2.5 c 128,-1,59
 108 19 108 19 108 61 c 0,60,61
 108 72 108 72 109.5 92.5 c 128,-1,62
 111 113 111 113 111 120 c 2,63,-1
 111 403 l 2,64,65
 111 410 111 410 109.5 430 c 128,-1,66
 108 450 108 450 108 460 c 0,67,68
 108 533 108 533 162 533 c 0,69,70
 177 533 177 533 189.5 524.5 c 128,-1,71
 202 516 202 516 208 517 c 1,0,1
EndSplineSet
Validated: 1
EndChar

StartChar: n
Encoding: 110 110 80
Width: 723
GlyphClass: 2
Flags: W
HStem: 436 99<316.588 456.381>
VStem: 125.5 96.5<62.3459 343.845 476 481> 494 103<-0.998398 396.206>
LayerCount: 2
Fore
SplineSet
123 429 m 0,0,1
 123 481 123 481 133 507 c 128,-1,2
 143 533 143 533 172 533 c 0,3,4
 193 533 193 533 210 517 c 128,-1,5
 227 501 227 501 227 476 c 1,6,7
 310 535 310 535 406 535 c 0,8,9
 520 535 520 535 569 442 c 0,10,11
 598 385 598 385 598 282 c 0,12,13
 598 269 598 269 597.5 245 c 128,-1,14
 597 221 597 221 597 209 c 2,15,-1
 597 64 l 2,16,17
 597 52 597 52 597 41 c 128,-1,18
 597 30 597 30 593 18.5 c 128,-1,19
 589 7 589 7 580 -1 c 0,20,21
 566 -12 566 -12 548 -12 c 0,22,23
 529 -12 529 -12 514 0.5 c 128,-1,24
 499 13 499 13 497 33 c 0,25,26
 494 76 494 76 494 120 c 0,27,28
 494 150 494 150 495.5 208.5 c 128,-1,29
 497 267 497 267 497 295 c 0,30,31
 497 436 497 436 389 436 c 0,32,33
 339 436 339 436 289 395 c 128,-1,34
 239 354 239 354 228 306 c 0,35,36
 222 276 222 276 222 242 c 0,37,38
 222 221 222 221 224.5 180 c 128,-1,39
 227 139 227 139 227 120 c 0,40,41
 227 113 227 113 228 93 c 128,-1,42
 229 73 229 73 229 62 c 0,43,44
 229 -12 229 -12 178 -12 c 0,45,46
 159 -12 159 -12 144 0.5 c 128,-1,47
 129 13 129 13 127 33 c 0,48,49
 124 80 124 80 124 127 c 0,50,51
 124 159 124 159 125.5 221.5 c 128,-1,52
 127 284 127 284 127 314 c 0,53,54
 127 332 127 332 125 371 c 128,-1,55
 123 410 123 410 123 429 c 0,0,1
EndSplineSet
Validated: 1
EndChar

StartChar: o
Encoding: 111 111 81
Width: 723
GlyphClass: 2
Flags: W
HStem: -18 101<284.181 440.474> 442 101<282.183 438.751>
VStem: 109 100<168.584 360.819> 513 102<164.053 357.254>
LayerCount: 2
Fore
SplineSet
109 271 m 4,0,1
 109 390 109 390 181.5 466.5 c 132,-1,2
 254 543 254 543 368 543 c 4,3,4
 478 543 478 543 546.5 455 c 132,-1,5
 615 367 615 367 615 253 c 4,6,7
 615 134 615 134 541.5 58 c 132,-1,8
 468 -18 468 -18 355 -18 c 4,9,10
 245 -18 245 -18 177 69 c 132,-1,11
 109 156 109 156 109 271 c 4,0,1
363 442 m 4,12,13
 289 442 289 442 249 390 c 132,-1,14
 209 338 209 338 209 266 c 4,15,16
 209 192 209 192 249.5 137.5 c 132,-1,17
 290 83 290 83 360 83 c 4,18,19
 434 83 434 83 473.5 135.5 c 132,-1,20
 513 188 513 188 513 259 c 4,21,22
 513 333 513 333 473 387.5 c 132,-1,23
 433 442 433 442 363 442 c 4,12,13
EndSplineSet
Validated: 1
EndChar

StartChar: p
Encoding: 112 112 82
Width: 723
GlyphClass: 2
Flags: W
HStem: -183 21G<145 181.5> -17 100<302.428 444.98> 437 100<300.718 448.044>
VStem: 122 100<-169.588 41 161 363.76 481 508.586> 129 93<481 522.133> 515 101<163.07 358.457>
LayerCount: 2
Fore
SplineSet
172 -183 m 0,0,1
 118 -183 118 -183 118 -96 c 0,2,3
 118 -79 118 -79 120 -47 c 128,-1,4
 122 -15 122 -15 122 -3 c 2,5,-1
 122 450 l 2,6,7
 122 496 122 496 129 509 c 0,8,9
 142 534 142 534 168 534 c 0,10,11
 188 534 188 534 204.5 518.5 c 128,-1,12
 221 503 221 503 222 481 c 1,13,14
 304 537 304 537 372 537 c 0,15,16
 480 537 480 537 548 455.5 c 128,-1,17
 616 374 616 374 616 254 c 0,18,19
 616 125 616 125 539 47 c 0,20,21
 508 15 508 15 461 -1 c 128,-1,22
 414 -17 414 -17 371 -17 c 0,23,24
 290 -17 290 -17 222 41 c 1,25,-1
 222 -89 l 2,26,27
 222 -94 222 -94 222.5 -105 c 128,-1,28
 223 -116 223 -116 223 -122 c 0,29,30
 223 -157 223 -157 207 -170 c 128,-1,31
 191 -183 191 -183 172 -183 c 0,0,1
378 437 m 0,32,33
 318 437 318 437 269.5 392.5 c 128,-1,34
 221 348 221 348 221 294 c 0,35,36
 221 287 221 287 221.5 274 c 128,-1,37
 222 261 222 261 222 255 c 0,38,39
 222 250 222 250 221.5 241 c 128,-1,40
 221 232 221 232 221 227 c 0,41,42
 221 179 221 179 269.5 131 c 128,-1,43
 318 83 318 83 375 83 c 0,44,45
 437 83 437 83 476 134.5 c 128,-1,46
 515 186 515 186 515 261 c 0,47,48
 515 332 515 332 478.5 384.5 c 128,-1,49
 442 437 442 437 378 437 c 0,32,33
EndSplineSet
Validated: 1
EndChar

StartChar: q
Encoding: 113 113 83
Width: 723
GlyphClass: 2
Flags: W
HStem: -183 21G<524.5 577.5> -17 99<273.11 421.653> 437 100<280.476 381>
VStem: 108 99<160.574 358.84> 500 105<-170.344 39 156.506 367.4 481 508.555> 500 94<481 522.133>
LayerCount: 2
Fore
SplineSet
550 -183 m 0,0,1
 499 -183 499 -183 499 -117 c 0,2,3
 499 -112 499 -112 499.5 -103 c 128,-1,4
 500 -94 500 -94 500 -89 c 2,5,-1
 500 39 l 1,6,7
 431 -17 431 -17 351 -17 c 0,8,9
 243 -17 243 -17 175.5 62.5 c 128,-1,10
 108 142 108 142 108 260 c 128,-1,11
 108 378 108 378 176.5 457.5 c 128,-1,12
 245 537 245 537 353 537 c 1,13,-1
 381 534 l 1,14,15
 439 525 439 525 500 481 c 1,16,17
 501 503 501 503 517.5 518.5 c 128,-1,18
 534 534 534 534 554 534 c 0,19,20
 580 534 580 534 594 509 c 0,21,22
 601 495 601 495 601 450 c 2,23,-1
 601 -3 l 2,24,25
 601 -15 601 -15 603 -46 c 128,-1,26
 605 -77 605 -77 605 -93 c 0,27,28
 605 -183 605 -183 550 -183 c 0,0,1
347 437 m 0,29,30
 291 437 291 437 249 388.5 c 128,-1,31
 207 340 207 340 207 259 c 0,32,33
 207 187 207 187 243.5 134.5 c 128,-1,34
 280 82 280 82 345 82 c 0,35,36
 405 82 405 82 453.5 128.5 c 128,-1,37
 502 175 502 175 502 226 c 0,38,39
 502 233 502 233 501 248 c 128,-1,40
 500 263 500 263 500 269 c 0,41,42
 500 274 500 274 501 286 c 128,-1,43
 502 298 502 298 502 304 c 0,44,45
 502 352 502 352 451.5 394.5 c 128,-1,46
 401 437 401 437 347 437 c 0,29,30
EndSplineSet
Validated: 1
EndChar

StartChar: r
Encoding: 114 114 84
Width: 723
GlyphClass: 2
Flags: W
HStem: 437 99<379 484.657>
VStem: 203 101<-2.31372 337.646> 496 99<362.923 423.077>
LayerCount: 2
Fore
SplineSet
200 456 m 0,0,1
 200 533 200 533 250 533 c 0,2,3
 269 533 269 533 284.5 520 c 128,-1,4
 300 507 300 507 303 487 c 1,5,6
 365 536 365 536 448 536 c 0,7,8
 492 536 492 536 523.5 519.5 c 128,-1,9
 555 503 555 503 569 479 c 128,-1,10
 583 455 583 455 589 435 c 128,-1,11
 595 415 595 415 595 400 c 0,12,13
 595 379 595 379 579.5 364 c 128,-1,14
 564 349 564 349 543 349 c 0,15,16
 520 349 520 349 509 362.5 c 128,-1,17
 498 376 498 376 496 393 c 128,-1,18
 494 410 494 410 482 423.5 c 128,-1,19
 470 437 470 437 444 437 c 0,20,21
 426 437 426 437 410 432 c 128,-1,22
 394 427 394 427 383.5 419 c 128,-1,23
 373 411 373 411 363 401 c 128,-1,24
 353 391 353 391 347.5 381 c 128,-1,25
 342 371 342 371 337 362.5 c 128,-1,26
 332 354 332 354 330 348 c 0,27,28
 304 294 304 294 304 214 c 0,29,30
 304 195 304 195 305.5 156.5 c 128,-1,31
 307 118 307 118 307 98 c 0,32,33
 307 57 307 57 302 28 c 0,34,35
 298 10 298 10 284 -1 c 128,-1,36
 270 -12 270 -12 252 -12 c 0,37,38
 200 -12 200 -12 200 63 c 0,39,40
 200 75 200 75 201.5 95 c 128,-1,41
 203 115 203 115 203 122 c 2,42,-1
 203 387 l 2,43,44
 203 396 203 396 201.5 420 c 128,-1,45
 200 444 200 444 200 456 c 0,0,1
EndSplineSet
Validated: 1
EndChar

StartChar: s
Encoding: 115 115 85
Width: 723
GlyphClass: 2
Flags: W
HStem: -17 99<265.044 448.532> 445 99<281.62 442.844>
VStem: 158 100<348.509 426.499> 478 100<109.016 180.8>
LayerCount: 2
Fore
SplineSet
348 82 m 0,0,1
 377 82 377 82 404 87 c 128,-1,2
 431 92 431 92 454.5 107.5 c 128,-1,3
 478 123 478 123 478 147 c 0,4,5
 478 177 478 177 431 192.5 c 128,-1,6
 384 208 384 208 314.5 225 c 128,-1,7
 245 242 245 242 210 271 c 0,8,9
 158 314 158 314 158 385 c 0,10,11
 158 468 158 468 224 511 c 0,12,13
 276 544 276 544 367 544 c 0,14,15
 456 544 456 544 506 505 c 128,-1,16
 556 466 556 466 556 420 c 0,17,18
 556 399 556 399 541.5 385.5 c 128,-1,19
 527 372 527 372 506 372 c 0,20,21
 488 372 488 372 478 379.5 c 128,-1,22
 468 387 468 387 462 397.5 c 128,-1,23
 456 408 456 408 447.5 419 c 128,-1,24
 439 430 439 430 416.5 437.5 c 128,-1,25
 394 445 394 445 358 445 c 0,26,27
 317 445 317 445 287.5 431 c 128,-1,28
 258 417 258 417 258 386 c 0,29,30
 258 358 258 358 291 341 c 128,-1,31
 324 324 324 324 371 314 c 128,-1,32
 418 304 418 304 465 289.5 c 128,-1,33
 512 275 512 275 545 240.5 c 128,-1,34
 578 206 578 206 578 152 c 0,35,36
 578 123 578 123 568 96.5 c 128,-1,37
 558 70 558 70 534.5 43 c 128,-1,38
 511 16 511 16 462.5 -0.5 c 128,-1,39
 414 -17 414 -17 347 -17 c 0,40,41
 253 -17 253 -17 202 22 c 128,-1,42
 151 61 151 61 151 101 c 0,43,44
 151 120 151 120 166 133 c 128,-1,45
 181 146 181 146 200 146 c 128,-1,46
 219 146 219 146 232.5 136 c 128,-1,47
 246 126 246 126 254 114 c 128,-1,48
 262 102 262 102 286 92 c 128,-1,49
 310 82 310 82 348 82 c 0,0,1
EndSplineSet
Validated: 1
EndChar

StartChar: t
Encoding: 116 116 86
Width: 723
GlyphClass: 2
Flags: W
HStem: -14 99<362.952 506.146> 12 93<460.734 535.045> 425 101<135.395 248.844 355 529.554>
VStem: 249 101<102.022 425> 254 104<530.159 665.624>
LayerCount: 2
Fore
SplineSet
550 56 m 0,0,1
 549 29 549 29 520 12 c 128,-1,2
 491 -5 491 -5 463 -9.5 c 128,-1,3
 435 -14 435 -14 411 -14 c 0,4,5
 377 -14 377 -14 350 -5 c 128,-1,6
 323 4 323 4 306.5 16 c 128,-1,7
 290 28 290 28 278 48.5 c 128,-1,8
 266 69 266 69 260.5 84 c 128,-1,9
 255 99 255 99 252 123.5 c 128,-1,10
 249 148 249 148 249 157.5 c 128,-1,11
 249 167 249 167 249 186 c 2,12,-1
 249 425 l 1,13,14
 242 425 242 425 225 424 c 128,-1,15
 208 423 208 423 199 423 c 0,16,17
 127 423 127 423 127 476 c 0,18,19
 127 527 127 527 192 527 c 0,20,21
 196 527 196 527 205 526.5 c 128,-1,22
 214 526 214 526 219 526 c 0,23,24
 221 526 221 526 226 525.5 c 128,-1,25
 231 525 231 525 234 525 c 0,26,27
 245 525 245 525 250.5 530 c 128,-1,28
 256 535 256 535 256 551 c 0,29,30
 256 554 256 554 255.5 559.5 c 128,-1,31
 255 565 255 565 255 567 c 0,32,33
 255 573 255 573 254.5 587 c 128,-1,34
 254 601 254 601 254 608 c 0,35,36
 254 676 254 676 305 676 c 0,37,38
 358 676 358 676 358 596 c 0,39,40
 358 583 358 583 356.5 559 c 128,-1,41
 355 535 355 535 355 526 c 1,42,-1
 464 526 l 2,43,44
 508 526 508 526 519 522 c 0,45,46
 550 508 550 508 550 475 c 0,47,48
 550 451 550 451 530 436 c 0,49,50
 516 425 516 425 469 425 c 2,51,-1
 350 425 l 1,52,-1
 350 203 l 2,53,54
 350 197 350 197 349 182.5 c 128,-1,55
 348 168 348 168 348 160 c 0,56,57
 348 118 348 118 365 101.5 c 128,-1,58
 382 85 382 85 405 85 c 0,59,60
 421 85 421 85 453 95 c 128,-1,61
 485 105 485 105 500 105 c 0,62,63
 521 105 521 105 535.5 91.5 c 128,-1,64
 550 78 550 78 550 56 c 0,0,1
EndSplineSet
Validated: 1
EndChar

StartChar: u
Encoding: 117 117 87
Width: 723
GlyphClass: 2
Flags: W
HStem: -17 100<265.745 408.407> 515 20G<167.5 185.5 520.5 555.5>
VStem: 128 100.5<122.478 521.427> 498 94<-0.183594 43.5535 394.469 525.773>
LayerCount: 2
Fore
SplineSet
602 90 m 4,0,1
 602 38 602 38 592 13 c 132,-1,2
 582 -12 582 -12 553 -12 c 4,3,4
 532 -12 532 -12 515 4 c 132,-1,5
 498 20 498 20 498 44 c 5,6,7
 454 12 454 12 420.5 -2.5 c 132,-1,8
 387 -17 387 -17 337 -17 c 4,9,10
 277 -17 277 -17 226.5 10.5 c 132,-1,11
 176 38 176 38 151 89 c 132,-1,12
 126 140 126 140 126 224 c 4,13,14
 126 239 126 239 127 269.5 c 132,-1,15
 128 300 128 300 128 314 c 6,16,-1
 128 461 l 6,17,18
 128 473 128 473 128 484 c 132,-1,19
 128 495 128 495 132 505.5 c 132,-1,20
 136 516 136 516 145 523 c 4,21,22
 160 535 160 535 175 535 c 4,23,24
 196 535 196 535 211.5 516 c 132,-1,25
 227 497 227 497 228 473 c 4,26,27
 229 450 229 450 229 405 c 4,28,29
 229 382 229 382 228.5 337 c 132,-1,30
 228 292 228 292 228 270 c 4,31,32
 228 261 228 261 227.5 242.5 c 132,-1,33
 227 224 227 224 227 215 c 4,34,35
 227 83 227 83 337 83 c 4,36,37
 390 83 390 83 436.5 127 c 132,-1,38
 483 171 483 171 496 225 c 5,39,40
 502 255 502 255 502 289 c 4,41,42
 502 308 502 308 500 346 c 132,-1,43
 498 384 498 384 498 400 c 4,44,45
 498 407 498 407 496.5 427 c 132,-1,46
 495 447 495 447 495 459 c 4,47,48
 495 533 495 533 546 533 c 4,49,50
 565 533 565 533 580.5 519.5 c 132,-1,51
 596 506 596 506 598 486 c 4,52,53
 601 440 601 440 601 393 c 4,54,55
 601 361 601 361 599.5 298.5 c 132,-1,56
 598 236 598 236 598 206 c 4,57,58
 598 188 598 188 600 149 c 132,-1,59
 602 110 602 110 602 90 c 4,0,1
EndSplineSet
Validated: 1
EndChar

StartChar: v
Encoding: 118 118 88
Width: 723
GlyphClass: 2
Flags: W
HStem: 514 20G<156.5 174.5 551.5 565>
VStem: 115 100<440.938 519.045>
LayerCount: 2
Fore
SplineSet
115 482 m 0,0,1
 115 505 115 505 130.5 519.5 c 128,-1,2
 146 534 146 534 167 534 c 0,3,4
 182 534 182 534 194 526 c 128,-1,5
 206 518 206 518 215 500 c 128,-1,6
 224 482 224 482 228.5 468.5 c 128,-1,7
 233 455 233 455 240.5 428.5 c 128,-1,8
 248 402 248 402 251 392 c 2,9,-1
 294 273 l 2,10,11
 300 254 300 254 325 188.5 c 128,-1,12
 350 123 350 123 359 86 c 1,13,-1
 364 86 l 1,14,15
 381 157 381 157 431 286 c 128,-1,16
 481 415 481 415 492 448 c 0,17,18
 496 458 496 458 499.5 469.5 c 128,-1,19
 503 481 503 481 508.5 493 c 128,-1,20
 514 505 514 505 520.5 514 c 128,-1,21
 527 523 527 523 536.5 529 c 128,-1,22
 546 535 546 535 557 535 c 0,23,24
 573 535 573 535 590 523.5 c 128,-1,25
 607 512 607 512 607 487 c 0,26,27
 607 470 607 470 598.5 445 c 128,-1,28
 590 420 590 420 584 406 c 2,29,-1
 471 89 l 1,30,31
 459 51 459 51 451 27.5 c 128,-1,32
 443 4 443 4 422.5 -6.5 c 128,-1,33
 402 -17 402 -17 358 -17 c 0,34,35
 330 -17 330 -17 312.5 -12 c 128,-1,36
 295 -7 295 -7 284 8 c 128,-1,37
 273 23 273 23 268.5 33.5 c 128,-1,38
 264 44 264 44 255.5 74 c 128,-1,39
 247 104 247 104 242 120 c 2,40,-1
 152 373 l 2,41,42
 150 377 150 377 138.5 402.5 c 128,-1,43
 127 428 127 428 121 447 c 128,-1,44
 115 466 115 466 115 482 c 0,0,1
EndSplineSet
Validated: 1
EndChar

StartChar: w
Encoding: 119 119 89
Width: 723
GlyphClass: 2
Flags: W
HStem: -17 345<243 348> 513 21G<158 174.5 544.5 567>
VStem: 115 104<302.859 520.59> 506 104<375.349 514.952>
LayerCount: 2
Fore
SplineSet
557 533 m 0,0,1
 577 533 577 533 593.5 519.5 c 128,-1,2
 610 506 610 506 610 473 c 0,3,4
 610 455 610 455 603 420.5 c 128,-1,5
 596 386 596 386 595 375 c 1,6,7
 595.019 375.112 595.019 375.112 595.024 375.112 c 0,8,-1
 595.026 375.094 l 0,9,10
 595.026 372.737 595.026 372.737 559 67 c 1,11,12
 559 55 559 55 556 40 c 128,-1,13
 553 25 553 25 547.5 12 c 128,-1,14
 542 -1 542 -1 526 -9.5 c 128,-1,15
 510 -18 510 -18 485 -18 c 0,16,17
 459 -18 459 -18 437 -7.5 c 128,-1,18
 415 3 415 3 408 22 c 0,19,20
 399 45 399 45 386 97 c 128,-1,21
 373 149 373 149 362 175 c 1,22,23
 359 165 359 165 343 103.5 c 128,-1,24
 327 42 327 42 312 14 c 0,25,26
 296 -17 296 -17 243 -17 c 0,27,28
 186 -17 186 -17 172 19 c 0,29,30
 169 29 169 29 167 42 c 128,-1,31
 165 55 165 55 163.5 73 c 128,-1,32
 162 91 162 91 156.5 138.5 c 128,-1,33
 151 186 151 186 144 245 c 2,34,-1
 124 406 l 2,35,36
 115 475 115 475 115 478 c 0,37,38
 115 508 115 508 132 521 c 128,-1,39
 149 534 149 534 167 534 c 0,40,41
 182 534 182 534 192.5 527.5 c 128,-1,42
 203 521 203 521 207.5 510.5 c 128,-1,43
 212 500 212 500 215.5 488 c 128,-1,44
 219 476 219 476 219 465.5 c 128,-1,45
 219 455 219 455 220 448 c 0,46,47
 222 431 222 431 226.5 395 c 128,-1,48
 231 359 231 359 233 342 c 0,49,50
 234 329 234 329 237 288.5 c 128,-1,51
 240 248 240 248 244 219.5 c 128,-1,52
 248 191 248 191 256 167 c 1,53,54
 257 183 257 183 262 200 c 128,-1,55
 267 217 267 217 274.5 240.5 c 128,-1,56
 282 264 282 264 285 273 c 0,57,58
 292 304 292 304 305.5 316 c 128,-1,59
 319 328 319 328 348 328 c 0,60,61
 401 328 401 328 414.5 318.5 c 128,-1,62
 428 309 428 309 441 264 c 0,63,64
 444 255 444 255 450.5 235 c 128,-1,65
 457 215 457 215 461 199.5 c 128,-1,66
 465 184 465 184 467 170 c 1,67,-1
 470 170 l 1,68,69
 473 203 473 203 486 300.5 c 128,-1,70
 499 398 499 398 503 442 c 1,71,72
 506 457 506 457 506 477.5 c 128,-1,73
 506 498 506 498 519 515.5 c 128,-1,74
 532 533 532 533 557 533 c 0,0,1
EndSplineSet
Validated: 1
EndChar

StartChar: x
Encoding: 120 120 90
Width: 723
GlyphClass: 2
Flags: W
HStem: 513 20G<198.5 220.5 508 525>
VStem: 291 141<228.285 304.334>
LayerCount: 2
Fore
SplineSet
358 183 m 5,0,1
 350 165 350 165 337 146 c 132,-1,2
 324 127 324 127 306.5 104 c 132,-1,3
 289 81 289 81 281 69 c 4,4,5
 262 37 262 37 242 12 c 132,-1,6
 222 -13 222 -13 198 -13 c 4,7,8
 178 -13 178 -13 163 1.5 c 132,-1,9
 148 16 148 16 148 37 c 4,10,11
 148 49 148 49 153 60.5 c 132,-1,12
 158 72 158 72 162 78 c 132,-1,13
 166 84 166 84 179 100 c 5,14,-1
 258 214 l 5,15,16
 291 255 291 255 291 265 c 4,17,18
 291 273 291 273 285 283 c 132,-1,19
 279 293 279 293 269 304.5 c 132,-1,20
 259 316 259 316 257 320 c 4,21,22
 249 332 249 332 227 365.5 c 132,-1,23
 205 399 205 399 192 417 c 4,24,25
 158 462 158 462 158 483 c 132,-1,26
 158 504 158 504 173 518.5 c 132,-1,27
 188 533 188 533 209 533 c 4,28,29
 232 533 232 533 251 510.5 c 132,-1,30
 270 488 270 488 275 476 c 5,31,32
 281 468 281 468 302.5 439 c 132,-1,33
 324 410 324 410 337 389 c 132,-1,34
 350 368 350 368 358 348 c 5,35,-1
 364 348 l 5,36,37
 373 366 373 366 385 384.5 c 132,-1,38
 397 403 397 403 414.5 427 c 132,-1,39
 432 451 432 451 439 462 c 6,40,-1
 450 481 l 6,41,42
 462 500 462 500 468 507.5 c 132,-1,43
 474 515 474 515 487.5 524.5 c 132,-1,44
 501 534 501 534 515 534 c 4,45,46
 535 534 535 534 549.5 519.5 c 132,-1,47
 564 505 564 505 564 484 c 4,48,49
 564 466 564 466 553 448.5 c 132,-1,50
 542 431 542 431 533 420 c 5,51,-1
 465 320 l 6,52,53
 463 318 463 318 453.5 305.5 c 132,-1,54
 444 293 444 293 438 283 c 132,-1,55
 432 273 432 273 432 266 c 132,-1,56
 432 259 432 259 438 249.5 c 132,-1,57
 444 240 444 240 454.5 226.5 c 132,-1,58
 465 213 465 213 468 209 c 6,59,-1
 538 108 l 5,60,61
 547 98 547 98 561.5 76 c 132,-1,62
 576 54 576 54 576 38 c 4,63,64
 576 17 576 17 560.5 2 c 132,-1,65
 545 -13 545 -13 525 -13 c 4,66,67
 510 -13 510 -13 497 -4 c 4,68,69
 466 19 466 19 427 89.5 c 132,-1,70
 388 160 388 160 358 183 c 5,0,1
EndSplineSet
Validated: 1
EndChar

StartChar: y
Encoding: 121 121 91
Width: 723
GlyphClass: 2
Flags: W
HStem: -185 100<134.657 193.715> 513 20G<152 174 546 571.5>
LayerCount: 2
Fore
SplineSet
181 -185 m 4,0,1
 155 -185 155 -185 134 -172.5 c 132,-1,2
 113 -160 113 -160 113 -131 c 4,3,4
 113 -111 113 -111 126 -98 c 4,5,6
 137 -86 137 -86 161 -85 c 132,-1,7
 185 -84 185 -84 194 -77 c 4,8,9
 202 -71 202 -71 223 -31 c 5,10,11
 254 23 254 23 283 77 c 4,12,13
 285 81 285 81 292 92 c 132,-1,14
 299 103 299 103 303.5 112.5 c 132,-1,15
 308 122 308 122 308 129 c 4,16,17
 307 140 307 140 299.5 154.5 c 132,-1,18
 292 169 292 169 278 188 c 132,-1,19
 264 207 264 207 262 211 c 6,20,-1
 157 392 l 5,21,22
 145 408 145 408 128.5 436.5 c 132,-1,23
 112 465 112 465 112 485 c 4,24,25
 112 507 112 507 127 520 c 132,-1,26
 142 533 142 533 162 533 c 4,27,28
 186 533 186 533 202 514 c 132,-1,29
 218 495 218 495 232.5 469.5 c 132,-1,30
 247 444 247 444 264 411.5 c 132,-1,31
 281 379 281 379 290 364 c 4,32,33
 298 351 298 351 315 324.5 c 132,-1,34
 332 298 332 298 344 275.5 c 132,-1,35
 356 253 356 253 364 233 c 5,36,-1
 370 233 l 5,37,38
 375 252 375 252 385.5 272.5 c 132,-1,39
 396 293 396 293 412 319 c 132,-1,40
 428 345 428 345 434 356 c 4,41,42
 478 447 478 447 504 490 c 132,-1,43
 530 533 530 533 562 533 c 4,44,45
 581 533 581 533 595.5 519.5 c 132,-1,46
 610 506 610 506 610 486 c 4,47,48
 610 468 610 468 587 425 c 132,-1,49
 564 382 564 382 532 325 c 6,50,-1
 297 -106 l 6,51,52
 279 -140 279 -140 247.5 -162.5 c 132,-1,53
 216 -185 216 -185 181 -185 c 4,0,1
EndSplineSet
Validated: 1
EndChar

StartChar: z
Encoding: 122 122 92
Width: 723
GlyphClass: 2
Flags: W
HStem: -3 100<281 575.847> 423 100<175.446 434>
LayerCount: 2
Fore
SplineSet
239 -3 m 1,0,1
 227 -2 227 -2 214 -3 c 128,-1,2
 201 -4 201 -4 188.5 -1 c 128,-1,3
 176 2 176 2 166 7.5 c 128,-1,4
 156 13 156 13 150 27 c 128,-1,5
 144 41 144 41 144 61 c 0,6,7
 144 76 144 76 150 91.5 c 128,-1,8
 156 107 156 107 165 119 c 128,-1,9
 174 131 174 131 185.5 144.5 c 128,-1,10
 197 158 197 158 208 169 c 2,11,-1
 434 423 l 1,12,-1
 236 423 l 2,13,14
 189 423 189 423 175 433 c 0,15,16
 156 446 156 446 156 472 c 0,17,18
 156 525 156 525 225 525 c 0,19,20
 233 525 233 525 249 524 c 128,-1,21
 265 523 265 523 272 523 c 2,22,-1
 481 523 l 2,23,24
 501 523 501 523 510 522 c 128,-1,25
 519 521 519 521 534.5 515.5 c 128,-1,26
 550 510 550 510 557 495 c 128,-1,27
 564 480 564 480 564 456 c 0,28,29
 564 435 564 435 554 414 c 128,-1,30
 544 393 544 393 529.5 377 c 128,-1,31
 515 361 515 361 499 342 c 0,32,33
 475 315 475 315 397.5 230.5 c 128,-1,34
 320 146 320 146 281 97 c 1,35,-1
 495 97 l 2,36,37
 500 97 500 97 510 97.5 c 128,-1,38
 520 98 520 98 526 98 c 0,39,40
 544 98 544 98 556.5 92.5 c 128,-1,41
 569 87 569 87 574.5 78 c 128,-1,42
 580 69 580 69 582 61.5 c 128,-1,43
 584 54 584 54 584 47 c 0,44,45
 584 -6 584 -6 515 -6 c 0,46,47
 505 -6 505 -6 486 -4.5 c 128,-1,48
 467 -3 467 -3 459 -3 c 2,49,-1
 239 -3 l 1,0,1
EndSplineSet
Validated: 1
EndChar

StartChar: braceleft
Encoding: 123 123 93
Width: 723
GlyphClass: 2
Flags: W
HStem: -14 101<415.373 593.494> 328 102.5<132.134 178 178 258.693> 338 89<121.034 174.759> 670 103<417.335 600.838>
VStem: 283 96<124.895 291.148 450.411 632.207>
LayerCount: 2
Fore
SplineSet
283 569 m 0,0,1
 283 606 283 606 295 640 c 128,-1,2
 307 674 307 674 333.5 705 c 128,-1,3
 360 736 360 736 409.5 754.5 c 128,-1,4
 459 773 459 773 525 773 c 0,5,6
 611 773 611 773 611 723 c 0,7,8
 611 702 611 702 602 690 c 128,-1,9
 593 678 593 678 578 674 c 0,10,11
 560 670 560 670 546 670 c 0,12,13
 537 670 537 670 528 670 c 0,14,-1
 510 670 l 1,15,16
 430 670 430 670 402 634 c 0,17,18
 380 606 380 606 379 534 c 128,-1,19
 378 462 378 462 372 442 c 0,20,21
 370 437 370 437 354.5 412 c 128,-1,22
 339 387 339 387 339 377 c 0,23,24
 339 370 339 370 347.5 359.5 c 128,-1,25
 356 349 356 349 367 324 c 128,-1,26
 378 299 378 299 383 259 c 0,27,28
 384 250 384 250 384 199 c 0,29,30
 384 136 384 136 414 109 c 0,31,32
 438 87 438 87 480 87 c 0,33,34
 490 87 490 87 509 88.5 c 128,-1,35
 528 90 528 90 537 90 c 0,36,37
 578 90 578 90 594 73.5 c 128,-1,38
 610 57 610 57 610 36 c 0,39,40
 610 -15 610 -15 547 -15 c 0,41,42
 540 -15 540 -15 527.5 -14.5 c 128,-1,43
 515 -14 515 -14 509 -14 c 0,44,45
 451 -14 451 -14 407 1 c 128,-1,46
 363 16 363 16 341.5 38.5 c 128,-1,47
 320 61 320 61 305 88.5 c 128,-1,48
 290 116 290 116 289 140.5 c 128,-1,49
 288 165 288 165 285.5 183 c 128,-1,50
 283 201 283 201 286 206 c 1,51,52
 286 265 286 265 271 292 c 0,53,54
 260 311 260 311 232 320 c 0,55,56
 206 328 206 328 181 328 c 0,57,58
 178 328 178 328 178 328 c 0,59,60
 178 327 178 327 176 327 c 0,61,62
 136 336 136 336 132 338 c 0,63,64
 112 351 112 351 112 378 c 0,65,66
 112 394 112 394 123 408 c 128,-1,67
 134 422 134 422 150 427 c 0,68,69
 161 430 161 430 183 430.5 c 128,-1,70
 205 431 205 431 220 433.5 c 128,-1,71
 235 436 235 436 251 443.5 c 128,-1,72
 267 451 267 451 275.5 471 c 128,-1,73
 284 491 284 491 284 524 c 0,74,75
 284 532 284 532 283.5 547 c 128,-1,76
 283 562 283 562 283 569 c 0,0,1
EndSplineSet
Validated: 1
EndChar

StartChar: bar
Encoding: 124 124 94
Width: 723
GlyphClass: 2
Flags: W
HStem: 751 20G<336 389>
VStem: 307 104.5<-148.484 756.352>
LayerCount: 2
Fore
SplineSet
307 675 m 0,0,1
 307 771 307 771 365 771 c 0,2,3
 413 771 413 771 413 677 c 0,4,5
 413 663 413 663 412 639.5 c 128,-1,6
 411 616 411 616 411 610 c 2,7,-1
 411 42 l 2,8,9
 411 26 411 26 412.5 -9 c 128,-1,10
 414 -44 414 -44 414 -62 c 0,11,12
 414 -93 414 -93 411.5 -111.5 c 128,-1,13
 409 -130 409 -130 396.5 -145.5 c 128,-1,14
 384 -161 384 -161 361 -161 c 0,15,16
 307 -161 307 -161 307 -72 c 0,17,18
 307 -55 307 -55 309 -22.5 c 128,-1,19
 311 10 311 10 311 23 c 2,20,-1
 311 590 l 2,21,22
 311 598 311 598 309 628 c 128,-1,23
 307 658 307 658 307 675 c 0,0,1
EndSplineSet
Validated: 1
EndChar

StartChar: braceright
Encoding: 125 125 95
Width: 723
GlyphClass: 2
Flags: W
HStem: -17 102<126.443 304.512> 326.526 103.474<462.911 589.369> 665 106<130.538 311.256>
VStem: 342 95.429<121.729 301.234 459.851 633.585>
LayerCount: 2
Fore
SplineSet
113 720 m 0,0,1
 113 771 113 771 174 771 c 0,2,3
 181 771 181 771 193.5 770.5 c 128,-1,4
 206 770 206 770 211 770 c 0,5,6
 293 770 293 770 353 736.5 c 128,-1,7
 413 703 413 703 432 629 c 0,8,9
 436 612 436 612 436 544 c 0,10,11
 436 486 436 486 455 459 c 0,12,13
 466 444 466 444 493.5 437.5 c 128,-1,14
 521 431 521 431 546 430 c 128,-1,15
 571 429 571 429 591 417 c 128,-1,16
 611 405 611 405 611 380 c 0,17,18
 611 350 611 350 590 338 c 0,19,20
 569.84 326.48 569.84 326.48 544.15 326.48 c 0,21,22
 543.08 326.48 543.08 326.48 542 326.5 c 0,23,24
 540.579 326.526 540.579 326.526 539.155 326.526 c 0,25,26
 513.526 326.526 513.526 326.526 487 318 c 0,27,28
 459 309 459 309 449 286 c 0,29,30
 443 273 443 273 440 255.5 c 0,31,32
 437.429 240.5 437.429 240.5 437.429 226.235 c 0,33,34
 437.429 223.857 437.429 223.857 437.5 221.5 c 0,35,36
 438 205 438 205 438 185 c 0,37,38
 438 92 438 92 384 42 c 128,-1,39
 330 -8 330 -8 256 -14 c 0,40,41
 214 -17 214 -17 201 -17 c 0,42,43
 112 -17 112 -17 112 34 c 0,44,45
 112 54 112 54 126 70 c 128,-1,46
 140 86 140 86 175 86 c 0,47,48
 182 86 182 86 197 85.5 c 128,-1,49
 212 85 212 85 220 85 c 0,50,51
 291 85 291 85 319 120 c 0,52,53
 341 147 341 147 342 217 c 128,-1,54
 343 287 343 287 349 306 c 0,55,56
 351 315 351 315 367.5 341.5 c 128,-1,57
 384 368 384 368 384 378 c 0,58,59
 384 382 384 382 365 411.5 c 128,-1,60
 346 441 346 441 342 487 c 1,61,-1
 342 539 l 2,62,63
 342 615 342 615 314 642 c 0,64,65
 289 667 289 667 242 667 c 0,66,67
 234 667 234 667 216 666 c 128,-1,68
 198 665 198 665 190 665 c 0,69,70
 147 665 147 665 130 681.5 c 128,-1,71
 113 698 113 698 113 720 c 0,0,1
EndSplineSet
Validated: 1
EndChar

StartChar: asciitilde
Encoding: 126 126 96
Width: 723
GlyphClass: 2
Flags: W
HStem: 534 101<404.715 490.92> 544 21G<169.5 185> 619 101<231.389 315.633> 689 20G<537 552.5>
LayerCount: 2
Fore
SplineSet
127 596 m 0,0,1
 127 639 127 639 169 679.5 c 128,-1,2
 211 720 211 720 267 720 c 0,3,4
 298 720 298 720 328 706.5 c 128,-1,5
 358 693 358 693 377 677.5 c 128,-1,6
 396 662 396 662 417 648.5 c 128,-1,7
 438 635 438 635 455 635 c 0,8,9
 470 635 470 635 482 646.5 c 128,-1,10
 494 658 494 658 500.5 672 c 128,-1,11
 507 686 507 686 518.5 697.5 c 128,-1,12
 530 709 530 709 544 709 c 0,13,14
 561 709 561 709 578 697 c 128,-1,15
 595 685 595 685 595 658 c 0,16,17
 595 613 595 613 553 573.5 c 128,-1,18
 511 534 511 534 456 534 c 0,19,20
 417 534 417 534 380.5 555 c 128,-1,21
 344 576 344 576 315.5 597.5 c 128,-1,22
 287 619 287 619 269 619 c 0,23,24
 253 619 253 619 240.5 607.5 c 128,-1,25
 228 596 228 596 221.5 581.5 c 128,-1,26
 215 567 215 567 203.5 555.5 c 128,-1,27
 192 544 192 544 178 544 c 0,28,29
 161 544 161 544 144 556.5 c 128,-1,30
 127 569 127 569 127 596 c 0,0,1
EndSplineSet
Validated: 1
EndChar

StartChar: dieresis
Encoding: 168 168 97
Width: 723
GlyphClass: 2
Flags: W
HStem: 594 174<228.329 305.029 417.329 494.029>
VStem: 211 109<610.27 741.185> 400 109<609.306 741.185>
LayerCount: 2
Fore
SplineSet
211 681 m 132,-1,1
 211 716 211 716 225 742 c 132,-1,2
 239 768 239 768 268 768 c 4,3,4
 295 768 295 768 307.5 741.5 c 132,-1,5
 320 715 320 715 320 679 c 4,6,7
 320 594 320 594 267 594 c 4,8,9
 240 594 240 594 225.5 620 c 132,-1,0
 211 646 211 646 211 681 c 132,-1,1
400 681 m 132,-1,11
 400 716 400 716 414 742 c 132,-1,12
 428 768 428 768 457 768 c 4,13,14
 484 768 484 768 496.5 742 c 132,-1,15
 509 716 509 716 509 680 c 4,16,17
 509 594 509 594 456 594 c 4,18,19
 429 594 429 594 414.5 620 c 132,-1,10
 400 646 400 646 400 681 c 132,-1,11
EndSplineSet
Validated: 1
EndChar

StartChar: acute
Encoding: 180 180 98
Width: 723
GlyphClass: 2
Flags: W
HStem: 501 184<371.963 402.391>
VStem: 312 153<549 637>
LayerCount: 2
Fore
SplineSet
329 593 m 4,0,1
 333 599 333 599 344 620 c 132,-1,2
 355 641 355 641 362.5 652 c 132,-1,3
 370 663 370 663 384 674 c 132,-1,4
 398 685 398 685 414 685 c 4,5,6
 435 685 435 685 450 671.5 c 132,-1,7
 465 658 465 658 465 637 c 4,8,9
 465 622 465 622 456 603.5 c 132,-1,10
 447 585 447 585 434.5 567.5 c 132,-1,11
 422 550 422 550 407 529 c 5,12,13
 389 501 389 501 364 501 c 4,14,15
 343 501 343 501 327.5 515 c 132,-1,16
 312 529 312 529 312 549 c 4,17,18
 312 566 312 566 329 593 c 4,0,1
EndSplineSet
Validated: 1
EndChar

StartChar: cedilla
Encoding: 184 184 99
Width: 723
GlyphClass: 2
Flags: W
HStem: -335 99<313.926 382.684>
VStem: 299 100<-51.9443 51.5781> 405 101<-223.016 -147.107>
LayerCount: 2
Fore
SplineSet
299 -15 m 4,0,1
 299 61 299 61 350 61 c 4,2,3
 400 61 400 61 400 -6 c 4,4,5
 400 -8 400 -8 399.5 -13 c 132,-1,6
 399 -18 399 -18 399 -21 c 4,7,8
 399 -35 399 -35 407.5 -43 c 132,-1,9
 416 -51 416 -51 428.5 -55 c 132,-1,10
 441 -59 441 -59 458 -75 c 132,-1,11
 475 -91 475 -91 489 -117 c 4,12,13
 506 -149 506 -149 506 -183 c 4,14,15
 506 -243 506 -243 463.5 -289 c 132,-1,16
 421 -335 421 -335 358 -335 c 4,17,18
 327 -335 327 -335 313.5 -319.5 c 132,-1,19
 300 -304 300 -304 300 -284 c 132,-1,20
 300 -264 300 -264 313 -251 c 4,21,22
 324 -240 324 -240 348.5 -236 c 132,-1,23
 373 -232 373 -232 383 -224 c 4,24,25
 405 -206 405 -206 405 -184 c 4,26,27
 405 -159 405 -159 388.5 -148.5 c 132,-1,28
 372 -138 372 -138 352.5 -137 c 132,-1,29
 333 -136 333 -136 316.5 -121.5 c 132,-1,30
 300 -107 300 -107 300 -74 c 4,31,32
 300 -51 300 -51 299.5 -37.5 c 132,-1,33
 299 -24 299 -24 299 -15 c 4,0,1
EndSplineSet
Validated: 1
EndChar

StartChar: dotlessi
Encoding: 305 305 100
Width: 723
GlyphClass: 2
Flags: W
HStem: 418 108<194.038 361>
VStem: 358 105<-2.70117 423>
LayerCount: 2
Fore
SplineSet
411 -12 m 0,0,1
 358 -12 358 -12 358 58 c 0,2,3
 358 69 358 69 359.5 90 c 128,-1,4
 361 111 361 111 361 120 c 2,5,-1
 361 423 l 1,6,7
 348 423 348 423 316.5 420.5 c 128,-1,8
 285 418 285 418 268 418 c 0,9,10
 181 418 181 418 181 474 c 0,11,12
 181 526 181 526 260 526 c 0,13,14
 274 526 274 526 297 524.5 c 128,-1,15
 320 523 320 523 327 523 c 128,-1,16
 334 523 334 523 354 524 c 128,-1,17
 374 525 374 525 385 525 c 0,18,19
 428 525 428 525 446 509 c 128,-1,20
 464 493 464 493 464 450 c 0,21,22
 464 439 464 439 462.5 419 c 128,-1,23
 461 399 461 399 461 392 c 2,24,-1
 461 114 l 2,25,26
 461 107 461 107 462 88.5 c 128,-1,27
 463 70 463 70 463 60 c 0,28,29
 463 -12 463 -12 411 -12 c 0,0,1
EndSplineSet
Validated: 1
EndChar

StartChar: caron
Encoding: 711 711 101
Width: 723
GlyphClass: 2
Flags: W
HStem: 538 21G<349 368>
LayerCount: 2
Fore
SplineSet
562 936 m 0,0,1
 580 936 580 936 595 922 c 128,-1,2
 610 908 610 908 610 890 c 0,3,4
 610 868 610 868 586 832 c 2,5,-1
 439 612 l 2,6,7
 438 610 438 610 427 592 c 128,-1,8
 416 574 416 574 409 565.5 c 128,-1,9
 402 557 402 557 388.5 547.5 c 128,-1,10
 375 538 375 538 361 538 c 0,11,12
 337 538 337 538 317 562.5 c 128,-1,13
 297 587 297 587 288 607 c 1,14,-1
 175 776 l 2,15,16
 171 783 171 783 151 809.5 c 128,-1,17
 131 836 131 836 122 853.5 c 128,-1,18
 113 871 113 871 113 885 c 0,19,20
 113 906 113 906 127.5 921 c 128,-1,21
 142 936 142 936 163 936 c 0,22,23
 186 936 186 936 217 901 c 2,24,-1
 316 793 l 2,25,26
 317 791 317 791 327.5 778 c 128,-1,27
 338 765 338 765 346.5 756.5 c 128,-1,28
 355 748 355 748 361 748 c 0,29,30
 368 748 368 748 376.5 756 c 128,-1,31
 385 764 385 764 395.5 778 c 128,-1,32
 406 792 406 792 407 793 c 0,33,34
 451 848 451 848 492.5 892 c 128,-1,35
 534 936 534 936 562 936 c 0,0,1
EndSplineSet
Validated: 1
EndChar

StartChar: breve
Encoding: 728 728 102
Width: 723
GlyphClass: 2
Flags: W
HStem: 650 101<285.5 436.697>
VStem: 112 104<816.719 920.012> 507 104<819.368 924.589>
LayerCount: 2
Fore
SplineSet
362 650 m 0,0,1
 289 650 289 650 230 688 c 128,-1,2
 171 726 171 726 141.5 778 c 128,-1,3
 112 830 112 830 112 880 c 0,4,5
 112 936 112 936 165 936 c 0,6,7
 188 936 188 936 199 920.5 c 128,-1,8
 210 905 210 905 216 875 c 128,-1,9
 222 845 222 845 226 837 c 0,10,11
 243 801 243 801 280 776 c 128,-1,12
 317 751 317 751 362 751 c 0,13,14
 403 751 403 751 439 774 c 128,-1,15
 475 797 475 797 495 835 c 0,16,17
 499 844 499 844 507 873.5 c 128,-1,18
 515 903 515 903 526 920.5 c 128,-1,19
 537 938 537 938 557 938 c 0,20,21
 575 938 575 938 593 925 c 128,-1,22
 611 912 611 912 611 880 c 0,23,24
 611 802 611 802 539.5 726 c 128,-1,25
 468 650 468 650 362 650 c 0,0,1
EndSplineSet
Validated: 1
EndChar

StartChar: dotaccent
Encoding: 729 729 103
Width: 723
GlyphClass: 2
Flags: W
HStem: 501 184<322.484 398.281>
VStem: 306 110<515.688 669.16>
LayerCount: 2
Fore
SplineSet
306 596 m 0,0,1
 306 685 306 685 361 685 c 0,2,3
 389 685 389 685 402.5 657 c 128,-1,4
 416 629 416 629 416 590 c 0,5,6
 416 501 416 501 360 501 c 0,7,8
 332 501 332 501 319 529 c 128,-1,9
 306 557 306 557 306 596 c 0,0,1
EndSplineSet
Validated: 1
EndChar

StartChar: quoteleft
Encoding: 8216 8216 104
Width: 723
GlyphClass: 2
Flags: W
VStem: 221 269
LayerCount: 2
Fore
SplineSet
387 708 m 0,0,1
 398 686 398 686 469 498 c 0,2,3
 472 493 472 493 478 480 c 0,4,5
 483 468 483 468 486 458 c 0,6,7
 488 448 488 448 490 438 c 0,8,9
 492 425 492 425 488 417 c 0,10,11
 483 407 483 407 474 398 c 0,12,13
 464 388 464 388 446 379 c 0,14,15
 426 369 426 369 416 369 c 0,16,17
 413 369 413 369 410 369 c 0,18,19
 397 367 397 367 382 378 c 0,20,21
 368 389 368 389 359 402 c 0,22,23
 353 412 353 412 340 439 c 0,24,25
 328 465 328 465 325 469 c 0,26,27
 307 497 307 497 285 537 c 0,28,29
 257 589 257 589 246 606 c 0,30,31
 238 618 238 618 230 634 c 0,32,33
 221 652 221 652 221 667 c 0,34,35
 220 676 220 676 224 684 c 0,36,37
 235 705 235 705 260 716 c 0,38,39
 262 717 262 717 273 721 c 0,40,41
 277 722 277 722 286 727 c 0,42,43
 289 729 289 729 297 733 c 0,44,45
 309 739 309 739 309 739 c 0,46,47
 325.187 749.117 325.187 749.117 338.37 748.449 c 0,48,49
 367 747 367 747 387 708 c 0,0,1
EndSplineSet
Validated: 1
EndChar

StartChar: quoteright
Encoding: 8217 8217 105
Width: 723
GlyphClass: 2
Flags: W
VStem: 226 264
LayerCount: 2
Fore
SplineSet
327 709 m 0,0,1
 345 748 345 748 376 748 c 0,2,3
 391 748 391 748 405 741 c 0,4,5
 411 738 411 738 417 734 c 0,6,7
 421 732 421 732 428 729 c 0,8,9
 434 725 434 725 440 723 c 0,10,11
 448 720 448 720 454 717 c 0,12,13
 484 700 484 700 490 686 c 0,14,15
 493 679 493 679 493 670 c 0,16,17
 493 658 493 658 483 636 c 0,18,19
 477 624 477 624 468 608 c 0,20,21
 454 585 454 585 429 539 c 0,22,23
 400 487 400 487 389 470 c 0,24,25
 383 461 383 461 373 440 c 0,26,27
 370 433 370 433 354 404 c 0,28,29
 348 393 348 393 331 380 c 0,30,31
 318 370 318 370 303 370 c 0,32,33
 302 370 302 370 298 371 c 0,34,35
 276 377 276 377 267 381 c 0,36,37
 250 389 250 389 240 399 c 128,-1,38
 230 409 230 409 226 418 c 0,39,40
 223 425 223 425 224 440 c 0,41,42
 225 452 225 452 228 460 c 0,43,44
 236 480 236 480 236 481 c 0,45,46
 239 487 239 487 244 499 c 0,47,48
 311 674 311 674 327 709 c 0,0,1
EndSplineSet
Validated: 1
EndChar

StartChar: cwm
Encoding: 65539 -1 108
Width: 723
GlyphClass: 2
Flags: W
HStem: 471 152<300.81 421.301>
VStem: 285 153<486.891 607.18>
LayerCount: 2
Fore
SplineSet
285 543 m 0,0,1
 285 570 285 570 292.5 587.5 c 128,-1,2
 300 605 300 605 313.5 612 c 128,-1,3
 327 619 327 619 337.5 621 c 128,-1,4
 348 623 348 623 362 623 c 0,5,6
 438 623 438 623 438 551 c 0,7,8
 438 523 438 523 427 501 c 128,-1,9
 416 479 416 479 395 474 c 0,10,11
 382 471 382 471 362 471 c 0,12,13
 285 471 285 471 285 543 c 0,0,1
EndSplineSet
Validated: 1
EndChar

StartChar: quotesingle
Encoding: 39 39 109
Width: 723
Flags: W
HStem: 378 384<304.412 416.844>
VStem: 271 173<426.941 749.558> 289 141<391.852 698.176>
LayerCount: 2
Fore
SplineSet
271 699 m 0,0,1
 271 762 271 762 328 762 c 0,2,3
 332 762 332 762 341 761 c 0,4,5
 348 761 348 761 354 761 c 0,6,7
 357 761 357 761 367 762 c 0,8,9
 374 762 374 762 382 762 c 0,10,11
 386 762 386 762 389 762 c 128,-1,12
 392 762 392 762 395 762 c 0,13,14
 397 762 397 762 399 762 c 128,-1,15
 401 762 401 762 402 762 c 0,16,17
 412 764 412 764 428 750 c 128,-1,18
 444 736 444 736 444 702 c 0,19,20
 444 696 444 696 442 670 c 0,21,22
 440 645 440 645 438 591 c 0,23,24
 436 540 436 540 432 512 c 0,25,26
 431 505 431 505 431 478 c 0,27,28
 431 452 431 452 430 437 c 128,-1,29
 429 422 429 422 420 405 c 128,-1,30
 411 388 411 388 394 382 c 0,31,32
 382 378 382 378 362 378 c 0,33,34
 346 378 346 378 329 383 c 0,35,36
 317 386 317 386 308 394 c 0,37,38
 302 400 302 400 297 412 c 0,39,40
 294 420 294 420 292 432 c 0,41,42
 291 438 291 438 290 454 c 0,43,44
 289 462 289 462 289 474 c 0,45,46
 271 674 271 674 271 699 c 0,0,1
EndSplineSet
Validated: 1
EndChar

StartChar: questiondown
Encoding: 191 191 110
Width: 723
Flags: W
HStem: -36.0179 99.9979<289.551 431.307> 596 150<291.598 406.081>
VStem: 154 100<97.0177 215.731> 272 151<612.506 728.422> 296 103<350.187 507.139> 468 100<98.2471 189.498>
LayerCount: 2
Fore
SplineSet
346 596 m 0,0,1
 310 596 310 596 291 612 c 128,-1,2
 272 628 272 628 272 670 c 0,3,4
 272 694 272 694 282 716 c 0,5,6
 292 739 292 739 311 742 c 0,7,8
 335 746 335 746 346 746 c 0,9,10
 423 743 423 743 423 674 c 0,11,12
 423 649 423 649 412 626 c 0,13,14
 402 605 402 605 380 600 c 0,15,16
 360 596 360 596 346 596 c 0,0,1
296 456 m 0,17,18
 296 517 296 517 349 518 c 0,19,20
 349.532 518.011 349.532 518.011 350.058 518.011 c 0,21,22
 399 518.011 399 518.011 399 426 c 0,23,24
 399 402 399 402 397 376 c 0,25,26
 394 341 394 341 371 310 c 0,27,28
 351 283 351 283 322 262 c 0,29,30
 299 246 299 246 276 216 c 0,31,32
 254 188 254 188 254 156 c 0,33,34
 254 114 254 114 284 89 c 0,35,36
 313 65 313 65 360 64 c 0,37,38
 361.28 63.98 361.28 63.98 362.548 63.98 c 0,39,40
 424.66 63.98 424.66 63.98 457 112 c 0,41,42
 463 121 463 121 468 148 c 0,43,44
 473 174 473 174 482.5 190 c 128,-1,45
 492 206 492 206 515 206 c 0,46,47
 568 206 568 206 568 144 c 0,48,49
 568 71 568 71 511 18 c 0,50,51
 453.054 -36.0179 453.054 -36.0179 364.24 -36.0179 c 0,52,53
 362.625 -36.0179 362.625 -36.0179 361 -36 c 0,54,55
 273 -35 273 -35 214 17 c 0,56,57
 154 70 154 70 154 152 c 0,58,59
 154 201 154 201 172 239 c 0,60,61
 188 273 188 273 212 296 c 0,62,63
 233 316 233 316 258 336 c 0,64,65
 284 357 284 357 291 370 c 128,-1,66
 298 383 298 383 298 408 c 0,67,68
 298 416 298 416 297 432 c 128,-1,69
 296 448 296 448 296 456 c 0,17,18
EndSplineSet
Validated: 1
EndChar

StartChar: exclamdown
Encoding: 161 161 111
Width: 723
Flags: W
HStem: 518.013 20G<351.9 375.099> 564 150.115<291.568 408.297>
VStem: 273 152<582.567 699.308> 298 100<58.7227 528.196>
LayerCount: 2
Fore
SplineSet
348 564 m 0,0,1
 309 564 309 564 291 582 c 128,-1,2
 273 600 273 600 273 636 c 0,3,4
 273 662 273 662 283 684 c 128,-1,5
 293 706 293 706 312 710 c 1,6,7
 328 713 328 713 348 714 c 0,8,9
 350.962 714.115 350.962 714.115 353.809 714.115 c 0,10,11
 425 714.115 425 714.115 425 642 c 0,12,13
 425 617 425 617 414 594 c 0,14,15
 404 573 404 573 382 568 c 0,16,17
 362 564 362 564 348 564 c 0,0,1
297 466 m 0,18,19
 297 537 297 537 351 538 c 0,20,21
 351.603 538.013 351.603 538.013 352.197 538.013 c 0,22,23
 398 538.013 398 538.013 398 462 c 2,24,-1
 398 156 l 2,25,26
 398 138 398 138 398 138 c 0,27,28
 399 126 399 126 399 120 c 0,29,30
 399 51 399 51 347 50 c 0,31,32
 346.388 49.9875 346.388 49.9875 345.783 49.9875 c 0,33,34
 298 49.9875 298 49.9875 298 128 c 2,35,-1
 298 430 l 2,36,37
 298 436 298 436 297.5 448 c 128,-1,38
 297 460 297 460 297 466 c 0,18,19
EndSplineSet
Validated: 1
EndChar

StartChar: adieresis
Encoding: 228 228 112
Width: 723
Flags: W
HStem: -16 99<251.791 386.922> 233 103.118<262.253 472> 395 117.5<198.132 272.199> 442 101<280.741 439.753> 556 158<236.361 312.199 408.801 484.639>
VStem: 128 98<108.849 199.626> 171 407<291 444> 220 108<581.267 688.733> 393 108<581.267 688.733> 472 100<163.703 236>
LayerCount: 2
Fore
SplineSet
220 634 m 4,0,1
 220 665 220 665 234.5 689.5 c 132,-1,2
 249 714 249 714 276 714 c 4,3,4
 301 714 301 714 314.5 691 c 132,-1,5
 328 668 328 668 328 637 c 4,6,7
 328 605 328 605 314 580.5 c 132,-1,8
 300 556 300 556 273 556 c 4,9,10
 248 556 248 556 234 579 c 132,-1,11
 220 602 220 602 220 634 c 4,0,1
393 633 m 4,12,13
 393 665 393 665 407 689.5 c 132,-1,14
 421 714 421 714 448 714 c 4,15,16
 473 714 473 714 487 691 c 132,-1,17
 501 668 501 668 501 636 c 4,18,19
 501 605 501 605 486.5 580.5 c 132,-1,20
 472 556 472 556 445 556 c 4,21,22
 420 556 420 556 406.5 579 c 132,-1,23
 393 602 393 602 393 633 c 4,12,13
315 -16 m 0,24,25
 238 -16 238 -16 183 30.5 c 128,-1,26
 128 77 128 77 128 150 c 0,27,28
 128 198 128 198 153.5 240 c 128,-1,29
 179 282 179 282 224 305 c 0,30,31
 258 322 258 322 304 329.5 c 0,32,33
 344.588 336.118 344.588 336.118 380.505 336.118 c 0,34,35
 385.294 336.118 385.294 336.118 390 336 c 0,36,37
 410 335.5 410 335.5 431.25 335.5 c 128,-1,38
 452.5 335.5 452.5 335.5 475 336 c 1,39,40
 474 339 474 339 470.5 357 c 128,-1,41
 467 375 467 375 462 386.5 c 128,-1,42
 457 398 457 398 447 412.5 c 128,-1,43
 437 427 437 427 416 434.5 c 128,-1,44
 395 442 395 442 366 442 c 0,45,46
 320 442 320 442 277 418.5 c 128,-1,47
 234 395 234 395 216 395 c 0,48,49
 197 395 197 395 184 411 c 128,-1,50
 171 427 171 427 171 444 c 0,51,52
 171 482 171 482 234 512.5 c 128,-1,53
 297 543 297 543 369 543 c 0,54,55
 467 543 467 543 522 484 c 0,56,57
 578 423 578 423 578 291 c 0,58,59
 578 263 578 263 575 210.5 c 128,-1,60
 572 158 572 158 572 136 c 0,61,62
 572 127 572 127 574 101.5 c 128,-1,63
 576 76 576 76 576 62 c 0,64,65
 576 20 576 20 561.5 3 c 128,-1,66
 547 -14 547 -14 528 -14 c 128,-1,67
 509 -14 509 -14 492 2.5 c 128,-1,68
 475 19 475 19 472 41 c 1,69,70
 404 -16 404 -16 315 -16 c 0,24,25
226 155 m 0,71,72
 226 130 226 130 249.5 106.5 c 128,-1,73
 273 83 273 83 316 83 c 0,74,75
 383 83 383 83 444 155 c 0,76,77
 472 189 472 189 472 236 c 1,78,79
 454 236 454 236 417 234.5 c 128,-1,80
 380 233 380 233 361 233 c 0,81,82
 290 233 290 233 258 208.5 c 128,-1,83
 226 184 226 184 226 155 c 0,71,72
EndSplineSet
Validated: 1
EndChar

StartChar: odieresis
Encoding: 246 246 113
Width: 723
Flags: W
HStem: -18 101<284.181 440.474> 442 101<282.183 438.751> 556 158<237.361 313.199 409.801 485.199>
VStem: 109 100<168.584 360.819> 221 108<581.267 688.733> 394 107<581.267 688.733> 513 102<164.053 357.254>
LayerCount: 2
Fore
SplineSet
221 634 m 0,0,1
 221 665 221 665 235.5 689.5 c 128,-1,2
 250 714 250 714 277 714 c 0,3,4
 302 714 302 714 315.5 691 c 128,-1,5
 329 668 329 668 329 637 c 0,6,7
 329 605 329 605 315 580.5 c 128,-1,8
 301 556 301 556 274 556 c 0,9,10
 249 556 249 556 235 579 c 128,-1,11
 221 602 221 602 221 634 c 0,0,1
394 633 m 0,12,13
 394 665 394 665 408 689.5 c 128,-1,14
 422 714 422 714 449 714 c 0,15,16
 474 714 474 714 487.5 691 c 128,-1,17
 501 668 501 668 501 637 c 0,18,19
 501 605 501 605 487 580.5 c 128,-1,20
 473 556 473 556 446 556 c 0,21,22
 421 556 421 556 407.5 579 c 128,-1,23
 394 602 394 602 394 633 c 0,12,13
109 271 m 0,24,25
 109 390 109 390 181.5 466.5 c 128,-1,26
 254 543 254 543 368 543 c 0,27,28
 478 543 478 543 546.5 455 c 128,-1,29
 615 367 615 367 615 253 c 0,30,31
 615 134 615 134 541.5 58 c 128,-1,32
 468 -18 468 -18 355 -18 c 0,33,34
 245 -18 245 -18 177 69 c 128,-1,35
 109 156 109 156 109 271 c 0,24,25
363 442 m 0,36,37
 289 442 289 442 249 390 c 128,-1,38
 209 338 209 338 209 266 c 0,39,40
 209 192 209 192 249.5 137.5 c 128,-1,41
 290 83 290 83 360 83 c 0,42,43
 434 83 434 83 473.5 135.5 c 128,-1,44
 513 188 513 188 513 259 c 0,45,46
 513 333 513 333 473 387.5 c 128,-1,47
 433 442 433 442 363 442 c 0,36,37
EndSplineSet
Validated: 1
EndChar

StartChar: udieresis
Encoding: 252 252 114
Width: 723
Flags: W
HStem: -17 100<265.745 408.407> 515 20G<167.5 185.5 520.5 555.5> 556 158<237.361 313.199 409.801 485.199>
VStem: 128 100.5<122.478 521.427> 221 108<581.267 688.733> 394 107<581.267 688.733> 498 94<-0.183594 43.5535 394.469 525.773>
LayerCount: 2
Fore
SplineSet
221 634 m 0,0,1
 221 665 221 665 235.5 689.5 c 128,-1,2
 250 714 250 714 277 714 c 0,3,4
 302 714 302 714 315.5 691 c 128,-1,5
 329 668 329 668 329 637 c 0,6,7
 329 605 329 605 315 580.5 c 128,-1,8
 301 556 301 556 274 556 c 0,9,10
 249 556 249 556 235 579 c 128,-1,11
 221 602 221 602 221 634 c 0,0,1
394 633 m 0,12,13
 394 665 394 665 408 689.5 c 128,-1,14
 422 714 422 714 449 714 c 0,15,16
 474 714 474 714 487.5 691 c 128,-1,17
 501 668 501 668 501 637 c 0,18,19
 501 605 501 605 487 580.5 c 128,-1,20
 473 556 473 556 446 556 c 0,21,22
 421 556 421 556 407.5 579 c 128,-1,23
 394 602 394 602 394 633 c 0,12,13
602 90 m 0,24,25
 602 38 602 38 592 13 c 128,-1,26
 582 -12 582 -12 553 -12 c 0,27,28
 532 -12 532 -12 515 4 c 128,-1,29
 498 20 498 20 498 44 c 1,30,31
 454 12 454 12 420.5 -2.5 c 128,-1,32
 387 -17 387 -17 337 -17 c 0,33,34
 277 -17 277 -17 226.5 10.5 c 128,-1,35
 176 38 176 38 151 89 c 128,-1,36
 126 140 126 140 126 224 c 0,37,38
 126 239 126 239 127 269.5 c 128,-1,39
 128 300 128 300 128 314 c 2,40,-1
 128 461 l 2,41,42
 128 473 128 473 128 484 c 128,-1,43
 128 495 128 495 132 505.5 c 128,-1,44
 136 516 136 516 145 523 c 0,45,46
 160 535 160 535 175 535 c 0,47,48
 196 535 196 535 211.5 516 c 128,-1,49
 227 497 227 497 228 473 c 0,50,51
 229 450 229 450 229 405 c 0,52,53
 229 382 229 382 228.5 337 c 128,-1,54
 228 292 228 292 228 270 c 0,55,56
 228 261 228 261 227.5 242.5 c 128,-1,57
 227 224 227 224 227 215 c 0,58,59
 227 83 227 83 337 83 c 0,60,61
 390 83 390 83 436.5 127 c 128,-1,62
 483 171 483 171 496 225 c 1,63,64
 502 255 502 255 502 289 c 0,65,66
 502 308 502 308 500 346 c 128,-1,67
 498 384 498 384 498 400 c 0,68,69
 498 407 498 407 496.5 427 c 128,-1,70
 495 447 495 447 495 459 c 0,71,72
 495 533 495 533 546 533 c 0,73,74
 565 533 565 533 580.5 519.5 c 128,-1,75
 596 506 596 506 598 486 c 0,76,77
 601 440 601 440 601 393 c 0,78,79
 601 361 601 361 599.5 298.5 c 128,-1,80
 598 236 598 236 598 206 c 0,81,82
 598 188 598 188 600 149 c 128,-1,83
 602 110 602 110 602 90 c 0,24,25
EndSplineSet
Validated: 1
EndChar

StartChar: Adieresis
Encoding: 196 196 115
Width: 723
Flags: W
HStem: 145 100<281 444.852> 614 156<122.882 200.114 522.885 600.118> 694 20G<350.5 375>
VStem: 107 108<638.236 746.279> 507 109<638.752 745.764> 512.5 94.5<1.86389 85.0691>
LayerCount: 2
Fore
SplineSet
107 693 m 0,0,1
 107 724 107 724 120.5 747 c 128,-1,2
 134 770 134 770 162 770 c 0,3,4
 187 770 187 770 201 747 c 128,-1,5
 215 724 215 724 215 691 c 0,6,7
 215 660 215 660 202 637 c 128,-1,8
 189 614 189 614 161 614 c 0,9,10
 136 614 136 614 121.5 637.5 c 128,-1,11
 107 661 107 661 107 693 c 0,0,1
507 694 m 0,12,13
 507 724 507 724 521 747 c 128,-1,14
 535 770 535 770 562 770 c 0,15,16
 587 770 587 770 601.5 746.5 c 128,-1,17
 616 723 616 723 616 691 c 0,18,19
 616 660 616 660 602.5 637 c 128,-1,20
 589 614 589 614 562 614 c 0,21,22
 536 614 536 614 521.5 638 c 128,-1,23
 507 662 507 662 507 694 c 0,12,13
164 -10 m 0,24,25
 146 -10 146 -10 131 2.5 c 128,-1,26
 116 15 116 15 116 43 c 0,27,28
 116 60 116 60 121.5 81 c 128,-1,29
 127 102 127 102 136.5 127.5 c 128,-1,30
 146 153 146 153 148 159 c 2,31,-1
 269 565 l 2,32,33
 273 577 273 577 278.5 603 c 128,-1,34
 284 629 284 629 289 644.5 c 128,-1,35
 294 660 294 660 302.5 678 c 128,-1,36
 311 696 311 696 325.5 705 c 128,-1,37
 340 714 340 714 361 714 c 0,38,39
 389 714 389 714 406.5 694 c 128,-1,40
 424 674 424 674 430.5 647.5 c 128,-1,41
 437 621 437 621 446 593 c 2,42,-1
 575 161 l 2,43,44
 577 155 577 155 586 130 c 128,-1,45
 595 105 595 105 601 83 c 128,-1,46
 607 61 607 61 607 43 c 0,47,48
 607 13 607 13 590.5 1.5 c 128,-1,49
 574 -10 574 -10 556 -10 c 0,50,51
 528 -10 528 -10 512.5 22 c 128,-1,52
 497 54 497 54 489 92.5 c 128,-1,53
 481 131 481 131 474 138 c 1,54,55
 465 145 465 145 434 145 c 2,56,-1
 384 145 l 2,57,58
 331 145 331 145 302.5 148 c 128,-1,59
 274 151 274 151 271 151 c 0,60,61
 252 151 252 151 245.5 138 c 128,-1,62
 239 125 239 125 238 109 c 1,63,64
 235 99 235 99 229.5 77 c 128,-1,65
 224 55 224 55 220 43.5 c 128,-1,66
 216 32 216 32 208.5 17.5 c 128,-1,67
 201 3 201 3 190 -3.5 c 128,-1,68
 179 -10 179 -10 164 -10 c 0,24,25
364 523 m 1,69,-1
 338 448 l 1,70,-1
 281 250 l 1,71,-1
 445 245 l 1,72,-1
 364 523 l 1,69,-1
EndSplineSet
Validated: 1
EndChar

StartChar: Odieresis
Encoding: 214 214 116
Width: 723
Flags: W
HStem: -14 101<295.352 427.993> 517 101<292.194 428.045> 614 156<122.882 200.114 522.885 600.118>
VStem: 107 108<638.236 746.279> 120 99<181.533 429.016> 504 100<179.123 420.386> 507 109<638.752 745.764>
LayerCount: 2
Fore
SplineSet
107 693 m 0,0,1
 107 724 107 724 120.5 747 c 128,-1,2
 134 770 134 770 162 770 c 0,3,4
 187 770 187 770 201 747 c 128,-1,5
 215 724 215 724 215 691 c 0,6,7
 215 660 215 660 202 637 c 128,-1,8
 189 614 189 614 161 614 c 0,9,10
 136 614 136 614 121.5 637.5 c 128,-1,11
 107 661 107 661 107 693 c 0,0,1
507 694 m 0,12,13
 507 724 507 724 521 747 c 128,-1,14
 535 770 535 770 562 770 c 0,15,16
 587 770 587 770 601.5 746.5 c 128,-1,17
 616 723 616 723 616 691 c 0,18,19
 616 660 616 660 602.5 637 c 128,-1,20
 589 614 589 614 562 614 c 0,21,22
 536 614 536 614 521.5 638 c 128,-1,23
 507 662 507 662 507 694 c 0,12,13
120 304 m 4,24,25
 120 440 120 440 188 529 c 132,-1,26
 256 618 256 618 365 618 c 4,27,28
 440 618 440 618 499 565.5 c 132,-1,29
 558 513 558 513 583 437 c 4,30,31
 604 374 604 374 604 302 c 4,32,33
 604 225 604 225 580 159 c 132,-1,34
 556 93 556 93 502 44.5 c 132,-1,35
 448 -4 448 -4 372 -13 c 4,36,37
 365 -14 365 -14 352 -14 c 4,38,39
 283 -14 283 -14 225.5 36.5 c 132,-1,40
 168 87 168 87 144 156 c 4,41,42
 120 222 120 222 120 304 c 4,24,25
362 517 m 4,43,44
 297 517 297 517 258 460.5 c 132,-1,45
 219 404 219 404 219 308 c 4,46,47
 219 236 219 236 240 183 c 4,48,49
 256 143 256 143 287 115 c 132,-1,50
 318 87 318 87 357 87 c 4,51,52
 423 87 423 87 463.5 145 c 132,-1,53
 504 203 504 203 504 297 c 4,54,55
 504 393 504 393 464.5 455 c 132,-1,56
 425 517 425 517 362 517 c 4,43,44
EndSplineSet
Validated: 1
EndChar

StartChar: Udieresis
Encoding: 220 220 117
Width: 723
Flags: W
HStem: -14 100<270.312 453.485> 668 105<123.125 252.031 470.688 600.453>
VStem: 111 100<151.623 576.064> 113 150<680.669 761.794> 460 151<680.435 760.8> 512.5 99.5<145.359 576.605>
LayerCount: 2
Fore
SplineSet
185 668 m 4,0,1
 113 668 113 668 113 720 c 4,2,3
 113 737 113 737 123 751 c 132,-1,4
 133 765 133 765 150 769 c 4,5,6
 170 773 170 773 188 773 c 4,7,8
 263 773 263 773 263 722 c 4,9,10
 263 668 263 668 185 668 c 4,0,1
460 719 m 4,11,12
 460 773 460 773 536 773 c 4,13,14
 611 773 611 773 611 721 c 4,15,16
 611 668 611 668 533 668 c 4,17,18
 460 668 460 668 460 719 c 4,11,12
562 585 m 0,19,20
 612 585 612 585 612 520 c 2,21,-1
 612 381 l 1,22,23
 611.6 363 611.6 363 611.6 344.92 c 0,24,25
 611.6 317.8 611.6 317.8 612.5 290.5 c 0,26,27
 612.75 282.917 612.75 282.917 612.75 275.333 c 0,28,29
 612.75 237.417 612.75 237.417 606.5 199.5 c 0,30,31
 599 154 599 154 585 115.5 c 128,-1,32
 571 77 571 77 538 46 c 128,-1,33
 505 15 505 15 456 0 c 0,34,35
 411 -14 411 -14 363 -14 c 0,36,37
 279 -14 279 -14 217 22 c 0,38,39
 182 42 182 42 159.5 72.5 c 128,-1,40
 137 103 137 103 127 142.5 c 128,-1,41
 117 182 117 182 114 215.5 c 128,-1,42
 111 249 111 249 111 296 c 2,43,-1
 111 353 l 2,44,45
 111 372 111 372 109 414.5 c 128,-1,46
 107 457 107 457 107 478 c 0,47,48
 107 519 107 519 112 545 c 0,49,50
 115 562 115 562 129 573.5 c 128,-1,51
 143 585 143 585 162 585 c 0,52,53
 213 585 213 585 213 502 c 0,54,55
 213 491 213 491 212 471.5 c 128,-1,56
 211 452 211 452 211 445 c 2,57,-1
 211 370 l 2,58,59
 211 358 211 358 210 329 c 128,-1,60
 209 300 209 300 209 284 c 0,61,62
 209 187 209 187 241 136.5 c 128,-1,63
 273 86 273 86 361 86 c 0,64,65
 441 86 441 86 478 128 c 0,66,67
 488 139 488 139 493 148.5 c 128,-1,68
 498 158 498 158 505.5 204 c 128,-1,69
 513 250 513 250 513 323 c 0,70,71
 513 341 513 341 512.5 377 c 128,-1,72
 512 413 512 413 512 431 c 0,73,74
 512 442 512 442 510.5 468 c 128,-1,75
 509 494 509 494 509 507 c 0,76,77
 509 535 509 535 514 551 c 0,78,79
 518 566 518 566 532 575.5 c 128,-1,80
 546 585 546 585 562 585 c 0,19,20
EndSplineSet
Validated: 1
EndChar

StartChar: germandbls
Encoding: 223 223 118
Width: 723
Flags: W
HStem: -9 102<403.018 479.61> 668 101<285.346 442.35>
VStem: 131 108<0.21875 614.54> 489 100<496.528 620.679> 512 101<127.76 292.475>
LayerCount: 2
Fore
SplineSet
589 557 m 0,0,1
 589 474 589 474 520 403 c 1,2,3
 566 380 566 380 589.5 330 c 128,-1,4
 613 280 613 280 613 219 c 0,5,6
 613 133 613 133 574 72 c 0,7,8
 556 43 556 43 518 17 c 128,-1,9
 480 -9 480 -9 445 -9 c 0,10,11
 419 -9 419 -9 402.5 5.5 c 128,-1,12
 386 20 386 20 386 43 c 128,-1,13
 386 66 386 66 397.5 77 c 128,-1,14
 409 88 409 88 432 93 c 128,-1,15
 455 98 455 98 459 100 c 0,16,17
 485 112 485 112 498 142.5 c 128,-1,18
 511 173 511 173 512 206 c 1,19,20
 512 301 512 301 445 331 c 0,21,22
 435 336 435 336 406.5 339.5 c 128,-1,23
 378 343 378 343 363.5 355 c 128,-1,24
 349 367 349 367 349 398 c 0,25,26
 349 431 349 431 368 445 c 128,-1,27
 387 459 387 459 417 467 c 128,-1,28
 447 475 447 475 459 487 c 0,29,30
 489 517 489 517 489 557 c 0,31,32
 489 598 489 598 457.5 633 c 128,-1,33
 426 668 426 668 361 668 c 0,34,35
 339 668 339 668 322 664 c 0,36,37
 283 655 283 655 262.5 619.5 c 128,-1,38
 242 584 242 584 239 540 c 0,39,40
 234 471 234 471 234 374 c 0,41,42
 234 337 234 337 235 263 c 128,-1,43
 236 189 236 189 236 153 c 0,44,45
 236 146 236 146 237.5 121 c 128,-1,46
 239 96 239 96 239 81 c 0,47,48
 239 -13 239 -13 187 -13 c 0,49,50
 170 -13 170 -13 155.5 -2 c 128,-1,51
 141 9 141 9 137 25 c 0,52,53
 131 54 131 54 131 86 c 0,54,55
 131 106 131 106 133.5 146 c 128,-1,56
 136 186 136 186 136 203 c 2,57,-1
 136 323 l 2,58,59
 136 342 136 342 135 385 c 128,-1,60
 134 428 134 428 134 452 c 0,61,62
 134 508 134 508 139.5 550.5 c 128,-1,63
 145 593 145 593 160 638.5 c 128,-1,64
 175 684 175 684 208.5 715 c 128,-1,65
 242 746 242 746 292 760 c 0,66,67
 326 769 326 769 361 769 c 0,68,69
 454 769 454 769 521.5 710.5 c 128,-1,70
 589 652 589 652 589 557 c 0,0,1
EndSplineSet
Validated: 1
EndChar

StartChar: currency
Encoding: 164 164 119
Width: 723
Flags: W
HStem: 164 100<294.327 431.466> 496 100<294.185 430.83>
VStem: 147 103<311.343 452.265> 475 104<306.502 448.493>
LayerCount: 2
Fore
SplineSet
110 583 m 0,0,1
 110 599 110 599 126 613.5 c 128,-1,2
 142 628 142 628 163 628 c 0,3,4
 181 628 181 628 198.5 613 c 128,-1,5
 216 598 216 598 229.5 582.5 c 128,-1,6
 243 567 243 567 252 567 c 0,7,8
 256 567 256 567 289 581.5 c 128,-1,9
 322 596 322 596 364 596 c 0,10,11
 402 596 402 596 442 580 c 0,12,13
 443 580 443 580 454.5 574 c 128,-1,14
 466 568 466 568 471 568 c 0,15,16
 483 568 483 568 515.5 599.5 c 128,-1,17
 548 631 548 631 566 631 c 0,18,19
 581 631 581 631 596 615.5 c 128,-1,20
 611 600 611 600 611 582 c 0,21,22
 611 555 611 555 576 520 c 1,23,24
 551 500 551 500 551 489 c 0,25,26
 551 484 551 484 565 452.5 c 128,-1,27
 579 421 579 421 579 381 c 0,28,29
 579 338 579 338 562 298 c 1,30,31
 549 275 549 275 549 270 c 0,32,33
 549 259 549 259 558.5 248.5 c 128,-1,34
 568 238 568 238 579.5 230 c 128,-1,35
 591 222 591 222 600.5 208.5 c 128,-1,36
 610 195 610 195 610 180 c 0,37,38
 610 161 610 161 597 146 c 128,-1,39
 584 131 584 131 561 131 c 0,40,41
 539 131 539 131 512 160.5 c 128,-1,42
 485 190 485 190 469 190 c 0,43,44
 466 190 466 190 433.5 177 c 128,-1,45
 401 164 401 164 363 164 c 0,46,47
 320 164 320 164 281 181 c 1,48,49
 254 191 254 191 253 191 c 0,50,51
 241 191 241 191 208.5 159.5 c 128,-1,52
 176 128 176 128 157 128 c 0,53,54
 141 128 141 128 127 144 c 128,-1,55
 113 160 113 160 113 178 c 0,56,57
 113 202 113 202 143.5 232 c 128,-1,58
 174 262 174 262 174 271 c 0,59,60
 174 274 174 274 160.5 307 c 128,-1,61
 147 340 147 340 147 384 c 0,62,63
 147 419 147 419 160 452.5 c 128,-1,64
 173 486 173 486 173 487 c 0,65,66
 173 501 173 501 141.5 532.5 c 128,-1,67
 110 564 110 564 110 583 c 0,0,1
364 496 m 0,68,69
 315 496 315 496 282.5 464.5 c 128,-1,70
 250 433 250 433 250 383 c 0,71,72
 250 336 250 336 280 300 c 128,-1,73
 310 264 310 264 361 264 c 0,74,75
 411 264 411 264 443 295 c 128,-1,76
 475 326 475 326 475 376 c 0,77,78
 475 424 475 424 445 460 c 128,-1,79
 415 496 415 496 364 496 c 0,68,69
EndSplineSet
Validated: 1
EndChar

StartChar: section
Encoding: 167 167 120
Width: 723
Flags: W
HStem: -15 99<267.714 461.797> 672 100<281.026 448.492>
VStem: 120 101<356.364 434.202> 147 100<549.639 641.466> 500 101<117.734 207.059 330.306 401.388>
LayerCount: 2
Fore
SplineSet
147 593 m 0,0,1
 147 643 147 643 171 680.5 c 128,-1,2
 195 718 195 718 232 736.5 c 128,-1,3
 269 755 269 755 305 763.5 c 128,-1,4
 341 772 341 772 374 772 c 0,5,6
 464 772 464 772 518.5 726 c 128,-1,7
 573 680 573 680 573 630 c 0,8,9
 573 610 573 610 558.5 596.5 c 128,-1,10
 544 583 544 583 524 583 c 0,11,12
 503 583 503 583 490 596.5 c 128,-1,13
 477 610 477 610 465.5 629 c 128,-1,14
 454 648 454 648 442 655 c 0,15,16
 413 672 413 672 367 672 c 0,17,18
 319 672 319 672 283 651.5 c 128,-1,19
 247 631 247 631 247 593 c 0,20,21
 247 544 247 544 316 532 c 0,22,23
 336 529 336 529 384.5 526 c 128,-1,24
 433 523 433 523 468 515.5 c 128,-1,25
 503 508 503 508 531 490 c 0,26,27
 563 470 563 470 581.5 437 c 128,-1,28
 600 404 600 404 600 367 c 0,29,30
 600 333 600 333 583 306 c 128,-1,31
 566 279 566 279 566 270 c 0,32,33
 566 264 566 264 575 251.5 c 128,-1,34
 584 239 584 239 592.5 216 c 128,-1,35
 601 193 601 193 601 162 c 0,36,37
 601 133 601 133 589.5 104 c 128,-1,38
 578 75 578 75 552 47 c 128,-1,39
 526 19 526 19 476 2 c 128,-1,40
 426 -15 426 -15 359 -15 c 0,41,42
 293 -15 293 -15 244 4.5 c 128,-1,43
 195 24 195 24 172.5 52 c 128,-1,44
 150 80 150 80 140 102.5 c 128,-1,45
 130 125 130 125 130 139 c 0,46,47
 130 160 130 160 144 173 c 128,-1,48
 158 186 158 186 179 186 c 0,49,50
 201 186 201 186 214.5 172 c 128,-1,51
 228 158 228 158 239.5 137.5 c 128,-1,52
 251 117 251 117 264 108 c 0,53,54
 301 84 301 84 364 84 c 0,55,56
 424 84 424 84 462 106 c 128,-1,57
 500 128 500 128 500 164 c 0,58,59
 500 214 500 214 428 225 c 0,60,61
 402 229 402 229 346 232.5 c 128,-1,62
 290 236 290 236 249 245 c 128,-1,63
 208 254 208 254 175 278 c 0,64,65
 120 319 120 319 120 388 c 0,66,67
 120 418 120 418 132 441.5 c 128,-1,68
 144 465 144 465 156 480.5 c 128,-1,69
 168 496 168 496 168 506 c 0,70,71
 168 510 168 510 157.5 535 c 128,-1,72
 147 560 147 560 147 593 c 0,0,1
265 442 m 0,73,74
 250 442 250 442 235.5 428.5 c 128,-1,75
 221 415 221 415 221 392 c 0,76,77
 221 372 221 372 234 359 c 128,-1,78
 247 346 247 346 272.5 340.5 c 128,-1,79
 298 335 298 335 319 332.5 c 128,-1,80
 340 330 340 330 373 329.5 c 128,-1,81
 406 329 406 329 417 328 c 0,82,83
 421 328 421 328 436.5 324.5 c 128,-1,84
 452 321 452 321 460 321 c 0,85,86
 474 321 474 321 486.5 333 c 128,-1,87
 499 345 499 345 499 365 c 128,-1,88
 499 385 499 385 487 398 c 128,-1,89
 475 411 475 411 452 416.5 c 128,-1,90
 429 422 429 422 408.5 424.5 c 128,-1,91
 388 427 388 427 358 428.5 c 128,-1,92
 328 430 328 430 314 432 c 0,93,94
 310 433 310 433 292 437.5 c 128,-1,95
 274 442 274 442 265 442 c 0,73,74
EndSplineSet
Validated: 1
EndChar

StartChar: periodcentered
Encoding: 183 183 121
Width: 723
Flags: W
HStem: 264 149<299.31 419.69>
VStem: 283.5 152<279.601 397.619>
LayerCount: 2
Fore
SplineSet
283.5 335 m 4,0,1
 283.5 362 283.5 362 291 379 c 132,-1,2
 298.5 396 298.5 396 312.5 402.5 c 132,-1,3
 326.5 409 326.5 409 336 411 c 132,-1,4
 345.5 413 345.5 413 358.5 413 c 4,5,6
 435.5 413 435.5 413 435.5 343 c 4,7,8
 435.5 316 435.5 316 428 299 c 132,-1,9
 420.5 282 420.5 282 407 275 c 132,-1,10
 393.5 268 393.5 268 383.5 266 c 132,-1,11
 373.5 264 373.5 264 360.5 264 c 4,12,13
 283.5 264 283.5 264 283.5 335 c 4,0,1
EndSplineSet
Validated: 1
EndChar

StartChar: Theta
Encoding: 920 920 122
Width: 723
Flags: W
HStem: -14 100<304.471 419.234> 300 105<266.406 455.105> 620 101<302.529 421.183>
VStem: 113 101<220.682 492.038> 256 212<318.501 386.5> 509 101<220.352 492.94>
LayerCount: 2
Fore
SplineSet
113 360 m 0,0,1
 113 505 113 505 184 613 c 128,-1,2
 255 721 255 721 364 721 c 0,3,4
 435 721 435 721 492 668.5 c 128,-1,5
 549 616 549 616 579.5 532.5 c 128,-1,6
 610 449 610 449 610 354 c 0,7,8
 610 270 610 270 585 191.5 c 128,-1,9
 560 113 560 113 506 55 c 128,-1,10
 452 -3 452 -3 381 -13 c 0,11,12
 374 -14 374 -14 359 -14 c 0,13,14
 258 -14 258 -14 185.5 95 c 128,-1,15
 113 204 113 204 113 360 c 0,0,1
361 620 m 0,16,17
 318 620 318 620 283.5 579.5 c 128,-1,18
 249 539 249 539 231.5 479.5 c 128,-1,19
 214 420 214 420 214 356 c 0,20,21
 214 254 214 254 257 170 c 128,-1,22
 300 86 300 86 361 86 c 0,23,24
 424 86 424 86 466.5 170.5 c 128,-1,25
 509 255 509 255 509 359 c 0,26,27
 509 438 509 438 483 506 c 0,28,29
 465 553 465 553 434 586.5 c 128,-1,30
 403 620 403 620 361 620 c 0,16,17
330 300 m 0,31,32
 256 300 256 300 256 352 c 0,33,34
 256 369 256 369 266.5 383.5 c 128,-1,35
 277 398 277 398 295 402 c 0,36,37
 306 405 306 405 331 405 c 0,38,39
 343 405 343 405 359.5 404 c 128,-1,40
 376 403 376 403 413 403 c 0,41,42
 445 403 445 403 456.5 387 c 128,-1,43
 468 371 468 371 468 353 c 0,44,45
 468 334 468 334 455.5 318 c 128,-1,46
 443 302 443 302 413 302 c 0,47,48
 410 302 410 302 403 302.5 c 128,-1,49
 396 303 396 303 392 303 c 0,50,51
 384 303 384 303 363 301.5 c 128,-1,52
 342 300 342 300 330 300 c 0,31,32
EndSplineSet
Validated: 1
EndChar

StartChar: Upsilontonos
Encoding: 910 910 123
Width: 723
Flags: W
HStem: 577 101<252.391 301.237 420.435 470.487>
VStem: 310 103<-1.75 572.544>
LayerCount: 2
Fore
SplineSet
156 571 m 0,0,1
 156 615 156 615 192.5 646.5 c 128,-1,2
 229 678 229 678 271 678 c 0,3,4
 290 678 290 678 320 664 c 128,-1,5
 350 650 350 650 361 650 c 0,6,7
 371 650 371 650 398.5 664.5 c 128,-1,8
 426 679 426 679 446 679 c 0,9,10
 496 679 496 679 531.5 644 c 128,-1,11
 567 609 567 609 567 569 c 0,12,13
 567 548 567 548 552.5 534 c 128,-1,14
 538 520 538 520 517 520 c 0,15,16
 499 520 499 520 488 529 c 128,-1,17
 477 538 477 538 473.5 548.5 c 128,-1,18
 470 559 470 559 463.5 568 c 128,-1,19
 457 577 457 577 447 577 c 0,20,21
 433 577 433 577 420.5 555.5 c 128,-1,22
 408 534 408 534 408 488 c 0,23,24
 408 474 408 474 409.5 447.5 c 128,-1,25
 411 421 411 421 411 409 c 2,26,-1
 411 122 l 2,27,28
 411 115 411 115 412 96.5 c 128,-1,29
 413 78 413 78 413 67 c 0,30,31
 413 -13 413 -13 359 -13 c 0,32,33
 310 -13 310 -13 310 66 c 0,34,35
 310 75 310 75 310.5 89 c 128,-1,36
 311 103 311 103 311 108 c 2,37,-1
 311 384 l 2,38,39
 311 398 311 398 312 426.5 c 128,-1,40
 313 455 313 455 313 469 c 0,41,42
 313 577 313 577 275 577 c 0,43,44
 266 577 266 577 259.5 568 c 128,-1,45
 253 559 253 559 249 548.5 c 128,-1,46
 245 538 245 538 233.5 529 c 128,-1,47
 222 520 222 520 203 520 c 0,48,49
 182 520 182 520 169 534.5 c 128,-1,50
 156 549 156 549 156 571 c 0,0,1
EndSplineSet
Validated: 1
EndChar

StartChar: Lambda
Encoding: 923 923 124
Width: 723
Flags: W
HStem: 686 20G<354 377.5>
VStem: 141 141<16.2061 95> 441 141<16.8534 93>
LayerCount: 2
Fore
SplineSet
500 -15 m 0,0,1
 468 -15 468 -15 447 -2 c 128,-1,2
 426 11 426 11 426 32 c 0,3,4
 426 41 426 41 433.5 57 c 128,-1,5
 441 73 441 73 441 84 c 0,6,7
 441 102 441 102 436 124 c 128,-1,8
 431 146 431 146 423 172.5 c 128,-1,9
 415 199 415 199 412 212 c 0,10,11
 407 233 407 233 398 279.5 c 128,-1,12
 389 326 389 326 380.5 362 c 128,-1,13
 372 398 372 398 361 428 c 1,14,15
 349 389 349 389 333 316 c 128,-1,16
 317 243 317 243 312 223 c 0,17,18
 309 210 309 210 300.5 181 c 128,-1,19
 292 152 292 152 287 128.5 c 128,-1,20
 282 105 282 105 282 85 c 0,21,22
 282 75 282 75 289 58 c 128,-1,23
 296 41 296 41 296 32 c 0,24,25
 296 11 296 11 275.5 -2 c 128,-1,26
 255 -15 255 -15 222 -15 c 0,27,28
 192 -15 192 -15 166.5 -2 c 128,-1,29
 141 11 141 11 141 40 c 0,30,31
 141 52 141 52 146.5 60 c 128,-1,32
 152 68 152 68 162 76.5 c 128,-1,33
 172 85 172 85 177 93 c 1,34,35
 183 100 183 100 191 145 c 1,36,37
 203 194 203 194 231 318 c 128,-1,38
 259 442 259 442 276 509 c 1,39,40
 281 533 281 533 288 567 c 128,-1,41
 295 601 295 601 298.5 617.5 c 128,-1,42
 302 634 302 634 308.5 654.5 c 128,-1,43
 315 675 315 675 321 684 c 128,-1,44
 327 693 327 693 337 699.5 c 128,-1,45
 347 706 347 706 361 706 c 0,46,47
 394 706 394 706 408 673 c 0,48,49
 420 643 420 643 433 579 c 128,-1,50
 446 515 446 515 447 509 c 2,51,-1
 530 145 l 2,52,53
 531 141 531 141 535 121 c 128,-1,54
 539 101 539 101 544 93 c 128,-1,55
 549 85 549 85 559.5 76.5 c 128,-1,56
 570 68 570 68 576 59.5 c 128,-1,57
 582 51 582 51 582 38 c 0,58,59
 582 15 582 15 558 0 c 128,-1,60
 534 -15 534 -15 500 -15 c 0,0,1
EndSplineSet
Validated: 1
EndChar

StartChar: Pi
Encoding: 928 928 125
Width: 723
Flags: W
HStem: 612 100<242 484>
VStem: 142 100<-0.665039 611.961> 483 102<4.41089 611.928>
LayerCount: 2
Fore
SplineSet
534 -9 m 0,0,1
 515 -9 515 -9 499 4 c 128,-1,2
 483 17 483 17 483 49 c 0,3,4
 483 54 483 54 483.5 64 c 128,-1,5
 484 74 484 74 484 78 c 2,6,-1
 484 612 l 1,7,-1
 242 612 l 1,8,-1
 242 134 l 2,9,10
 242 127 242 127 243 107 c 128,-1,11
 244 87 244 87 244 75 c 0,12,13
 244 -10 244 -10 192 -10 c 128,-1,14
 140 -10 140 -10 140 69 c 0,15,16
 140 79 140 79 141 96.5 c 128,-1,17
 142 114 142 114 142 120 c 2,18,-1
 142 551 l 2,19,20
 142 556 142 556 143 568 c 128,-1,21
 144 580 144 580 144 587 c 0,22,23
 144 612 144 612 128.5 627 c 128,-1,24
 113 642 113 642 113 662 c 128,-1,25
 113 682 113 682 126 697.5 c 128,-1,26
 139 713 139 713 171 713 c 0,27,28
 176 713 176 713 184.5 712.5 c 128,-1,29
 193 712 193 712 197 712 c 2,30,-1
 520 712 l 2,31,32
 524 712 524 712 534 712.5 c 128,-1,33
 544 713 544 713 549 713 c 0,34,35
 575 713 575 713 590 702.5 c 128,-1,36
 605 692 605 692 608 683.5 c 128,-1,37
 611 675 611 675 611 668 c 0,38,39
 611 656 611 656 596.5 632 c 128,-1,40
 582 608 582 608 582 585 c 0,41,42
 582 578 582 578 583 563.5 c 128,-1,43
 584 549 584 549 584 543 c 2,44,-1
 584 72 l 2,45,46
 584 69 584 69 584.5 60.5 c 128,-1,47
 585 52 585 52 585 48 c 0,48,49
 585 15 585 15 568.5 3 c 128,-1,50
 552 -9 552 -9 534 -9 c 0,0,1
EndSplineSet
Validated: 1
EndChar

StartChar: Phi
Encoding: 934 934 126
Width: 723
Flags: W
HStem: -11 103<267.615 311 411 454.43> 434 103<266.671 311 411 455.394>
VStem: 112 96<162.686 362.813> 284 155<-126.033 -35.6704 561.67 652.296> 311 100<-65.4531 -7.99744 92 434 533.874 591.453> 514 97<163.799 363.413>
LayerCount: 2
Fore
SplineSet
311 -11 m 1,0,1
 236 -5 236 -5 174 68 c 128,-1,2
 112 141 112 141 112 263 c 0,3,4
 112 330 112 330 132.5 388.5 c 128,-1,5
 153 447 153 447 199.5 489 c 128,-1,6
 246 531 246 531 311 537 c 1,7,8
 311 552 311 552 297.5 577 c 128,-1,9
 284 602 284 602 284 615 c 0,10,11
 284 641 284 641 307 653.5 c 128,-1,12
 330 666 330 666 361 666 c 0,13,14
 391 666 391 666 415 653.5 c 128,-1,15
 439 641 439 641 439 614 c 0,16,17
 439 600 439 600 425 576.5 c 128,-1,18
 411 553 411 553 411 537 c 1,19,20
 476 531 476 531 523 489 c 128,-1,21
 570 447 570 447 590.5 388 c 128,-1,22
 611 329 611 329 611 262 c 0,23,24
 611 140 611 140 548.5 67.5 c 128,-1,25
 486 -5 486 -5 411 -11 c 1,26,27
 411 -27 411 -27 425 -50.5 c 128,-1,28
 439 -74 439 -74 439 -88 c 0,29,30
 439 -115 439 -115 415 -127.5 c 128,-1,31
 391 -140 391 -140 361 -140 c 0,32,33
 332 -140 332 -140 308 -128 c 128,-1,34
 284 -116 284 -116 284 -89 c 0,35,36
 284 -76 284 -76 297.5 -51 c 128,-1,37
 311 -26 311 -26 311 -11 c 1,0,1
311 434 m 1,38,39
 262 423 262 423 235 374 c 128,-1,40
 208 325 208 325 208 263 c 128,-1,41
 208 201 208 201 235 152 c 128,-1,42
 262 103 262 103 311 92 c 1,43,-1
 311 434 l 1,38,39
411 92 m 1,44,45
 460 103 460 103 487 152 c 128,-1,46
 514 201 514 201 514 263 c 128,-1,47
 514 325 514 325 487 374 c 128,-1,48
 460 423 460 423 411 434 c 1,49,-1
 411 92 l 1,44,45
EndSplineSet
Validated: 1
EndChar

StartChar: Omega
Encoding: 937 937 127
Width: 723
Flags: W
HStem: 720 101<282.331 440.106>
VStem: 113 98<424.169 648.343> 198 125<-7.65967 76.7484> 211 112<10.7751 136.196> 398 112<11.3338 144.468> 511 100<431.121 644.898>
LayerCount: 2
Fore
SplineSet
113 560 m 0,0,1
 113 623 113 623 132.5 672 c 128,-1,2
 152 721 152 721 180 748.5 c 128,-1,3
 208 776 208 776 244 793 c 128,-1,4
 280 810 280 810 308.5 815.5 c 128,-1,5
 337 821 337 821 362 821 c 0,6,7
 390 821 390 821 420.5 814.5 c 128,-1,8
 451 808 451 808 486 789.5 c 128,-1,9
 521 771 521 771 548 743 c 128,-1,10
 575 715 575 715 593 668.5 c 128,-1,11
 611 622 611 622 611 563 c 0,12,13
 611 512 611 512 599.5 452.5 c 128,-1,14
 588 393 588 393 568.5 321 c 128,-1,15
 549 249 549 249 543 222 c 0,16,17
 542 218 542 218 526.5 162.5 c 128,-1,18
 511 107 511 107 510 80 c 0,19,20
 510 70 510 70 517 54.5 c 128,-1,21
 524 39 524 39 524 30 c 0,22,23
 524 23 524 23 523 19 c 0,24,25
 519 6 519 6 511.5 -2.5 c 128,-1,26
 504 -11 504 -11 492 -13.5 c 128,-1,27
 480 -16 480 -16 474.5 -16.5 c 128,-1,28
 469 -17 469 -17 457 -17 c 0,29,30
 433 -17 433 -17 419 -7 c 128,-1,31
 405 3 405 3 401.5 12.5 c 128,-1,32
 398 22 398 22 398 33 c 0,33,34
 398 46 398 46 398.5 52 c 128,-1,35
 399 58 399 58 404.5 81.5 c 128,-1,36
 410 105 410 105 417.5 134.5 c 128,-1,37
 425 164 425 164 444 243 c 128,-1,38
 463 322 463 322 486 420 c 1,39,40
 494 447 494 447 502.5 486.5 c 128,-1,41
 511 526 511 526 511 555 c 0,42,43
 511 627 511 627 469 673.5 c 128,-1,44
 427 720 427 720 359 720 c 0,45,46
 299 720 299 720 255 676.5 c 128,-1,47
 211 633 211 633 211 564 c 0,48,49
 211 519 211 519 245.5 366 c 128,-1,50
 280 213 280 213 296 155 c 0,51,52
 298 147 298 147 305.5 122.5 c 128,-1,53
 313 98 313 98 318 76.5 c 128,-1,54
 323 55 323 55 323 38 c 0,55,56
 323 22 323 22 318 10.5 c 128,-1,57
 313 -1 313 -1 307 -6 c 128,-1,58
 301 -11 301 -11 289 -14 c 128,-1,59
 277 -17 277 -17 271.5 -17 c 128,-1,60
 266 -17 266 -17 253 -17 c 0,61,62
 229 -17 229 -17 215.5 -4 c 128,-1,63
 202 9 202 9 200 17.5 c 128,-1,64
 198 26 198 26 198 31 c 0,65,66
 198 40 198 40 204.5 54.5 c 128,-1,67
 211 69 211 69 211 77 c 0,68,69
 211 93 211 93 186.5 182 c 128,-1,70
 162 271 162 271 137.5 381.5 c 128,-1,71
 113 492 113 492 113 560 c 0,0,1
EndSplineSet
Validated: 1
EndChar

StartChar: Sigma
Encoding: 931 931 128
Width: 723
Flags: W
HStem: -2 132<510.86 588.591> 0 100<280 528.352> 571 130<510.372 587.529> 605 96<280 522.549>
LayerCount: 2
Fore
SplineSet
603 637 m 0,0,1
 603 609 603 609 588 590 c 128,-1,2
 573 571 573 571 550 571 c 0,3,4
 537 571 537 571 520.5 585 c 128,-1,5
 504 599 504 599 494 600 c 0,6,7
 464 605 464 605 419 605 c 0,8,9
 396 605 396 605 349 603 c 128,-1,10
 302 601 302 601 280 601 c 1,11,-1
 344 426 l 1,12,-1
 368 350 l 1,13,-1
 346 281 l 1,14,-1
 280 100 l 1,15,-1
 422 100 l 2,16,17
 428 100 428 100 445 98.5 c 128,-1,18
 462 97 462 97 471 97 c 0,19,20
 499 97 499 97 517.5 113.5 c 128,-1,21
 536 130 536 130 553 130 c 0,22,23
 576 130 576 130 589 110.5 c 128,-1,24
 602 91 602 91 602 64 c 0,25,26
 602 -2 602 -2 532 -2 c 0,27,28
 522 -2 522 -2 506 -1 c 128,-1,29
 490 0 490 0 483 0 c 2,30,-1
 255 0 l 2,31,32
 251 0 251 0 241 -0.5 c 128,-1,33
 231 -1 231 -1 226 -1 c 0,34,35
 158 -1 158 -1 158 50 c 0,36,37
 158 62 158 62 177 114 c 2,38,-1
 242 289 l 2,39,40
 244 294 244 294 250 307.5 c 128,-1,41
 256 321 256 321 259 331.5 c 128,-1,42
 262 342 262 342 262 351 c 128,-1,43
 262 360 262 360 180 579 c 1,44,45
 174 592 174 592 166 613.5 c 128,-1,46
 158 635 158 635 158 650 c 0,47,48
 158 702 158 702 227 702 c 0,49,50
 232 702 232 702 241 701.5 c 128,-1,51
 250 701 250 701 255 701 c 2,52,-1
 508 701 l 1,53,54
 520 700 520 700 532.5 701 c 128,-1,55
 545 702 545 702 557.5 699 c 128,-1,56
 570 696 570 696 580.5 690.5 c 128,-1,57
 591 685 591 685 597 671 c 128,-1,58
 603 657 603 657 603 637 c 0,0,1
EndSplineSet
Validated: 1
EndChar

StartChar: Psi
Encoding: 936 936 129
Width: 723
Flags: W
VStem: 169.5 91.5<225.662 582.462> 310 102<-91.5569 0.915771 122.657 622.469> 461 100<246.694 549.434>
LayerCount: 2
Fore
SplineSet
204 619 m 0,0,1
 221 619 221 619 232.5 610 c 128,-1,2
 244 601 244 601 249.5 590.5 c 128,-1,3
 255 580 255 580 257.5 558 c 128,-1,4
 260 536 260 536 260.5 523.5 c 128,-1,5
 261 511 261 511 261 483 c 0,6,7
 261 428 261 428 271 323.5 c 128,-1,8
 281 219 281 219 285 194 c 0,9,10
 288 180 288 180 296.5 155.5 c 128,-1,11
 305 131 305 131 308 122 c 1,12,-1
 311 122 l 1,13,14
 311 173 311 173 309 275.5 c 128,-1,15
 307 378 307 378 307 430 c 0,16,17
 307 516 307 516 311 584 c 0,18,19
 312 605 312 605 327.5 619.5 c 128,-1,20
 343 634 343 634 363 634 c 0,21,22
 414 634 414 634 414 552 c 0,23,24
 414 538 414 538 412.5 514 c 128,-1,25
 411 490 411 490 411 481 c 2,26,-1
 411 239 l 2,27,28
 411 229 411 229 409.5 205 c 128,-1,29
 408 181 408 181 408 169 c 0,30,31
 408 143 408 143 414 122 c 1,32,33
 449 246 449 246 453 345 c 0,34,35
 454 380 454 380 457.5 418 c 128,-1,36
 461 456 461 456 461 510 c 0,37,38
 461 572 461 572 475 595 c 0,39,40
 490 619 490 619 519 619 c 0,41,42
 539 619 539 619 555 604 c 128,-1,43
 571 589 571 589 571 550 c 0,44,45
 571 532 571 532 566 498 c 128,-1,46
 561 464 561 464 561 453 c 0,47,48
 560 423 560 423 548 281 c 0,49,50
 546 259 546 259 543.5 233.5 c 128,-1,51
 541 208 541 208 537.5 185.5 c 128,-1,52
 534 163 534 163 527 139 c 128,-1,53
 520 115 520 115 510 94 c 0,54,55
 467 3 467 3 411 -6 c 1,56,57
 411 -11 411 -11 411.5 -23 c 128,-1,58
 412 -35 412 -35 412 -41 c 0,59,60
 412 -78 412 -78 395.5 -92 c 128,-1,61
 379 -106 379 -106 360 -106 c 128,-1,62
 341 -106 341 -106 325.5 -92 c 128,-1,63
 310 -78 310 -78 310 -43 c 0,64,65
 310 -36 310 -36 310.5 -24 c 128,-1,66
 311 -12 311 -12 311 -6 c 1,67,68
 256 3 256 3 213 91 c 0,69,70
 190 137 190 137 181 193 c 128,-1,71
 172 249 172 249 169.5 324.5 c 128,-1,72
 167 400 167 400 163 431 c 1,73,-1
 154 558 l 1,74,75
 154 591 154 591 169.5 605 c 128,-1,76
 185 619 185 619 204 619 c 0,0,1
EndSplineSet
Validated: 1
EndChar

StartChar: Delta
Encoding: 916 916 130
Width: 723
Flags: W
HStem: -11 100<255 466> 686 20G<355 372>
LayerCount: 2
Fore
SplineSet
210 -12 m 0,0,1
 141 -12 141 -12 141 41 c 0,2,3
 141 52 141 52 144 65 c 128,-1,4
 147 78 147 78 152 94.5 c 128,-1,5
 157 111 157 111 159 117 c 2,6,-1
 222 342 l 1,7,8
 246 434 246 434 298 618 c 0,9,10
 299 621 299 621 303 637.5 c 128,-1,11
 307 654 307 654 310.5 662.5 c 128,-1,12
 314 671 314 671 320.5 683 c 128,-1,13
 327 695 327 695 337.5 700.5 c 128,-1,14
 348 706 348 706 362 706 c 0,15,16
 382 706 382 706 396.5 688 c 128,-1,17
 411 670 411 670 417 652.5 c 128,-1,18
 423 635 423 635 430 602 c 128,-1,19
 437 569 437 569 438 565 c 0,20,21
 479 408 479 408 558 134 c 1,22,23
 563 121 563 121 572 90.5 c 128,-1,24
 581 60 581 60 581 40 c 0,25,26
 581 10 581 10 563 -1.5 c 128,-1,27
 545 -13 545 -13 508 -13 c 0,28,29
 497 -13 497 -13 475.5 -12 c 128,-1,30
 454 -11 454 -11 444 -11 c 2,31,-1
 238 -11 l 2,32,33
 234 -11 234 -11 224.5 -11.5 c 128,-1,34
 215 -12 215 -12 210 -12 c 0,0,1
364 465 m 1,35,36
 355 454 355 454 348.5 436 c 128,-1,37
 342 418 342 418 337 391.5 c 128,-1,38
 332 365 332 365 330 359 c 2,39,-1
 255 89 l 1,40,-1
 466 89 l 1,41,-1
 364 465 l 1,35,36
EndSplineSet
Validated: 1
EndChar

StartChar: Gamma
Encoding: 915 915 131
Width: 723
Flags: W
HStem: 492 220<520.105 601.578> 612 100<241 511>
VStem: 140 104<13.2188 612> 510 104<502.266 612>
LayerCount: 2
Fore
SplineSet
614 571 m 0,0,1
 614 492 614 492 563 492 c 0,2,3
 544 492 544 492 529 504.5 c 128,-1,4
 514 517 514 517 511 537 c 0,5,6
 510 545 510 545 510 562 c 0,7,8
 510 570 510 570 510.5 586.5 c 128,-1,9
 511 603 511 603 511 612 c 1,10,-1
 241 612 l 1,11,-1
 241 153 l 2,12,13
 241 146 241 146 242.5 122 c 128,-1,14
 244 98 244 98 244 85 c 0,15,16
 244 0 244 0 186 0 c 0,17,18
 140 0 140 0 140 94 c 0,19,20
 140 104 140 104 140.5 119 c 128,-1,21
 141 134 141 134 141 139 c 2,22,-1
 141 509 l 2,23,24
 141 524 141 524 138.5 562 c 128,-1,25
 136 600 136 600 136 619 c 0,26,27
 136 676 136 676 152 694.5 c 128,-1,28
 168 713 168 713 210 713 c 0,29,30
 216 713 216 713 226.5 712.5 c 128,-1,31
 237 712 237 712 241 712 c 2,32,-1
 511 712 l 2,33,34
 516 712 516 712 527 712.5 c 128,-1,35
 538 713 538 713 544 713 c 0,36,37
 611 713 611 713 611 656 c 0,38,39
 611 623 611 623 612.5 604 c 128,-1,40
 614 585 614 585 614 571 c 0,0,1
EndSplineSet
Validated: 1
EndChar

StartChar: Xi
Encoding: 926 926 132
Width: 723
Flags: W
HStem: -2 104<149.238 588.594> -2 95.5<134.041 210.754> 313 105<195.391 526.897> 599 93.5<133.355 214.568> 601 100<148.209 589.83>
LayerCount: 2
Fore
SplineSet
125 650 m 0,0,1
 125 681 125 681 147.5 692.5 c 128,-1,2
 170 704 170 704 216 704 c 0,3,4
 232 704 232 704 263 702.5 c 128,-1,5
 294 701 294 701 308 701 c 2,6,-1
 475 701 l 2,7,8
 483 701 483 701 500.5 702 c 128,-1,9
 518 703 518 703 527 703 c 0,10,11
 544 703 544 703 559 700 c 0,12,13
 578 696 578 696 588.5 682 c 128,-1,14
 599 668 599 668 599 650 c 0,15,16
 599 598 599 598 528 598 c 0,17,18
 517 598 517 598 496 599.5 c 128,-1,19
 475 601 475 601 467 601 c 2,20,-1
 253 601 l 2,21,22
 245 601 245 601 225 600 c 128,-1,23
 205 599 205 599 195 599 c 0,24,25
 125 599 125 599 125 650 c 0,0,1
184 364 m 0,26,27
 184 417 184 417 264 417 c 0,28,29
 277 417 277 417 302 415.5 c 128,-1,30
 327 414 327 414 339 414 c 0,31,32
 355 414 355 414 390.5 416 c 128,-1,33
 426 418 426 418 444 418 c 0,34,35
 479 418 479 418 500 413 c 0,36,37
 518 409 518 409 528.5 394.5 c 128,-1,38
 539 380 539 380 539 363 c 0,39,40
 539 313 539 313 471 313 c 0,41,42
 463 313 463 313 448.5 313.5 c 128,-1,43
 434 314 434 314 428 314 c 2,44,-1
 286 314 l 2,45,46
 280 314 280 314 267.5 313.5 c 128,-1,47
 255 313 255 313 248 313 c 0,48,49
 184 313 184 313 184 364 c 0,26,27
125 50 m 0,50,51
 125 83 125 83 148.5 93.5 c 128,-1,52
 172 104 172 104 212 104 c 0,53,54
 229 104 229 104 261.5 102 c 128,-1,55
 294 100 294 100 308 100 c 2,56,-1
 475 100 l 2,57,58
 483 100 483 100 500.5 101 c 128,-1,59
 518 102 518 102 527 102 c 0,60,61
 544 102 544 102 559 99 c 0,62,63
 578 95 578 95 588.5 81 c 128,-1,64
 599 67 599 67 599 49 c 0,65,66
 599 -2 599 -2 525 -2 c 0,67,68
 515 -2 515 -2 495 -1 c 128,-1,69
 475 0 475 0 467 0 c 2,70,-1
 253 0 l 2,71,72
 245 0 245 0 225 -1 c 128,-1,73
 205 -2 205 -2 195 -2 c 0,74,75
 125 -2 125 -2 125 50 c 0,50,51
EndSplineSet
Validated: 1
EndChar

StartChar: uni02CB
Encoding: 715 715 133
Width: 723
Flags: W
HStem: 501 184<319.826 348.07>
VStem: 258 153
LayerCount: 2
Fore
SplineSet
258 634 m 0,0,1
 258 655 258 655 271.5 670 c 128,-1,2
 285 685 285 685 307 685 c 0,3,4
 332 685 332 685 353.5 657 c 128,-1,5
 375 629 375 629 385 607 c 1,6,7
 392 598 392 598 401.5 581.5 c 128,-1,8
 411 565 411 565 411 551 c 0,9,10
 411 531 411 531 397.5 516 c 128,-1,11
 384 501 384 501 362 501 c 0,12,13
 344 501 344 501 328.5 514.5 c 128,-1,14
 313 528 313 528 303.5 545.5 c 128,-1,15
 294 563 294 563 283 579 c 0,16,17
 274 592 274 592 266 606 c 128,-1,18
 258 620 258 620 258 634 c 0,0,1
EndSplineSet
Validated: 1
EndChar

StartChar: uni02CA
Encoding: 714 714 134
Width: 723
Flags: W
HStem: 501 184<371.963 402.391>
VStem: 312 153<549 637>
LayerCount: 2
Fore
SplineSet
329 593 m 4,0,1
 333 599 333 599 344 620 c 132,-1,2
 355 641 355 641 362.5 652 c 132,-1,3
 370 663 370 663 384 674 c 132,-1,4
 398 685 398 685 414 685 c 4,5,6
 435 685 435 685 450 671.5 c 132,-1,7
 465 658 465 658 465 637 c 4,8,9
 465 622 465 622 456 603.5 c 132,-1,10
 447 585 447 585 434.5 567.5 c 132,-1,11
 422 550 422 550 407 529 c 5,12,13
 389 501 389 501 364 501 c 4,14,15
 343 501 343 501 327.5 515 c 132,-1,16
 312 529 312 529 312 549 c 4,17,18
 312 566 312 566 329 593 c 4,0,1
EndSplineSet
Validated: 1
EndChar

StartChar: arrowup
Encoding: 8593 8593 135
Width: 723
Flags: W
VStem: 310 102<-0.783203 526>
LayerCount: 2
Fore
SplineSet
311 526 m 1,0,1
 298 509 298 509 270 483.5 c 128,-1,2
 242 458 242 458 219 458 c 0,3,4
 199 458 199 458 184.5 471.5 c 128,-1,5
 170 485 170 485 170 507 c 0,6,7
 170 532 170 532 197.5 560.5 c 128,-1,8
 225 589 225 589 244 604 c 0,9,10
 246 606 246 606 273.5 637.5 c 128,-1,11
 301 669 301 669 321 684 c 128,-1,12
 341 699 341 699 361 699 c 0,13,14
 385 699 385 699 419 665 c 2,15,-1
 514 570 l 2,16,17
 523 560 523 560 532 552.5 c 128,-1,18
 541 545 541 545 547 532.5 c 128,-1,19
 553 520 553 520 553 505 c 0,20,21
 553 484 553 484 540 472.5 c 128,-1,22
 527 461 527 461 507 461 c 0,23,24
 480 461 480 461 458 481 c 1,25,-1
 411 529 l 1,26,-1
 411 114 l 2,27,28
 411 108 411 108 411.5 92.5 c 128,-1,29
 412 77 412 77 412 68 c 0,30,31
 412 -10 412 -10 361 -10 c 128,-1,32
 310 -10 310 -10 310 68 c 0,33,34
 310 77 310 77 310.5 92.5 c 128,-1,35
 311 108 311 108 311 114 c 2,36,-1
 311 526 l 1,0,1
EndSplineSet
Validated: 1
EndChar

StartChar: arrowdown
Encoding: 8595 8595 136
Width: 724
Flags: W
VStem: 312 100<206 732.783>
LayerCount: 2
Fore
SplineSet
312 206 m 1,0,1
 312 618 l 2,2,3
 312 624 312 624 311.5 639.5 c 128,-1,4
 311 655 311 655 311 664 c 0,5,6
 311 742 311 742 362 742 c 128,-1,7
 413 742 413 742 413 664 c 0,8,9
 413 655 413 655 412.5 639.5 c 128,-1,10
 412 624 412 624 412 618 c 2,11,-1
 412 203 l 1,12,-1
 459 251 l 1,13,14
 481 271 481 271 508 271 c 0,15,16
 528 271 528 271 541 259.5 c 128,-1,17
 554 248 554 248 554 227 c 0,18,19
 554 212 554 212 548 199.5 c 128,-1,20
 542 187 542 187 533 179.5 c 128,-1,21
 524 172 524 172 515 162 c 2,22,-1
 420 67 l 2,23,24
 386 33 386 33 362 33 c 0,25,26
 342 33 342 33 322 48 c 128,-1,27
 302 63 302 63 274.5 94.5 c 128,-1,28
 247 126 247 126 245 128 c 0,29,30
 226 143 226 143 198.5 171.5 c 128,-1,31
 171 200 171 200 171 225 c 0,32,33
 171 247 171 247 185.5 260.5 c 128,-1,34
 200 274 200 274 220 274 c 0,35,36
 243 274 243 274 271 248.5 c 128,-1,37
 299 223 299 223 312 206 c 1,0,1
EndSplineSet
Validated: 1
EndChar

StartChar: arrowleft
Encoding: 8592 8592 137
Width: 725
Flags: W
HStem: 415.5 100<171.5 700.401>
LayerCount: 2
Fore
SplineSet
242.5 606.5 m 0,0,1
 242.5 583.5 242.5 583.5 216.5 557 c 128,-1,2
 190.5 530.5 190.5 530.5 171.5 515.5 c 1,3,-1
 586.5 515.5 l 2,4,5
 592.5 515.5 592.5 515.5 608 516 c 128,-1,6
 623.5 516.5 623.5 516.5 632.5 516.5 c 0,7,8
 709.5 516.5 709.5 516.5 709.5 465.5 c 128,-1,9
 709.5 414.5 709.5 414.5 632.5 414.5 c 0,10,11
 623.5 414.5 623.5 414.5 608 415 c 128,-1,12
 592.5 415.5 592.5 415.5 586.5 415.5 c 2,13,-1
 171.5 415.5 l 1,14,-1
 216.5 370.5 l 2,15,16
 239.5 347.5 239.5 347.5 239.5 317.5 c 0,17,18
 239.5 298.5 239.5 298.5 229 286 c 128,-1,19
 218.5 273.5 218.5 273.5 197.5 273.5 c 0,20,21
 181.5 273.5 181.5 273.5 169 279.5 c 128,-1,22
 156.5 285.5 156.5 285.5 148.5 294.5 c 128,-1,23
 140.5 303.5 140.5 303.5 130.5 312.5 c 2,24,-1
 35.5 407.5 l 1,25,26
 0.5 440.5 0.5 440.5 0.5 465.5 c 0,27,28
 0.5 485.5 0.5 485.5 15 505.5 c 128,-1,29
 29.5 525.5 29.5 525.5 61 553 c 128,-1,30
 92.5 580.5 92.5 580.5 94.5 582.5 c 0,31,32
 99.5 587.5 99.5 587.5 114.5 604 c 128,-1,33
 129.5 620.5 129.5 620.5 139 630 c 128,-1,34
 148.5 639.5 148.5 639.5 163.5 648 c 128,-1,35
 178.5 656.5 178.5 656.5 192.5 656.5 c 0,36,37
 214.5 656.5 214.5 656.5 228.5 642 c 128,-1,38
 242.5 627.5 242.5 627.5 242.5 606.5 c 0,0,1
EndSplineSet
Validated: 1
EndChar

